<?xml version="1.0" encoding="UTF-8"?>
<svg width="1702px" height="630px" viewBox="0 0 1702 630" version="1.1" xmlns="http://www.w3.org/2000/svg" xmlns:xlink="http://www.w3.org/1999/xlink" style="background: #FFFFFF;">
    <!-- Generator: Sketch 3.7.2 (28276) - http://www.bohemiancoding.com/sketch -->
    <title>fb_banner</title>
    <desc>Created with Sketch.</desc>
    <defs>
        <rect id="path-1" x="36" y="180" width="1702" height="630"></rect>
        <mask id="mask-2" maskContentUnits="userSpaceOnUse" maskUnits="objectBoundingBox" x="0" y="0" width="1702" height="630" fill="white">
            <use xlink:href="#path-1"></use>
        </mask>
        <radialGradient cx="-54.1555987%" cy="-174.154426%" fx="-54.1555987%" fy="-174.154426%" r="402.157161%" id="radialGradient-3">
            <stop stop-color="#FFCE4E" offset="0%"></stop>
            <stop stop-color="#F5C337" offset="100%"></stop>
        </radialGradient>
        <radialGradient cx="-6.593919%" cy="-88.3500641%" fx="-6.593919%" fy="-88.3500641%" r="326.488856%" id="radialGradient-4">
            <stop stop-color="#0DA960" offset="0%"></stop>
            <stop stop-color="#05924B" offset="100%"></stop>
        </radialGradient>
        <radialGradient cx="-4.42276749%" cy="-2.56440874%" fx="-4.42276749%" fy="-2.56440874%" r="226.265021%" id="radialGradient-5">
            <stop stop-color="#577EC0" offset="0%"></stop>
            <stop stop-color="#557EBF" offset="100%"></stop>
        </radialGradient>
        <radialGradient cx="-35.1621493%" cy="-3.23098682%" fx="-35.1621493%" fy="-3.23098682%" r="261.057395%" id="radialGradient-6">
            <stop stop-color="#E04B3F" offset="0%"></stop>
            <stop stop-color="#CD382D" offset="100%"></stop>
        </radialGradient>
        <linearGradient x1="122.538745%" y1="50.0008476%" x2="-2.70910562%" y2="50.0008476%" id="linearGradient-7">
            <stop stop-color="#231F20" stop-opacity="0.2" offset="0%"></stop>
            <stop stop-color="#F2F2F2" stop-opacity="0.25" offset="100%"></stop>
        </linearGradient>
        <radialGradient cx="49.9993392%" cy="50.0007232%" fx="49.9993392%" fy="50.0007232%" r="70.2931732%" id="radialGradient-8">
            <stop stop-color="#FFFFFF" stop-opacity="0.1" offset="0%"></stop>
            <stop stop-color="#FFFFFF" stop-opacity="0.091" offset="8.96%"></stop>
            <stop stop-color="#FFFFFF" stop-opacity="0" offset="100%"></stop>
        </radialGradient>
        <radialGradient cx="14.3780526%" cy="6.75293597%" fx="14.3780526%" fy="6.75293597%" r="76.9741617%" id="radialGradient-9">
            <stop stop-color="#FFFFFF" stop-opacity="0.1" offset="0%"></stop>
            <stop stop-color="#FFFFFF" stop-opacity="0" offset="100%"></stop>
        </radialGradient>
    </defs>
    <g id="branding_svg" stroke="none" stroke-width="1" fill="none" fill-rule="evenodd">
        <g id="fb_banner">
            <g id="banner" transform="translate(-36.000000, -180.000000)">
                <g id="Group-3">
                    <use id="Rectangle-1" stroke="#979797" mask="url(#mask-2)" stroke-width="2" fill="#DDDDDD" opacity="0.349288713" xlink:href="#path-1"></use>
                    <g id="world" opacity="0.418726679" transform="translate(0.564390, 0.141156)" fill="#E0E0E0">
                        <path d="M751.32104,247.362666 C752.184558,246.996791 754.35351,247.901315 754.947813,247.362666 C756.888188,245.619678 758.208861,239.87239 760.454006,236.43723 C763.506794,231.746915 766.762762,231.569059 767.682154,227.336088 C768.515195,223.911091 764.431266,214.616848 765.960199,207.329837 C766.463071,204.44857 769.510779,203.11211 771.354643,200.108886 C774.768076,194.33619 777.069096,190.128627 780.421575,183.751222 C784.033109,177.007941 784.906786,166.8295 782.24512,154.603175 C784.932183,152.448578 787.350032,150.065308 789.554541,147.341572 C785.744905,131.598781 789.473268,116.323497 796.808086,103.690645 C798.408133,100.860194 799.403718,97.7604197 800.434859,96.4239594 C806.433765,88.0189963 821.022128,83.8470043 820.453223,70.9397453 C815.074018,61.6912368 801.151071,63.3529194 791.312052,67.3877082 C789.696767,64.1253223 786.94875,61.9910511 785.876973,58.200179 C787.314475,52.940725 794.476589,53.535272 793.094962,45.5063471 C790.509489,40.3078723 784.85599,38.6919241 780.421575,34.6164825 C772.934372,27.64453 770.094923,21.4043276 758.615222,18.2588184 C755.196709,17.2882332 748.679693,16.2058528 745.931676,16.4446879 C742.259188,16.6225438 736.417747,22.3901576 729.529926,23.6910467 C724.592639,24.6311423 719.203275,22.6493191 716.805744,23.6910467 C709.597914,26.8772087 706.19972,36.7710801 698.651562,40.0029764 C692.490112,42.7216314 688.812544,37.365627 684.088596,43.7176246 C679.511954,36.1866963 668.128764,35.4346198 654.988062,36.3848786 C654.094067,12.4912046 633.400128,8.31921264 616.830754,0.010799851 L587.806413,0.010799851 C578.74456,9.80303927 559.061444,8.88327002 544.127674,12.8062637 C538.84498,15.9517729 539.556111,25.1291389 535.020106,29.1690094 C531.388253,27.2938997 532.206055,21.0841869 525.998889,21.8362634 C507.042144,30.236145 500.728308,51.1824921 498.635549,76.4126263 C500.311788,83.9029018 512.141976,81.2045733 513.264548,89.1572742 C510.252397,98.8986977 500.062892,101.434415 489.568616,103.690645 C480.511843,103.065608 483.031282,90.7935488 471.429673,92.7652088 C459.513134,102.298287 485.388177,115.357994 469.555332,123.661325 C460.772853,119.32164 456.363835,111.023391 460.544275,98.2838243 C454.210121,90.2803074 445.86956,95.3314158 433.246968,94.5640945 C427.781411,105.047431 437.361374,111.023391 438.676968,120.05339 C447.342619,121.145934 454.738391,123.402163 456.881945,130.938173 C462.571001,131.873187 463.292292,127.691032 469.555332,129.225675 C476.631095,143.794616 506.35133,151.457666 524.11439,143.682821 C526.364614,138.540244 526.364614,132.427082 524.11439,127.386136 C513.467729,119.438517 494.307803,131.105866 491.458196,116.440374 C501.6477,110.464415 506.635783,123.671488 520.497776,120.058472 C524.866158,125.312844 530.986972,126.054758 538.672276,123.671488 C543.990527,116.14056 545.814072,107.928697 553.194606,101.907004 C555.500705,100.031894 560.656412,100.296137 564.095242,98.2939875 C567.107394,96.556081 567.864242,92.7194744 571.399583,92.775372 C574.096805,87.6023052 574.711426,80.3457832 578.617572,76.4227895 C592.941801,74.9389629 598.976264,65.2737634 611.385516,61.9046639 C613.407162,67.1387099 614.646564,73.1654852 614.99705,80.0967849 C606.107901,88.6999304 586.516216,86.6723728 575.016197,92.775372 C579.638555,107.857555 570.216057,126.354572 580.491913,136.416136 C595.527274,139.871623 606.143457,136.563502 613.209061,147.351735 C616.972981,153.129512 619.329875,170.554312 618.715254,183.761385 C618.400324,188.964941 615.164674,194.447986 614.99705,200.119049 C614.839585,205.373421 617.343785,211.323973 616.825675,214.62193 C615.977396,220.054158 609.754992,224.215987 611.385516,229.170545 C610.664225,236.599841 619.126695,234.780629 620.493084,240.080736 C615.505001,247.047607 607.215235,254.532801 605.930118,267.389244 C604.975169,277.079851 609.953093,298.630909 613.214141,309.170143 C615.860567,318.093429 616.592017,323.561228 622.296311,327.377509 C624.119857,328.531031 627.31995,327.728139 629.565095,329.191639 C634.309361,332.220272 636.493552,339.014368 642.314675,336.498977 C650.995564,330.853322 652.793712,320.192129 658.655471,311.014763 C659.473273,309.678303 659.386921,306.979974 660.504414,305.613024 C660.997127,304.794887 663.709587,304.429012 664.060073,303.707425 C666.929999,298.524195 665.787108,291.907954 671.364414,287.400577 C676.184873,283.431849 689.528755,284.046722 698.646483,278.223211 C705.681609,273.812384 709.394734,264.07096 718.619131,260.102232 C725.395202,257.124416 736.554894,258.171225 744.103051,254.649677 C744.910694,254.177089 745.27134,251.280578 745.931676,251.026498 C746.866307,250.609807 748.679693,251.590555 749.543211,251.026498 C750.208627,250.513257 750.782612,247.657399 751.32104,247.362666 L751.32104,247.362666 Z" id="Shape"></path>
                        <path d="M1767.47269,90.9714047 C1758.02987,85.5391764 1750.06012,92.5822713 1743.792,92.7652088 C1738.25025,92.9227384 1731.82466,90.0770435 1725.66829,89.1572742 C1721.48785,88.5424009 1717.51567,89.614618 1712.91363,89.1572742 C1703.77051,88.1257098 1694.38865,84.5736728 1685.65696,83.6640667 C1671.37845,82.3377697 1665.15096,88.3391369 1654.79384,89.1572742 C1652.59949,91.865766 1652.46234,96.6170601 1649.28764,98.2838243 C1642.20172,96.9016296 1638.03652,103.385749 1632.94685,105.514938 C1629.2642,107.100397 1624.58597,107.608557 1620.24806,109.199097 C1616.17937,110.535557 1612.95388,114.173981 1607.46293,112.735889 C1599.87921,109.021241 1595.30257,99.147696 1585.68197,98.2838243 C1576.5998,97.4606054 1568.8383,107.003847 1560.24377,107.354477 C1557.29765,107.46119 1555.59601,106.338157 1552.89879,105.514938 C1550.40983,104.681556 1545.47254,104.457966 1543.89789,103.695726 C1538.3917,101.281967 1536.96943,95.5854957 1529.31969,94.5640945 C1523.80334,93.9492212 1518.83049,97.4606054 1512.98397,98.2838243 C1504.45039,99.4068575 1497.05462,96.0021868 1489.36423,100.05222 C1484.69108,105.662305 1489.88234,113.030622 1489.36423,120.05339 C1482.73547,123.148083 1475.76637,125.922636 1467.53248,127.381055 C1461.84851,129.484836 1462.38185,137.920289 1454.82862,138.220103 C1439.96596,128.305905 1438.74688,104.640903 1407.50787,111.023391 C1404.18079,116.130397 1404.18079,124.555686 1396.64787,125.505945 C1388.45969,125.948044 1384.99038,120.449755 1376.60411,120.05339 C1366.90731,119.585883 1354.82315,129.428939 1345.72066,120.05339 C1348.15883,92.2621306 1328.08967,73.622829 1303.93658,83.6691483 C1295.03727,81.0572069 1290.89239,73.724461 1280.29652,72.8046917 C1280.09334,75.6249786 1275.65893,74.2122944 1276.67991,78.2572464 C1270.21877,84.2077977 1278.34091,93.1260023 1276.67991,98.2838243 C1273.92173,106.510932 1267.04915,107.46119 1256.71234,109.194015 C1247.81811,123.559693 1225.39714,129.118961 1233.02657,154.603175 C1229.36424,158.145049 1221.05416,157.199872 1220.28207,163.699236 C1216.10671,165.604835 1216.5791,172.083873 1216.73657,178.197035 C1208.51792,181.627114 1204.18001,188.858228 1194.8591,190.992499 C1187.77318,185.987125 1185.0404,176.596332 1173.10355,176.423557 C1171.37143,183.863017 1167.15544,201.953506 1167.60751,209.138885 C1168.07483,216.629161 1176.39507,223.164096 1171.26476,229.165463 C1160.17618,227.031192 1153.96902,225.176409 1142.19978,227.336088 C1141.11785,230.537495 1144.36366,237.997281 1140.36608,238.286932 C1131.96456,245.507883 1120.41883,240.79216 1111.30618,243.795384 C1110.58997,243.917342 1108.51753,246.890077 1107.59814,247.362666 C1105.2514,248.592413 1102.39671,247.66248 1100.40047,249.171715 C1094.66061,253.404686 1093.88853,262.785316 1085.7867,263.715248 C1082.26152,259.375564 1083.39425,250.355727 1074.88099,251.021416 C1067.43442,254.588698 1079.72176,271.403706 1067.663,272.785901 C1059.74912,272.221844 1060.77518,262.780234 1056.74204,258.196633 C1042.58036,250.660623 1028.11898,243.226245 1009.47209,240.075654 C1004.44845,234.363938 1000.72009,228.794507 994.964998,227.331006 C977.91307,223.108198 965.310796,234.419836 958.58552,238.28185 C953.429814,241.208851 950.697035,241.508665 947.679804,243.790302 C943.96668,246.483549 940.847858,248.866819 938.572236,251.021416 C932.395547,256.733133 933.883845,263.715248 931.339008,270.961607 C930.267231,274.015648 925.898849,277.476216 924.039747,281.866717 C921.992703,286.861927 922.515893,292.654949 920.412974,296.445821 C920.072647,297.035287 917.314471,297.65016 916.740486,298.244707 C915.480766,299.708207 916.207137,302.193109 914.967736,303.702343 C905.606192,315.400182 895.111916,317.061865 887.705985,327.367345 C888.28505,341.921042 889.245078,356.103782 896.737361,363.741424 C908.501515,366.404182 909.060261,357.785791 918.543713,358.309196 C921.08855,361.825662 920.311384,368.665493 922.261917,372.812077 C919.564695,370.179809 910.32506,370.179809 907.622759,372.812077 C903.498193,380.541187 908.689457,386.735655 907.622759,396.477079 C903.046117,399.729301 897.560242,402.148142 891.317519,403.713274 C886.497061,408.606853 884.033497,415.888783 876.754553,418.241563 C876.002785,409.221727 859.636592,392.040844 853.124655,378.279876 C851.290951,374.245087 853.439585,368.990715 851.331587,365.560636 C847.806404,359.691391 839.415048,359.254373 834.929837,361.871396 C829.840164,365.326883 831.567199,375.4291 831.313223,383.737512 C818.827778,387.553793 807.729041,400.445807 813.108246,416.402025 C823.663476,418.546459 826.370856,412.738192 833.152007,410.990123 C835.747639,405.151367 833.919014,394.840804 842.20878,394.63754 C845.733963,402.153224 835.828911,416.605289 842.20878,427.368113 C848.329594,428.526718 859.123561,425.061068 862.237303,429.197488 C858.757836,435.422446 849.980436,436.438766 844.042485,440.107679 C844.398051,452.151067 861.617602,455.032333 858.564815,467.416187 C854.43009,484.739355 832.943747,470.200903 818.609359,478.280644 C814.073354,481.949558 817.603616,488.489574 816.780734,494.668798 C815.47022,504.608403 810.827544,512.886327 814.94703,520.071706 C821.174514,527.094475 830.053504,523.943884 831.313223,532.816354 C832.745646,542.583185 821.42341,544.885149 813.108246,554.68247 C809.293531,559.220337 808.851613,572.96606 807.729041,574.658232 C804.046393,580.141277 794.842314,582.859932 789.554541,587.397799 C783.276262,592.708069 779.197412,599.969672 775.027131,607.449784 C772.258796,612.23665 768.327253,618.903706 767.682154,623.746469 C766.666252,631.44509 770.282865,643.564702 769.510779,652.864026 C769.206008,656.106086 766.310686,659.256676 765.960199,661.944842 C762.648356,681.585218 774.290602,684.893339 782.24512,694.731312 C785.206477,698.400226 785.567122,700.4786 787.715757,703.781638 C791.941912,710.220023 794.755963,712.425437 800.434859,716.500878 C805.839462,720.362893 808.033812,722.807141 813.108246,725.673163 C825.446385,732.340219 827.884551,725.713816 842.20878,725.673163 C847.293374,725.596939 852.75893,728.015779 856.781905,727.400906 C860.708369,726.877501 864.898968,723.422015 869.506087,721.933107 C887.599315,716.099432 890.723216,719.448205 902.233395,731.06982 C910.421571,730.754761 918.431964,730.653129 920.397736,736.522375 C924.989616,745.247478 916.252853,754.826291 918.533554,765.624687 C920.56028,774.700421 930.602479,779.588918 934.935304,787.439987 C937.266801,791.67804 940.756427,799.163234 942.270122,805.586373 C943.377456,811.018602 944.962264,821.893222 944.007316,827.427082 C943.33682,831.639727 938.287783,833.504673 936.763929,836.477408 C935.758185,838.479558 935.351824,842.473694 934.935304,843.810154 C930.312947,858.780542 935.488971,869.26896 940.380543,880.194396 C942.722199,885.499584 946.338813,890.804773 947.664566,896.55206 C949.340805,903.900051 948.431572,910.368925 949.452555,916.517659 C951.240543,926.675773 960.703678,934.135559 964.030759,943.856656 C967.241012,953.257612 963.878374,964.081416 973.148486,971.073695 C986.238393,969.183341 1000.71501,969.584787 1011.26008,967.455597 C1013.45443,966.972846 1023.73028,962.201225 1024.04521,961.977635 C1029.24664,956.997669 1034.03662,953.252531 1040.41141,945.614889 C1048.76721,935.69561 1056.50331,926.355632 1058.53511,912.919887 C1065.07753,906.94901 1070.56848,908.0009 1073.11332,900.154913 C1075.37878,893.030513 1070.61928,883.065499 1073.11332,876.525482 C1077.38011,865.320558 1098.57692,861.702461 1103.9612,852.906214 C1109.28961,844.425027 1108.41086,823.178866 1105.79999,816.562625 C1103.66151,811.181213 1100.9135,805.484742 1100.39539,800.133819 C1099.39472,791.063166 1102.28496,785.265063 1103.9612,781.936616 C1108.04513,773.988997 1109.02548,771.854726 1114.872,765.624687 C1119.15403,761.091901 1124.2437,755.115942 1127.55555,752.88512 C1138.10062,745.877597 1150.56574,735.14018 1154.91889,725.678244 C1155.1881,724.936331 1158.11898,724.555211 1158.48471,723.838706 C1164.1382,713.817795 1169.78662,701.408532 1171.25968,689.227942 C1160.00856,677.306513 1132.19314,701.708346 1125.7828,683.775387 C1129.04892,678.078916 1138.06506,677.662224 1145.78592,674.714898 C1153.95886,671.538899 1164.84426,667.468539 1171.25968,663.799625 C1173.05783,662.717245 1173.51499,661.004746 1174.82042,660.186609 C1181.9165,655.724966 1188.80432,654.983052 1194.85402,651.060059 C1195.80897,650.445185 1197.39378,648.23469 1198.4808,647.391145 C1204.02255,642.904094 1207.23788,639.484178 1211.21514,632.862856 C1214.56762,627.313751 1217.42738,622.806374 1216.73149,618.319323 C1214.93334,607.195705 1202.04662,612.114691 1200.30942,598.343561 C1218.84965,601.407764 1232.81831,601.783803 1253.04493,600.142446 C1262.51315,608.247595 1272.74837,615.631157 1278.45266,627.415383 C1285.20334,628.004848 1290.95334,629.493757 1294.86457,632.857775 C1295.52999,649.052828 1303.37276,660.181527 1307.60399,669.25218 C1308.77228,671.899692 1308.35576,673.810373 1309.37166,676.539191 C1310.30121,678.846237 1312.14,680.106473 1312.99843,681.97142 C1317.11792,690.427199 1320.12499,698.557756 1325.76325,705.580524 C1332.52409,706.906821 1333.58062,702.475668 1340.32114,703.781638 C1340.11796,712.476253 1342.55105,718.523354 1349.42871,720.16471 C1352.08529,718.47762 1358.29754,711.043242 1352.98945,707.450552 C1354.00027,699.167547 1343.32313,702.582381 1343.92251,694.731312 C1342.09897,688.303091 1345.72066,676.635742 1345.72066,674.709816 C1345.72066,674.105106 1343.57203,670.710598 1343.92251,667.412641 C1344.74032,660.816727 1360.18712,647.482614 1365.72887,641.979243 C1378.9356,628.767088 1385.35611,619.798068 1403.94713,620.189351 C1413.92837,630.103548 1422.848,641.211922 1427.53639,656.461797 C1433.04258,659.058494 1434.08388,655.64366 1442.09428,656.461797 C1448.05255,665.679816 1452.07552,676.711966 1454.82862,689.22286 C1461.84851,688.455539 1459.83194,678.424464 1469.34079,680.101392 C1486.63653,686.123085 1481.63829,700.280417 1496.66857,700.138133 C1501.92079,700.056827 1507.46762,692.835876 1509.34196,691.036991 C1514.18782,686.524531 1517.80951,683.450165 1518.47493,678.246608 C1519.13018,672.738156 1514.30972,659.653041 1512.98397,658.331826 C1512.20173,657.498443 1511.94775,655.409907 1511.12995,654.662912 C1507.8689,651.44626 1502.93161,650.531573 1500.28519,647.3759 C1490.89825,636.399648 1496.60254,621.886604 1511.12995,623.736306 C1516.46344,627.715197 1505.22755,640.22101 1516.6463,640.119378 C1524.63638,639.641708 1520.13085,626.683633 1523.85413,621.972992 C1538.49329,615.727708 1551.62383,612.409424 1560.24885,603.801197 C1568.53861,595.441968 1568.43702,592.281214 1572.97811,580.136195 C1577.2195,568.880455 1579.08368,565.475785 1576.54901,554.677389 C1575.83279,551.379432 1575.59406,545.632144 1574.76102,543.7113 C1573.22192,539.681593 1567.797,535.809415 1565.63821,532.811272 C1563.97721,530.428003 1563.09337,527.089393 1562.06223,525.549669 C1559.22786,521.479309 1558.56245,523.420479 1558.39482,518.328718 C1558.24752,511.02138 1571.01742,505.070829 1565.63821,500.141679 C1558.14085,494.887306 1547.64657,503.734368 1543.89789,494.663716 C1543.89789,485.562574 1549.65806,482.249372 1554.79345,478.275562 C1560.65521,484.891803 1564.9474,485.96402 1576.54901,483.76877 C1580.6177,492.427813 1588.21665,498.703586 1593.00155,507.377874 C1595.48035,512.0377 1594.36286,518.933428 1600.28557,521.931571 C1605.63938,521.276045 1609.46933,519.045223 1612.93356,516.473935 C1615.25998,496.640458 1601.6672,492.636158 1596.55721,480.104938 C1602.2869,473.02119 1602.72882,460.850763 1607.46293,452.821838 C1611.85671,449.869429 1619.19152,449.925327 1623.86468,447.338793 C1628.86292,440.747961 1633.35321,430.513622 1636.61426,420.116673 C1639.41307,410.832593 1643.95923,395.293066 1643.82209,387.350529 C1643.79669,381.455875 1637.01554,376.176095 1642.06965,370.967457 C1644.21321,380.373495 1646.95615,389.144333 1654.79384,392.787839 C1668.70155,373.625132 1642.42014,359.864165 1640.16992,340.106912 C1621.53826,334.923682 1598.71092,340.411808 1594.74382,325.512562 C1594.42889,323.998246 1597.63915,309.967954 1598.39599,307.310278 C1598.60933,306.669997 1601.81959,304.662765 1602.02785,303.697262 C1603.63297,297.645078 1602.88121,285.876097 1605.70542,281.856553 C1611.14557,273.954668 1620.66966,275.809452 1629.27436,272.780819 C1635.86757,270.529671 1638.86448,265.031382 1643.82717,265.519216 C1651.75121,265.885091 1656.09419,271.911866 1663.88109,267.373999 C1670.647,259.721112 1659.8124,234.409673 1672.98865,229.1553 C1682.07083,227.325925 1681.82701,234.811119 1689.28881,234.607855 C1694.028,233.738902 1695.40963,224.612351 1700.19961,229.1553 C1696.15632,240.558406 1698.92465,253.379278 1696.56776,265.519216 C1695.51122,271.190279 1691.79809,276.398917 1691.1276,281.856553 C1688.23228,305.602861 1697.91383,314.978409 1705.64993,327.362264 C1711.14596,336.168673 1715.62609,347.490474 1723.82951,350.991695 C1732.91168,343.91811 1729.01569,326.991307 1731.11353,316.462236 C1731.67736,313.636868 1734.73014,311.822737 1734.73014,309.154898 C1734.83173,306.390509 1731.72815,301.420706 1731.11353,296.435658 C1730.41764,290.983103 1731.98213,284.48374 1731.11353,281.856553 C1729.0868,275.987308 1720.85799,271.962682 1718.37411,265.519216 C1715.22481,257.495372 1719.24779,251.839554 1714.76258,245.497719 C1722.92028,237.860078 1731.52497,230.786493 1745.70189,229.1553 C1748.43467,217.386319 1751.5281,205.97305 1756.54666,196.439972 C1759.8331,191.851289 1768.92035,193.121688 1769.32163,185.46372 C1767.09681,171.723079 1752.48305,170.035989 1749.30327,158.261926 C1748.70389,155.95488 1751.13189,150.573468 1751.1065,147.33649 C1751.1065,142.346361 1748.69881,140.313722 1749.30327,134.596924 C1755.56631,126.527346 1766.22313,133.646665 1776.5701,129.21043 C1780.91308,121.54738 1773.65954,118.503503 1772.88745,111.013227 C1773.79668,101.530965 1771.15534,95.7379437 1767.47269,90.9714047 L1767.47269,90.9714047 Z M1036.72876,280.072912 C1042.7429,281.963267 1051.61174,280.992682 1056.73189,283.726581 C1056.85379,293.534066 1045.31822,291.730098 1036.72876,292.812479 C1034.12297,290.39872 1034.12297,282.588304 1036.72876,280.072912 L1036.72876,280.072912 Z M1038.55739,458.238821 C1047.87829,456.805811 1045.94808,466.659029 1053.01876,467.431432 C1061.39488,467.782062 1061.39488,459.941157 1063.98035,454.635968 L1069.48146,454.635968 C1068.46556,474.469445 1089.96206,471.75079 1094.90951,485.577819 C1088.61091,500.848021 1074.87591,489.343283 1063.98035,487.391949 C1051.60666,485.161128 1042.23495,491.523288 1027.66183,492.859749 C1017.11168,482.981122 1026.87958,462.222794 1038.55739,458.238821 L1038.55739,458.238821 Z M951.291338,376.435256 C950.686876,364.214013 955.070497,359.051109 958.575361,347.409168 C958.829337,339.293856 951.16943,336.392264 951.291338,329.186558 C951.443724,318.799771 959.758888,314.465168 967.642293,309.165061 C969.155988,301.629051 969.018842,292.375461 974.941555,289.153728 C977.902911,288.686221 978.090853,290.891635 980.366475,290.993267 C982.418599,304.58146 971.045568,304.672929 967.642293,312.808567 C967.190217,330.324835 971.812574,342.622303 984.033884,347.41425 C983.078936,363.848138 968.30263,370.388154 974.941555,389.210394 C969.572509,393.102898 964.721573,388.539623 958.575361,389.210394 C949.60494,390.21655 940.09609,399.983381 933.1016,391.034687 C935.194359,382.157135 946.973752,383.026089 951.291338,376.435256 L951.291338,376.435256 Z M1031.25812,561.918666 C1023.11566,561.552791 1016.79675,558.585138 1009.46193,556.516927 C1001.8325,554.286106 992.699535,550.378357 989.453725,551.02372 C981.387458,552.588852 981.346821,560.11978 974.941555,565.592661 C967.962303,564.774524 961.673865,562.965475 956.736577,558.30565 C950.940852,552.685402 937.27188,552.45673 927.646202,545.611818 C928.717979,535.468948 926.813162,528.232753 922.256838,523.745702 C907.008137,524.589247 894.990008,523.430642 882.22011,525.559832 C868.754319,527.866878 856.014899,538.614457 842.20878,532.821436 C848.466741,525.082162 857.863842,527.567063 863.999894,520.076788 C866.829184,516.799157 865.650736,509.771307 867.677462,505.599315 C870.135947,500.715899 875.413562,498.561302 878.578099,494.673879 C882.453768,489.90734 882.95664,484.551336 887.695826,481.954639 C894.537931,478.4585 907.988484,481.649743 911.340963,474.647301 C924.84231,481.751375 932.039981,495.166794 947.659486,500.156923 C950.935773,503.520941 952.545978,508.546642 956.726418,511.036625 C976.805736,494.902551 942.620608,487.087053 938.551918,472.889068 C938.851609,470.729389 941.858681,471.298528 944.002236,470.983469 C949.59986,479.957571 962.293565,481.863171 969.465839,489.195916 C969.425203,493.464459 972.564342,494.597655 971.253828,500.156923 C977.628617,503.0077 981.915727,525.214283 991.267112,525.564914 C1006.62248,526.128971 998.464783,512.124087 1000.33912,501.884667 C1005.12403,501.722056 1006.71391,499.166012 1009.45685,501.884667 C1011.14833,503.719124 1010.11719,509.003986 1011.255,511.036625 C1012.63663,513.313181 1013.53062,515.594818 1014.96812,518.343963 C1017.71614,523.801599 1020.04256,524.370738 1024.03506,529.233827 C1042.7683,526.337317 1052.41938,535.47403 1067.64776,531.058121 C1070.71071,541.617682 1065.69723,552.685402 1060.3485,560.11978 C1049.62057,557.888959 1041.76764,562.492887 1031.25812,561.918666 L1031.25812,561.918666 Z M1116.70062,667.422804 C1112.3424,667.366907 1109.06612,666.335342 1105.79999,663.799625 C1099.69441,659.063576 1099.69441,652.574375 1094.90443,645.602422 C1092.90818,642.807544 1088.74298,640.551314 1087.66612,638.315411 C1085.77655,634.549947 1085.91369,628.208112 1083.953,623.751551 C1081.74849,618.781748 1077.57821,615.737871 1074.87083,611.037393 C1074.10382,609.680606 1075.59212,607.012767 1074.87083,605.52894 C1073.65175,603.074529 1065.49913,598.089481 1067.65284,589.217011 L1073.10824,589.217011 C1076.82136,593.551614 1078.29442,598.450274 1082.16501,603.81136 C1085.19748,608.034168 1090.83066,611.550634 1093.06057,616.505192 C1094.29489,619.259418 1093.31454,622.882598 1094.90443,625.575845 C1102.80308,638.798163 1119.98199,649.95227 1116.70062,667.422804 L1116.70062,667.422804 Z M1127.55555,461.983959 C1134.26558,455.886041 1138.7,447.603037 1153.07502,449.168169 C1158.0885,457.715417 1146.86278,458.010149 1147.56883,467.431432 C1147.38089,474.474527 1155.36588,477.990993 1158.47963,483.789096 C1160.57746,487.55456 1160.57746,492.808933 1162.14196,496.467683 C1165.45888,504.491527 1173.87055,511.829354 1169.38026,520.081869 C1160.77557,525.509016 1150.9975,518.542145 1145.78084,514.680131 C1151.25148,485.577819 1129.7499,483.41814 1127.55555,461.983959 L1127.55555,461.983959 Z M1176.71,605.52894 C1167.55164,605.503532 1157.31134,586.168052 1151.25148,580.146358 C1149.1638,577.458193 1149.1638,575.532267 1151.25148,572.859347 L1156.65608,572.859347 C1162.74642,585.548097 1177.32462,589.760742 1191.24757,594.623831 C1186.36616,601.219745 1182.63271,605.65598 1176.71,605.52894 L1176.71,605.52894 Z" id="Shape"></path>
                        <path d="M651.371448,783.755828 C646.347809,780.04118 640.06445,774.136363 636.844039,772.855801 C628.605067,769.70521 617.948247,771.808991 609.536573,769.273274 C605.767573,768.063854 602.608116,763.703842 598.69689,762.016752 C593.851034,759.857073 589.228677,761.295165 585.947311,760.177213 C574.432053,756.066201 575.453035,748.97229 571.399583,740.155717 C569.44397,735.917664 566.701033,730.043337 564.095242,727.411069 C563.455224,726.689482 556.313427,721.612966 553.194606,720.174874 C546.911247,717.303771 542.563184,719.158554 535.020106,718.335335 C527.207814,717.547687 518.338982,705.326444 513.264548,701.977671 C508.779338,699.004936 504.949384,692.109208 502.368991,691.052235 C493.535717,687.672973 480.608354,692.287064 473.263377,691.052235 C465.115837,689.715775 462.525285,684.700238 456.876866,683.780469 C442.603432,681.381954 432.876163,684.329281 427.776331,687.383322 C422.590148,690.625381 420.26881,697.200969 411.476172,700.153377 C408.413225,701.159534 404.446125,699.004936 402.343206,701.977671 L400.936181,703.359866 C400.062504,703.146439 399.153271,703.065133 398.238959,703.30905 L396.903047,701.97259 C383.879174,700.06699 377.291044,696.453974 375.096694,685.614925 C373.709987,678.673463 381.014328,670.817312 376.935478,663.794543 C373.217274,655.943474 356.399004,661.197847 351.446478,654.673075 C347.133971,645.012957 359.695608,637.86823 356.96283,623.746469 C338.117834,616.185051 338.117834,633.16267 329.650285,638.310329 C309.43382,650.638286 293.941303,630.982665 296.938216,607.449784 C297.456326,603.013549 303.318085,581.279555 304.181602,580.141277 C307.23439,576.096325 323.01644,569.429268 326.053989,569.200596 C330.930322,569.012577 336.649854,573.575852 342.343989,572.859347 C347.194925,571.09095 350.69979,566.558165 356.96791,565.58758 C366.740894,564.098672 378.154561,568.885537 384.173785,572.859347 C386.154796,583.581518 386.154796,596.376982 398.75199,596.473533 C408.829745,584.47588 394.144871,572.96606 398.75199,558.300568 C399.701859,555.175385 403.110213,553.457805 405.985217,551.013557 C411.979044,545.947203 416.631878,542.430738 422.386967,538.299398 C425.942627,535.707783 430.184021,534.579669 431.392945,532.816354 C435.52259,527.038577 434.049531,518.735246 436.8839,512.810103 C438.621093,509.192005 443.060588,505.792416 445.96607,501.874504 C453.498989,492.082264 456.912422,487.950925 469.555332,485.567655 C472.912891,475.155461 477.565725,464.621308 489.568616,463.747274 C495.638635,463.284848 498.742218,466.806396 505.980525,467.421269 C514.280451,461.750205 527.720844,461.25729 531.337458,451.058523 C522.067346,449.346025 517.810713,449.208822 513.259469,441.937055 C511.78641,439.630009 514.214417,433.466031 513.259469,429.197488 C511.984511,423.821158 503.369655,423.348569 509.581901,420.116673 C518.862172,422.159475 523.697869,424.090482 531.332379,421.885069 C537.712248,420.17257 546.728385,414.969014 551.416776,418.241563 C550.040228,426.031653 542.908591,428.013476 544.117515,438.293549 C552.63078,442.440133 561.641837,446.210679 575.006038,445.600887 C581.167488,432.093999 567.788049,425.828389 564.085083,416.402025 C569.286506,404.836307 568.229967,395.191434 564.085083,389.195149 C562.830444,387.350529 561.489452,383.122639 560.483708,381.882729 C556.145803,376.943416 549.217347,375.733996 545.976617,369.234632 C542.608899,362.465943 543.629882,354.894362 542.28889,349.182646 C540.952978,343.211768 540.048824,338.03362 536.823333,330.985443 C523.951845,328.957886 527.24845,343.262584 513.254389,340.111993 C508.103762,334.562888 510.547008,328.490379 511.36481,320.085415 C502.734716,308.804268 491.610581,292.009586 471.419514,298.244707 C466.492385,304.789805 469.99725,312.396958 467.8029,320.085415 C466.182535,325.837784 461.077624,330.152061 460.529036,336.493895 C459.899177,342.739179 464.348831,350.46829 462.296707,356.469657 C459.751871,364.208931 447.027689,365.774063 442.329138,374.616044 C436.873741,384.865627 445.920355,390.765363 435.045116,398.245475 C425.002917,396.278896 432.612029,376.486072 427.761093,369.234632 C425.983263,365.840124 421.752028,367.156258 418.694161,365.560636 C409.815171,360.885566 402.607341,350.463208 395.064263,345.518814 C393.824861,344.695595 392.651494,344.431352 391.43241,343.66403 C384.351568,339.537773 382.9801,336.697159 380.531774,329.181476 C374.182382,309.774853 388.963767,300.795669 400.504422,290.983103 C409.50532,283.365788 418.785592,274.447583 431.377707,274.671174 C436.269279,276.398917 435.913713,283.46742 440.495434,285.576283 C449.252516,282.908444 454.911094,282.105552 462.291628,281.861635 C463.891674,270.062164 451.446866,264.386019 455.0584,256.479053 C466.172376,251.123048 473.507194,247.4084 476.829196,236.432149 C479.409589,228.179633 482.924612,219.947444 487.775548,214.611767 C500.205118,212.431761 503.461087,219.495182 505.965287,227.331006 C505.858617,235.187157 496.334529,233.47974 498.62031,243.790302 C506.671339,246.117674 511.776251,235.187157 515.02206,243.790302 C513.802977,256.479053 503.659188,260.300415 496.898355,267.384162 C489.700684,267.53661 480.897886,265.97656 482.335389,274.681337 C481.568382,284.448168 497.563771,277.577848 502.353753,281.866717 C506.24466,285.987893 506.55959,295.42442 511.354651,300.089327 C514.783323,303.356795 523.784221,307.549113 527.756401,307.320441 C531.119039,307.223891 540.759956,301.522338 542.273651,300.089327 C550.461828,292.705765 543.243838,281.348394 540.429788,270.966689 C547.282052,270.788833 545.996935,278.817758 555.02831,276.459896 C562.962511,271.505338 567.549312,268.822254 567.752492,261.890955 C567.843924,257.205721 562.058357,253.287809 558.670322,249.176796 C554.5102,244.232402 550.096103,241.1123 549.572913,236.43723 C550.284045,229.262014 553.595888,225.648997 553.174288,220.074484 C552.20918,206.206803 535.451864,199.143382 529.54439,185.468802 C527.055428,179.594474 525.628085,174.009798 525.978571,165.554019 C520.477458,157.499686 508.357738,160.447013 498.615231,158.267008 C494.947822,157.392973 492.14393,155.365415 489.548298,154.598094 C466.832713,147.311082 453.17898,172.87152 455.05332,196.439972 C458.370243,201.714671 464.694238,204.169083 464.115173,212.797636 C463.774846,218.102824 458.832479,225.887833 451.441786,225.537202 C448.947745,218.102824 440.165266,211.364625 438.65157,201.943343 C438.285845,199.234851 440.287174,194.08211 440.485275,190.982336 C440.993226,183.182083 439.322066,174.726304 442.3139,167.33766 C452.157998,160.802725 471.328083,163.551869 467.787661,143.672658 C460.513798,137.32066 450.065238,137.915207 442.3139,143.672658 C433.937782,130.404605 424.581317,136.97003 416.840138,143.672658 C407.986546,151.447503 406.549043,152.911003 409.61707,161.880024 C410.160578,163.551869 410.160578,167.063254 411.445695,169.192443 C413.79243,173.389843 420.101186,174.309613 420.502468,180.082308 C420.756443,183.674998 419.43069,185.24013 418.678922,187.369319 C415.179137,197.654474 410.074226,197.654474 400.489184,201.948424 C397.019876,208.214035 399.468201,215.206314 391.417172,218.255272 C382.548341,221.558311 369.209538,215.587433 369.610819,205.490298 C383.127405,205.769786 393.560727,198.472611 395.049024,189.158042 C395.61285,185.829595 392.529585,184.798031 391.417172,181.93201 C388.003739,172.769888 390.81271,160.243749 393.195002,154.598094 C396.156358,147.931037 404.771214,144.414571 404.115956,134.596924 C392.636255,127.477605 386.073523,142.798623 375.066217,141.833119 C362.621408,140.837126 358.512082,129.932017 356.937432,112.725726 C345.244392,103.477217 332.489733,98.629373 324.123774,107.344314 C315.163511,116.669046 294.748945,132.01039 302.368216,145.517278 C307.975999,150.924098 320.253184,143.667576 324.123774,147.331409 C321.213212,154.232219 325.408891,161.727576 324.123774,167.332578 C323.707253,169.360136 319.785869,172.337952 318.72933,174.61959 C316.976898,178.186872 319.130612,184.930152 313.233296,183.74614 C304.704792,183.182083 302.525681,176.230457 298.685569,171.006574 C285.961387,169.192443 277.824006,162.799793 271.439057,154.598094 C253.6506,154.450727 237.924425,156.264858 222.396351,158.267008 C218.566398,154.750542 215.467895,150.629366 213.263386,145.52236 C206.74129,144.85667 205.166641,137.838983 200.529045,134.602005 C196.800681,132.015472 189.531897,130.785725 184.17301,127.375973 C183.421242,126.811916 183.202823,124.37783 182.339306,123.661325 C180.876406,122.523047 178.306172,122.894004 176.883908,121.862439 C176.015311,121.313627 176.015311,118.915112 175.116237,118.254505 C173.429839,116.994268 171.098342,117.741263 169.665919,116.435292 C165.952794,113.05603 165.068959,108.355552 162.417453,105.52002 C158.237013,101.180335 155.793767,99.8286301 149.693271,98.2889059 C139.087246,95.5397614 130.16762,99.8997725 124.20935,101.901922 C120.745122,103.07069 116.046572,102.455816 113.303634,103.700808 C106.324382,106.790419 101.133119,113.543863 93.3005089,116.440374 C86.9257191,118.767746 79.5807422,115.15473 75.1463267,121.867521 C73.2719861,135.277858 80.7541099,148.937194 75.1463267,160.045567 C69.1372619,160.767154 66.2520981,152.971982 58.7445767,152.819534 C57.1648479,152.7738 52.379946,155.299354 49.6370085,156.422387 C38.4569987,161.127947 39.0817789,168.191368 40.6056331,180.092471 C43.8666809,187.176219 58.9477573,182.343619 60.5681222,190.99758 C57.383267,203.447496 43.3231729,196.480625 35.1756328,200.119049 C33.8295617,200.683106 30.7818534,204.809364 27.871292,207.34 C24.6204032,210.211103 19.9828072,212.660433 18.7637239,214.627011 C15.6144253,219.988097 12.7648181,231.960342 13.3591212,236.447393 C14.3801035,244.699909 26.0629851,246.854506 24.2242012,260.112395 C28.8617972,263.415434 36.6944075,263.415434 36.9331446,270.976852 C31.1983736,287.624167 9.89997233,288.798016 0.629859707,301.903458 C20.8158474,302.106722 29.1614885,290.551168 44.2425649,285.59661 C51.4859516,283.741826 49.6827242,290.952614 56.9921445,289.163891 C67.7353161,283.589378 62.5491325,264.853526 73.2821451,261.901118 C83.3141848,269.630229 101.590275,263.628861 109.641305,258.211878 C113.318873,260.513842 116.945645,264.081123 122.411202,267.399407 C126.61704,269.853819 133.286441,271.266503 136.95893,274.696582 C139.000894,276.576773 142.678462,285.754139 144.242952,287.415822 C151.323795,294.72316 149.093888,302.980756 151.425385,314.648106 C151.953654,316.904335 152.405731,318.718466 153.274328,321.919872 C154.09213,324.816383 154.584843,329.572759 155.087714,331.00577 C157.053486,335.645269 162.630792,339.314182 164.164805,343.684357 C165.079118,346.306461 163.453674,351.332162 164.164805,354.660608 C164.840381,357.353855 167.446171,360.61116 167.852532,361.896804 C171.037388,372.679955 167.745863,378.655914 166.013748,387.375937 C168.909071,395.216842 175.786733,399.348182 176.899146,407.427922 C177.3817,410.31427 175.50228,413.215863 175.131476,416.427433 C173.897154,427.291889 173.480634,428.455575 171.519941,434.680533 C168.39604,444.447364 164.073374,450.936565 162.432691,458.259148 C159.94373,469.138849 160.106274,488.276147 162.432691,496.482928 C164.22576,503.170311 166.318519,513.821341 167.852532,518.364289 C171.555498,529.05089 180.221148,529.172848 186.027033,538.329888 C188.673459,542.532369 188.607426,549.799055 191.477351,556.537254 C195.04317,564.657647 203.886603,569.734164 200.539204,581.99606 C208.590233,587.88055 209.860111,600.523566 220.567726,603.836768 C222.294761,595.370826 213.522441,587.946611 218.662909,581.99606 C225.489775,583.861006 225.291674,591.097202 227.785715,594.649239 C228.918447,596.224534 232.184574,596.803837 233.291908,598.363887 C234.510992,599.959509 233.870973,602.058209 235.079897,603.831687 C238.645716,608.938693 244.670019,611.769143 245.985613,618.334567 C246.691666,621.723993 244.151909,628.86872 245.985613,632.878101 C250.587653,643.020971 281.283154,658.540171 293.255568,660.201854 C298.695728,660.923441 306.314998,658.560497 311.394512,660.201854 C316.179414,661.634864 320.110958,669.272506 327.847057,672.890604 C334.775514,676.213969 345.16312,675.426321 349.602615,678.277098 C357.917779,683.795713 359.274009,694.091031 364.17574,698.324002 C366.974552,700.854638 371.266741,701.835386 375.076376,703.807046 C385.149052,709.010603 389.954272,713.54847 398.731672,703.807046 L400.499343,703.807046 C404.425807,711.414199 410.942823,717.01412 409.627229,729.265853 C408.865302,735.526381 404.314057,738.463545 400.499343,743.855121 C397.70053,747.752706 391.503524,753.01216 389.593626,758.363083 C386.794814,766.412334 390.670483,769.049684 389.593626,776.529796 C388.82662,781.733352 385.220165,785.60553 385.961774,789.249036 C386.9472,794.178186 396.166517,802.379885 400.499343,809.275614 C405.401073,817.126683 410.221532,827.762467 413.233684,832.915208 C415.941064,837.600441 418.551934,845.217757 420.517706,847.443497 C431.022141,859.466557 447.815013,859.832433 453.229775,874.691025 C460.523957,894.844643 452.462768,933.632481 453.229775,952.937472 C453.544705,959.650263 455.510477,966.495175 455.05332,972.913234 C454.387904,981.719643 450.029681,989.62661 449.562366,998.397448 C449.460776,1001.70049 450.994789,1006.13164 451.441786,1011.1421 C451.904022,1016.95544 450.639223,1023.79019 451.441786,1029.28848 C452.056407,1034.2278 454.718073,1037.17512 455.05332,1042.07886 C456.023508,1058.84306 451.792273,1076.68963 455.05332,1091.14169 C456.450187,1097.3819 461.417951,1103.75422 464.115173,1109.35414 C467.340664,1115.73155 469.844865,1121.88028 473.243059,1127.50053 C485.728504,1131.78431 498.417129,1149.66138 515.02206,1138.39039 C516.444324,1132.14003 511.877841,1128.64897 509.571742,1125.64574 C506.24466,1121.30098 502.90742,1119.96452 500.464174,1114.75588 C498.864127,1111.34105 496.42596,1106.50336 496.898355,1100.253 C497.335193,1091.70575 506.55959,1085.65865 505.965287,1076.588 C505.442097,1069.71259 498.066643,1066.53151 498.62031,1060.23033 C504.598898,1051.00215 510.287953,1041.56054 509.571742,1025.67038 C518.389778,1024.80143 517.165615,1013.84551 522.316242,1009.31272 C529.762809,1006.51276 538.966888,1005.44054 544.112435,1000.2319 C546.266149,995.12998 546.164559,987.639705 545.966458,980.190082 C550.289124,977.933853 556.958526,977.857629 560.473549,974.752772 C567.14803,969.478073 567.14803,961.195069 571.379265,954.782092 C573.609172,951.326605 578.302642,948.856949 580.471595,945.630134 C583.03167,941.935812 586.445103,936.528992 587.781015,932.96171 C591.290959,923.078002 586.658443,918.484237 591.341754,911.121002 C593.068789,908.371857 596.939379,908.199083 598.671493,907.477496 C599.215001,907.228497 599.783906,904.250681 600.464561,903.813664 C602.03921,902.837997 604.589126,902.741446 605.90472,902.019859 C608.038116,900.835847 609.216563,899.270715 611.360118,898.345864 C614.621166,897.065301 621.188977,898.203579 625.872289,894.732848 C635.609717,887.638937 640.846696,867.409095 642.279118,851.102247 C642.583889,847.534965 640.943206,840.512197 642.279118,836.48249 C643.391532,833.103227 649.664731,826.588618 653.169596,821.999935 C657.588773,815.97316 662.653048,812.776835 664.029596,805.591455 C666.970635,791.068248 659.991383,790.245029 651.371448,783.755828 L651.371448,783.755828 Z" id="Shape"></path>
                        <path d="M1123.98973,220.074484 C1121.90205,208.468115 1113.90181,205.62242 1113.08401,194.651249 C1112.76908,190.728256 1115.58821,186.805262 1116.70062,181.937091 C1117.93495,176.418476 1116.90381,171.214919 1118.60036,167.342742 C1119.10831,166.031689 1122.66905,163.968561 1123.99481,161.885105 C1125.78787,158.917452 1126.12312,154.755623 1127.56063,152.814453 C1134.27066,144.145247 1147.4774,139.658196 1147.57391,129.220593 C1146.05006,125.302681 1143.14965,122.746637 1136.67835,123.661325 C1133.76779,128.219518 1131.27375,130.785725 1125.77772,134.602005 C1116.36538,141.218246 1111.96652,140.938758 1105.79491,150.95967 C1099.68933,160.853541 1100.39031,168.475938 1098.51089,183.751222 C1097.3426,193.441829 1094.08155,204.545121 1094.89935,207.329837 C1097.50006,216.05494 1112.33732,223.951744 1123.98973,220.074484 L1123.98973,220.074484 Z" id="Shape"></path>
                        <path d="M795.055654,283.726581 C781.219059,280.326992 762.948047,283.630031 751.32104,283.726581 C749.23844,294.164184 752.098206,307.650745 762.226757,311.014763 C778.831687,316.574031 805.727712,299.139068 795.055654,283.726581 L795.055654,283.726581 Z" id="Shape"></path>
                        <path d="M1656.53103,403.718356 C1656.27197,407.687084 1658.03965,409.475806 1662.0169,409.226808 C1662.32676,405.25808 1660.52353,403.403297 1656.53103,403.718356 L1656.53103,403.718356 Z" id="Shape"></path>
                        <path d="M1662.0169,454.635968 C1672.9785,450.479221 1685.24552,447.603037 1687.47035,434.660206 C1679.60726,431.037027 1672.66357,426.458507 1662.0169,425.584472 C1662.52486,436.022075 1654.03191,447.653853 1662.0169,454.635968 L1662.0169,454.635968 Z" id="Shape"></path>
                        <path d="M1654.78876,496.462602 C1651.47691,500.548207 1649.46035,504.831994 1645.62531,507.388037 C1636.19266,511.30595 1624.57581,517.454683 1622.02589,527.409534 C1620.19727,534.579669 1617.5864,542.994795 1629.2642,545.606736 C1633.68846,542.115678 1632.58112,533.12125 1638.38701,531.05304 C1646.13327,529.299888 1652.25916,525.07708 1658.40537,521.941734 C1665.48621,518.338881 1672.0591,515.44237 1678.39834,511.031543 C1677.26053,490.313868 1683.8385,461.983959 1663.87601,460.093605 C1661.28038,468.813627 1666.04496,477.884279 1663.87601,485.577819 C1662.4893,490.212236 1657.40979,493.159563 1654.78876,496.462602 L1654.78876,496.462602 Z" id="Shape"></path>
                        <path d="M913.093395,496.462602 C910.391094,499.232073 909.90854,508.927762 916.735406,507.388037 C919.559616,504.618567 920.001534,494.902551 913.093395,496.462602 L913.093395,496.462602 Z" id="Shape"></path>
                        <path d="M942.275202,523.750783 C948.436652,524.543512 952.551058,523.186726 951.291338,516.48918 C945.998485,516.667035 941.051039,517.134543 942.275202,523.750783 L942.275202,523.750783 Z" id="Shape"></path>
                        <path d="M1576.54393,596.478614 C1573.93814,599.115964 1573.93814,608.450859 1576.54393,611.037393 C1584.29526,610.803639 1584.5848,602.109025 1582.03996,596.478614 L1576.54393,596.478614 L1576.54393,596.478614 Z" id="Shape"></path>
                        <path d="M427.776331,632.862856 C425.998502,623.121433 415.961382,621.657933 405.985217,620.199514 L405.985217,621.495321 C403.516574,620.47392 401.134282,619.381377 398.75199,618.598811 L398.75199,616.510274 C399.000886,613.507049 387.536423,613.507049 387.846274,616.510274 C391.610193,617.526593 392.986742,621.048141 398.75199,620.204595 L398.75199,618.690279 L405.985217,621.551219 L405.985217,623.756633 C409.500241,629.966345 417.891598,639.01159 427.776331,632.862856 L427.776331,632.862856 Z" id="Shape"></path>
                        <path d="M438.671889,643.778129 C445.813685,648.981685 458.034995,647.294595 462.301787,640.134623 C460.188709,631.312969 435.761327,628.065828 438.671889,643.778129 L438.671889,643.778129 Z" id="Shape"></path>
                        <path d="M1589.32398,640.134623 C1569.81865,639.48926 1580.06403,670.100807 1585.68197,676.544273 C1590.91895,676.691639 1597.58835,675.512709 1600.28049,678.261853 C1593.23521,684.486811 1599.32555,693.725156 1600.28049,700.153377 C1600.98655,705.28071 1599.61,709.971025 1600.28049,711.058487 C1602.31738,715.047541 1611.9075,720.947277 1614.76727,720.179955 C1625.87108,717.359668 1622.7421,698.862652 1612.93356,692.932427 C1613.22818,688.425049 1613.22818,684.090446 1611.1405,681.986664 C1605.28382,675.685483 1596.32863,671.864121 1593.00155,661.965168 C1590.59386,655.079603 1595.74449,646.26303 1589.32398,640.134623 L1589.32398,640.134623 Z" id="Shape"></path>
                        <path d="M1545.67064,809.26545 C1546.3259,801.597319 1537.87359,797.216982 1532.9871,796.571619 C1527.84155,795.804297 1523.24459,799.320763 1518.47493,798.426402 C1515.87929,797.781039 1511.33313,795.555299 1509.34196,794.681264 C1506.04536,793.370212 1501.10299,793.004337 1500.28519,789.238873 C1500.33598,783.262913 1503.34813,780.193628 1502.06302,772.855801 C1495.63235,766.849352 1492.18844,765.314709 1489.36423,758.35292 C1485.64603,749.328002 1487.39338,730.30758 1483.93931,723.843787 C1480.79001,717.949134 1471.40307,715.794536 1467.53756,711.053405 C1465.48036,708.593912 1465.04352,703.715578 1463.92095,701.977671 C1461.7012,698.461205 1460.55831,698.613653 1458.45539,694.741475 C1457.98808,693.257649 1456.9417,692.536062 1454.8337,692.927345 C1446.43218,710.68753 1472.35802,716.973467 1463.92095,734.769223 C1454.49845,732.665442 1452.65967,722.924018 1440.28597,723.843787 C1436.39506,733.280315 1448.1135,738.743033 1453.01523,745.608272 C1453.5689,746.426409 1452.54792,748.357416 1453.01523,749.22637 C1453.21841,749.841243 1456.17469,750.395137 1456.61661,750.989684 C1457.18043,751.863719 1456.21533,753.820134 1456.61661,754.709414 C1456.9417,755.349695 1459.8421,755.786713 1460.24338,756.559116 C1463.00664,761.300247 1465.38893,770.736774 1467.54264,772.855801 C1473.63806,779.248451 1481.60273,787.246886 1487.55593,791.068248 C1489.88742,792.653706 1494.01707,792.85697 1496.67873,794.681264 C1501.51443,798.263791 1503.04336,803.807814 1507.56413,805.591455 C1509.61625,806.435 1515.47801,804.671686 1520.24768,805.591455 C1523.58492,806.287634 1526.58691,808.955473 1529.32985,809.26545 C1535.21192,809.93114 1539.82412,808.742046 1545.67064,809.26545 L1545.67064,809.26545 Z" id="Shape"></path>
                        <path d="M1560.24377,716.511041 C1547.78372,728.915222 1535.93321,741.939358 1518.46985,749.22637 C1512.33379,771.509177 1536.99483,785.686836 1558.38974,780.193628 C1562.33145,770.741856 1571.08345,760.182295 1572.96795,750.989684 C1573.8975,746.431491 1570.78376,741.741176 1571.11393,736.532538 C1571.48981,730.663292 1576.49313,728.025943 1574.75594,721.94327 C1570.59074,719.509184 1568.73671,714.666421 1560.24377,716.511041 L1560.24377,716.511041 Z" id="Shape"></path>
                        <path d="M1582.03996,760.177213 C1575.34008,765.268975 1574.96928,779.964956 1580.25705,787.445068 L1598.38584,787.445068 C1600.27542,781.723189 1597.2531,772.225682 1598.38584,762.016752 C1595.45496,758.916977 1587.70362,760.527844 1582.03996,760.177213 L1582.03996,760.177213 Z" id="Shape"></path>
                        <path d="M1712.91363,772.855801 C1703.86194,769.679802 1694.6223,766.783291 1687.47035,767.474388 C1682.70576,767.8301 1678.39834,771.961439 1672.9785,771.036588 C1669.42284,767.86059 1667.73644,762.860297 1663.87093,760.172132 C1659.00475,760.172132 1653.41221,759.450545 1651.13659,762.01167 C1652.87378,769.700128 1654.83955,775.798046 1660.20352,780.183465 C1662.27088,781.845147 1666.51227,780.849154 1669.26029,781.936616 C1672.15561,783.161281 1674.19758,786.281383 1676.59003,787.439987 C1679.91203,789.081343 1682.94958,787.617843 1685.6468,789.233791 C1691.57968,792.801073 1690.80251,800.560673 1692.94098,807.497054 C1701.80982,809.565265 1707.00108,815.780059 1716.52517,814.692597 C1723.15393,813.996418 1725.66321,806.587448 1732.9066,807.497054 C1742.51704,810.56634 1743.28405,822.49285 1758.41592,820.160397 C1761.26044,811.293008 1746.2454,806.064044 1747.46449,792.902705 C1736.87878,785.117697 1727.64422,778.171152 1712.91363,772.855801 L1712.91363,772.855801 Z" id="Shape"></path>
                    </g>
                </g>
                <g id="Group-4-Copy" transform="translate(267.000000, 426.000000)">
                    <text id="GDG-Cloud-Vancouver" font-family="ProductSans-Regular, Product Sans" font-size="98.35" font-weight="normal" fill="#4A4A4A">
                        <tspan x="251.918736" y="103.828283">GDG Cloud Vancouver</tspan>
                    </text>
                    <g id="Group-2">
                        <g id="Group-3" transform="translate(132.957111, 0.000000)">
                            <g id="separate">
                                <g id="Group">
                                    <path d="M49.5587075,86.8084756 L18.648695,138.263322 L34.2593288,138.263322 C37.9564791,138.263322 42.5434994,135.665986 44.4509337,132.476801 L57.6014561,110.546407 C59.1537405,107.335228 59.0998694,102.654425 57.3261151,99.6891828 L49.5587075,86.8084756 L49.5587075,86.8084756 Z" id="Shape" fill="url(#radialGradient-3)"></path>
                                    <path d="M35.4305253,63.3704671 C37.3359644,66.5456554 37.3359644,71.7503249 35.4305253,74.9395097 L0.711629946,133.112639 C-0.629160681,135.985904 0.763505774,138.263322 4.20925788,138.263322 L18.6466998,138.263322 L49.5567123,86.8084756 L35.4305253,63.3704671 L35.4305253,63.3704671 Z" id="Shape" fill="url(#radialGradient-4)"></path>
                                    <path d="M4.20925788,0.034657807 C0.502131411,0.034657807 -0.972339235,2.64399078 0.935095051,5.82117858 L57.3261151,99.6931818 C59.0998694,102.656424 59.1537405,107.337228 57.6014561,110.550406 L71.308646,87.6882507 L18.6546807,0.034657807 L4.20925788,0.034657807 L4.20925788,0.034657807 Z" id="Shape" fill="url(#radialGradient-5)"></path>
                                    <path d="M78.9423736,63.3704671 L44.4509337,5.81917909 C42.5434994,2.64199129 37.9544839,0.0326583181 34.2593288,0.0326583181 L18.6566759,0.0326583181 L71.3106412,87.6862512 L78.9443688,74.9395097 C80.8498078,71.7523244 80.8498078,66.5456554 78.9423736,63.3704671 L78.9423736,63.3704671 Z" id="Shape" fill="url(#radialGradient-6)"></path>
                                    <path d="M57.3261151,99.6911823 L35.4305253,63.3704671 C37.3359644,66.5456554 37.3359644,71.7503249 35.4305253,74.9395097 L27.7229745,87.804221 L57.6034513,110.548407 C59.1537405,107.337228 59.0998694,102.656424 57.3261151,99.6911823 L57.3261151,99.6911823 Z" id="Shape" fill="url(#linearGradient-7)"></path>
                                </g>
                                <path d="M78.9423736,63.3693364 L44.4509337,5.81907579 C42.5434994,2.64194471 37.9544839,0.0326583181 34.2593288,0.0326583181 L18.6566759,0.0326583181 L4.2112531,0.0326583181 C0.504126635,0.0326583181 -0.970344011,2.64194471 0.937090275,5.81907579 L35.4305253,63.3693364 C37.3359644,66.544468 37.3359644,71.7490446 35.4305253,74.9381724 L0.711629946,133.110263 C-0.629160681,135.983477 0.763505774,138.260854 4.20925788,138.260854 L18.6466998,138.260854 L34.2573335,138.260854 C37.9544839,138.260854 42.5415042,135.663565 44.4489385,132.474437 L71.3066507,87.6846864 L78.9403783,74.9381724 C80.8498078,71.7510441 80.8498078,66.544468 78.9423736,63.3693364 L78.9423736,63.3693364 Z" id="Shape" fill="url(#radialGradient-8)"></path>
                            </g>
                        </g>
                        <g id="Google-Cloud-Platform" transform="translate(0.000000, 0.702020)">
                            <path d="M100.823506,109.155445 L85.203756,136.394924 L44.2973216,136.394924 C40.6481076,136.394244 37.2781609,134.43489 35.4634416,131.258728 L2.37560349,73.3846293 C0.579333973,70.2379243 0.579333973,66.3720274 2.37560349,63.2253223 L14.9668145,41.2091377 L30.5085964,68.300536 L53.9382221,109.155445 L100.823506,109.155445 Z" id="Shape" fill="#FBBC05"></path>
                            <path d="M152.394716,73.3844988 L119.306878,131.267346 C117.493747,134.445094 114.122794,136.405034 110.472998,136.403542 L85.195035,136.403542 L100.814785,109.164063 L124.261723,68.300536 L100.814785,27.4456272 L131.932843,27.4456272 L152.385995,63.2251917 C154.197996,66.3668423 154.20132,70.2397219 152.394716,73.3844988 L152.394716,73.3844988 Z" id="Shape" fill="#EA4335"></path>
                            <path d="M131.941434,27.4456272 L53.9382221,27.4456272 L30.5085964,68.300536 L14.9669447,41.2003887 L35.4635718,5.34247469 C37.2766459,2.1647176 40.6475454,0.204730046 44.2973216,0.206148438 L110.481719,0.206148438 C114.130345,0.209020162 117.499276,2.16778442 119.315599,5.34234411 L131.941434,27.4456272 Z" id="Shape" fill="#4285F4"></path>
                            <polyline id="Shape" fill="#E0E0E0" points="100.823506 27.4456272 124.253132 68.300536 100.814785 109.155445 53.946813 109.155445 30.5085964 68.300536 53.9382221 27.4456272 100.823506 27.4456272"></polyline>
                            <ellipse id="Oval" fill="#FFFFFF" cx="77.3851597" cy="68.300536" rx="20.3664625" ry="20.4318289"></ellipse>
                            <path d="M35.4634416,6.18682018 C37.2765721,3.00907285 40.6475259,1.04913247 44.2973216,1.05062451 L110.481719,1.05062451 C114.130345,1.05349624 117.499276,3.0122605 119.315599,6.18682018 L131.46425,27.4456272 L131.950155,27.4456272 L119.315469,5.34247469 C117.502338,2.16472736 114.131384,0.204786978 110.481589,0.20627902 L44.2973216,0.20627902 C40.6481076,0.20695828 37.2781609,2.16631315 35.4634416,5.34247469 L14.9668145,41.2003887 L15.2098318,41.6270012 L35.4634416,6.18682018 Z" id="Shape" fill="#FFFFFF" opacity="0.2"></path>
                            <polyline id="Shape" fill-opacity="0.2" fill="#1A237E" points="30.5089869 68.300536 53.9386126 27.4452354 131.941043 27.4452354 131.455529 26.5925327 53.9386126 26.5925327 30.5089869 67.4478333"></polyline>
                            <path d="M2.37560349,64.0696678 L14.9668145,42.0447342 L30.5084662,69.1448815 L53.938092,109.99979 L100.328751,109.99979 L100.823376,109.146696 L53.938092,109.146696 L30.5084662,68.300536 L14.9668145,41.2003887 L2.37560349,63.2165733 C1.42705614,64.8923267 0.967008728,66.8017689 1.0479247,68.7271486 C1.1133747,67.0905636 1.56863561,65.4935139 2.37560349,64.0696678 L2.37560349,64.0696678 Z" id="Shape" fill="#FFFFFF" opacity="0.2"></path>
                            <g id="Group" opacity="0.2" transform="translate(0.588053, 66.994713)" fill="#BF360C">
                                <path d="M85.1016072,68.546986 L43.7092684,68.546986 C40.0600544,68.5463068 36.6901077,66.5869519 34.8753884,63.4107904 L1.78755028,5.53669174 C0.980582402,4.11284562 0.525321491,2.51579598 0.459871487,0.879210979 C0.371515457,2.80531353 0.832055104,4.71679875 1.78755028,6.38978625 L34.8753884,64.2726339 C36.6885189,67.4503812 40.0594727,69.4103216 43.7092684,69.4088296 L84.6157028,69.4088296 L85.1016072,68.546986 Z" id="Shape"></path>
                            </g>
                            <g id="Group" opacity="0.2" transform="translate(85.195035, 26.514183)" fill="#3E2723">
                                <polygon id="Shape" points="39.5440016 41.7863528 16.1143759 0.931052173 15.628862 0.931052173 39.0662976 41.7863528"></polygon>
                                <path d="M67.199681,46.017221 L34.1118429,103.900069 C32.2987124,107.077816 28.9277586,109.037756 25.2779629,109.036264 L0.494625432,109.036264 L0,109.889359 L25.2779629,109.889359 C28.9265888,109.886487 32.2955197,107.927723 34.1118429,104.753163 L67.199681,46.8703155 C68.1512422,45.19576 68.6115022,43.2854352 68.5273598,41.3597402 C68.4619098,42.9963252 68.0066489,44.5933749 67.199681,46.017221 L67.199681,46.017221 Z" id="Shape"></path>
                            </g>
                            <g id="Group" opacity="0.2" transform="translate(85.195035, 26.514183)" fill="#FFFFFF">
                                <path d="M46.7463987,1.77591999 L67.1995508,37.5554846 C68.0065187,38.9793307 68.4617796,40.5763803 68.5272296,42.2129653 C68.6155857,40.2868628 68.155046,38.3753776 67.1995508,36.7023901 L46.7463987,0.922825485 L15.6284715,0.922825485 L16.1230969,1.77591999" id="Shape"></path>
                                <polygon id="Shape" points="15.628862 83.4943562 39.5440016 41.7863528 39.0662976 41.7863528 15.628862 82.6416534 0.00911152111 109.881132 0.494625432 109.881132"></polygon>
                            </g>
                            <path d="M152.394716,63.2165733 L131.941564,27.4370087 L119.306878,5.33372567 C117.493747,2.15597834 114.122794,0.196037961 110.472998,0.197530002 L44.2973216,0.197530002 C40.6481076,0.198209263 37.2781609,2.15756413 35.4634416,5.33372567 L2.37560349,63.2165733 C0.579333973,66.3632784 0.579333973,70.2291752 2.37560349,73.3758803 L35.4634416,131.258728 C37.2765721,134.436475 40.6475259,136.396416 44.2973216,136.394924 L110.481719,136.394924 C114.130345,136.392052 117.499276,134.433288 119.315599,131.258728 L152.403437,73.3758803 C154.201329,70.2287747 154.198008,66.3605677 152.394716,63.2165733 L152.394716,63.2165733 Z" id="Shape" fill="url(#radialGradient-9)"></path>
                        </g>
                    </g>
                </g>
            </g>
        </g>
    </g>
</svg>