<?xml version="1.0" encoding="UTF-8"?>
<svg width="1076px" height="1076px" viewBox="0 0 1076 1076" version="1.1" xmlns="http://www.w3.org/2000/svg" xmlns:xlink="http://www.w3.org/1999/xlink">
    <!-- Generator: Sketch 3.7.2 (28276) - http://www.bohemiancoding.com/sketch -->
    <title>gdgcv_logo_square_type3</title>
    <desc>Created with Sketch.</desc>
    <defs>
        <radialGradient cx="6.59649984%" cy="2.14172508%" fx="6.59649984%" fy="2.14172508%" r="137.109246%" id="radialGradient-1">
            <stop stop-color="#577EC0" offset="0%"></stop>
            <stop stop-color="#557EBF" offset="100%"></stop>
        </radialGradient>
        <path d="M1080,958.512 C1080,1025.328 1025.328,1080 958.512,1080 L121.488,1080 C54.672,1080 0,1025.328 0,958.512 L0,121.488 C0,54.672 54.672,0 121.488,0 L958.512,0 C1025.328,0 1080,54.672 1080,121.488 L1080,958.512 L1080,958.512 Z" id="path-2"></path>
        <radialGradient cx="50.0006826%" cy="49.9997318%" fx="50.0006826%" fy="49.9997318%" r="64.1609104%" id="radialGradient-4">
            <stop stop-color="#DEDEDE" offset="0%"></stop>
            <stop stop-color="#D1D1D1" offset="100%"></stop>
        </radialGradient>
        <radialGradient cx="49.9993505%" cy="49.9988543%" fx="49.9993505%" fy="49.9988543%" r="61.3220108%" id="radialGradient-5">
            <stop stop-color="#DEDEDE" offset="0%"></stop>
            <stop stop-color="#D1D1D1" offset="100%"></stop>
        </radialGradient>
        <linearGradient x1="122.536784%" y1="50%" x2="-2.69925607%" y2="50%" id="linearGradient-6">
            <stop stop-color="#231F20" stop-opacity="0.2" offset="0%"></stop>
            <stop stop-color="#F2F2F2" stop-opacity="0.25" offset="100%"></stop>
        </linearGradient>
        <radialGradient cx="50.0001888%" cy="49.9998547%" fx="50.0001888%" fy="49.9998547%" r="70.2900058%" id="radialGradient-7">
            <stop stop-color="#FFFFFF" stop-opacity="0.1" offset="0%"></stop>
            <stop stop-color="#FFFFFF" stop-opacity="0.091" offset="8.96%"></stop>
            <stop stop-color="#FFFFFF" stop-opacity="0" offset="100%"></stop>
        </radialGradient>
        <radialGradient cx="14.3780526%" cy="6.75293597%" fx="14.3780526%" fy="6.75293597%" r="76.9741617%" id="radialGradient-8">
            <stop stop-color="#FFFFFF" stop-opacity="0.1" offset="0%"></stop>
            <stop stop-color="#FFFFFF" stop-opacity="0" offset="100%"></stop>
        </radialGradient>
    </defs>
    <g id="branding_svg" stroke="none" stroke-width="1" fill="none" fill-rule="evenodd">
        <g id="square_logo" transform="translate(-2806.000000, -208.000000)">
            <g id="gdgcv_logo_square_type3" transform="translate(2806.500000, 208.000000)">
                <g id="gdg_logo_square_offcolor">
                    <g id="Group">
                        <path d="M1075.152,954.216 C1075.152,1020.732 1020.732,1075.152 954.216,1075.152 L120.936,1075.152 C54.42,1075.152 0,1020.732 0,954.216 L0,120.936 C0,54.42 54.42,0 120.936,0 L954.204,0 C1020.72,0 1075.14,54.42 1075.14,120.936 L1075.14,954.216 L1075.152,954.216 Z" id="Shape" fill="url(#radialGradient-1)"></path>
                        <g>
                            <g id="backgroundImage-Clipped">
                                <mask id="mask-3" fill="white">
                                    <use xlink:href="#path-2"></use>
                                </mask>
                                <g id="SVGID_A_"></g>
                            </g>
                            <g id="Group-7" transform="translate(157.000000, 292.000000)">
                                <g id="Group-4" transform="translate(477.600000, 0.200000)">
                                    <g id="Group">
                                        <path d="M177.8184,311.448 L66.78,495.9048 L122.8608,495.9048 C136.1376,495.9048 152.6184,486.5952 159.4656,475.1616 L206.712,396.552 C212.2776,385.0248 212.0976,368.256 205.7112,357.6288 L177.8184,311.448 L177.8184,311.448 Z" id="Shape" fill="#FFFFFF"></path>
                                        <path d="M127.0656,227.4312 C133.9128,238.8144 133.9128,257.4768 127.0656,268.9104 L2.3472,477.4368 C-2.4768,487.74 2.5272,495.9048 14.904,495.9048 L66.78,495.9048 L177.8184,311.448 L127.0656,227.4312 L127.0656,227.4312 Z" id="Shape" fill="url(#radialGradient-4)"></path>
                                        <path d="M14.904,0.3864 C1.584,0.3864 -3.7008,9.7392 3.1464,21.1296 L205.7184,357.6288 C212.1048,368.2632 212.2848,385.032 206.7192,396.552 L255.9672,314.5872 L66.816,0.3792 L14.904,0.3792 L14.904,0.3864 Z" id="Shape" fill="#FFFFFF"></path>
                                        <path d="M283.3848,227.4312 L159.4656,21.1296 C152.6184,9.7392 136.1376,0.3864 122.8608,0.3864 L66.8088,0.3864 L255.96,314.5944 L283.3848,268.9104 C290.2392,257.4768 290.2392,238.8144 283.3848,227.4312 L283.3848,227.4312 Z" id="Shape" fill="url(#radialGradient-5)"></path>
                                        <path d="M205.7184,357.6288 L127.0656,227.4312 C133.9128,238.8144 133.9128,257.4768 127.0656,268.9104 L99.3744,315.0192 L206.7192,396.552 C212.2848,385.032 212.1048,368.256 205.7184,357.6288 L205.7184,357.6288 Z" id="Shape" fill="url(#linearGradient-6)"></path>
                                    </g>
                                    <path d="M283.3848,227.4312 L159.4656,21.1296 C152.6184,9.7392 136.1376,0.3864 122.8608,0.3864 L66.8088,0.3864 L14.904,0.3864 C1.584,0.3864 -3.7008,9.7392 3.1464,21.1296 L127.0656,227.4312 C133.9128,238.8144 133.9128,257.4768 127.0656,268.9104 L2.3472,477.4368 C-2.4768,487.74 2.5272,495.9048 14.904,495.9048 L66.78,495.9048 L122.8608,495.9048 C136.1376,495.9048 152.6184,486.5952 159.4656,475.1616 L255.96,314.5872 L283.3848,268.9032 C290.2392,257.4768 290.2392,238.8144 283.3848,227.4312 L283.3848,227.4312 Z" id="Shape" fill="url(#radialGradient-7)"></path>
                                </g>
                                <g id="Group-2-Copy">
                                    <g id="Google-Cloud-Platform" transform="translate(0.000000, 0.132176)">
                                        <path d="M365.120657,396.645771 L308.115932,495.627769 L158.826733,495.627769 C145.508822,495.625301 133.210105,488.505456 126.587235,476.964016 L5.83222589,266.662858 C-0.723310971,255.228456 -0.723310971,241.180676 5.83222589,229.746274 L51.7842098,149.744524 L108.504386,248.188432 L194.011474,396.645771 L365.120657,396.645771 Z" id="Shape" fill="#9B9B9B"></path>
                                        <path d="M553.331258,266.662383 L432.576249,476.995333 C425.959177,488.542536 413.656785,495.664508 400.336751,495.659086 L308.084104,495.659086 L365.08883,396.677088 L450.659097,248.188432 L365.08883,99.7310941 L478.655068,99.7310941 L553.29943,229.745799 C559.912379,241.161834 559.924512,255.234988 553.331258,266.662383 L553.331258,266.662383 Z" id="Shape" fill="#EDEDED"></path>
                                        <path d="M478.686421,99.7310941 L194.011474,99.7310941 L108.504386,248.188432 L51.7846849,149.712733 L126.58771,19.4133238 C133.204576,7.86608567 145.50677,0.74394188 158.826733,0.749095989 L400.368579,0.749095989 C413.684343,0.759531174 425.979353,7.8772298 432.608076,19.4128493 L478.686421,99.7310941 Z" id="Shape" fill="#4B4B4B"></path>
                                        <polyline id="Shape" fill="#E0E0E0" points="365.120657 99.7310941 450.627745 248.188432 365.08883 396.645771 194.042827 396.645771 108.504386 248.188432 194.011474 99.7310941 365.120657 99.7310941"></polyline>
                                        <ellipse id="Oval" fill="#FFFFFF" cx="279.581742" cy="248.188432" rx="74.327986" ry="74.2445652"></ellipse>
                                        <path d="M126.587235,22.481481 C133.204307,10.9342784 145.506699,3.812306 158.826733,3.81772773 L400.368579,3.81772773 C413.684343,3.82816292 425.979353,10.9458615 432.608076,22.481481 L476.944926,99.7310941 L478.718248,99.7310941 L432.607601,19.4133238 C425.99053,7.86612114 413.688138,0.74414876 400.368104,0.749570495 L158.826733,0.749570495 C145.508822,0.752038771 133.210105,7.87188354 126.587235,19.4133238 L51.7842098,149.712733 L52.6711084,151.262944 L126.587235,22.481481 Z" id="Shape" fill="#4B4B4B" opacity="0.2"></path>
                                        <polyline id="Shape" fill-opacity="0.2" fill="#1A237E" points="108.505811 248.188432 194.012899 99.7296706 478.684996 99.7296706 476.913099 96.6311449 194.012899 96.6311449 108.505811 245.089907"></polyline>
                                        <path d="M5.83222589,232.814431 L51.7842098,152.78089 L108.503911,251.25659 L194.010999,399.713928 L363.315033,399.713928 L365.120182,396.613979 L194.010999,396.613979 L108.503911,248.188432 L51.7842098,149.712733 L5.83222589,229.714482 C2.37047525,235.803784 0.691519109,242.742258 0.986824255,249.738644 C1.22568591,243.791671 2.8871736,237.98836 5.83222589,232.814431 L5.83222589,232.814431 Z" id="Shape" fill="#FFFFFF" opacity="0.2"></path>
                                        <g id="Group" opacity="0.2" transform="translate(0.727314, 246.280977)" fill="#5C5A5A">
                                            <path d="M309.161941,246.246368 L158.099419,246.246368 C144.781508,246.2439 132.482791,239.124055 125.859922,227.582615 L5.10491233,17.281457 C2.15986004,12.1075278 0.498372352,6.30421688 0.259510696,0.357243561 C-0.0629471554,7.35625704 1.61780543,14.3021545 5.10491233,20.3814062 L125.859922,230.714356 C132.476993,242.261559 144.779385,249.383531 158.099419,249.378109 L307.388619,249.378109 L309.161941,246.246368 Z" id="Shape"></path>
                                        </g>
                                        <g id="Group" opacity="0.2" transform="translate(308.084104, 99.184048)" fill="#3E2723">
                                            <polygon id="Shape" points="144.316962 149.004384 58.8098747 0.545622531 57.0379779 0.545622531 142.573568 149.004384"></polygon>
                                            <path d="M245.247153,164.378386 L124.492144,374.711336 C117.875073,386.258539 105.572681,393.380511 92.2526468,393.375089 L1.80514963,393.375089 L0,396.475038 L92.2526468,396.475038 C105.568411,396.464603 117.863421,389.346905 124.492144,377.811285 L245.247153,167.478335 C248.719903,161.393386 250.399635,154.451705 250.092555,147.454173 C249.853693,153.401146 248.192206,159.204457 245.247153,164.378386 L245.247153,164.378386 Z" id="Shape"></path>
                                        </g>
                                        <g id="Group" opacity="0.2" transform="translate(308.084104, 99.184048)" fill="#FFFFFF">
                                            <path d="M170.602316,3.61567779 L245.246678,133.630383 C248.191731,138.804312 249.853218,144.607623 250.09208,150.554596 C250.414538,143.555583 248.733785,136.609685 245.246678,130.530434 L170.602316,0.515728639 L57.0365527,0.515728639 L58.8417024,3.61567779" id="Shape"></path>
                                            <polygon id="Shape" points="57.0379779 300.561672 144.316962 149.004384 142.573568 149.004384 57.0379779 297.463146 0.0332527563 396.445144 1.80514963 396.445144"></polygon>
                                        </g>
                                        <path d="M478.686896,99.6997767 L432.576249,19.3815318 C425.959177,7.83432922 413.656785,0.712356843 400.336751,0.717778578 L158.826733,0.717778578 C145.508822,0.720246854 133.210105,7.84009162 126.587235,19.3815318 L5.83222589,229.714482 C-0.723310971,241.148884 -0.723310971,255.196664 5.83222589,266.631066 L126.587235,476.964016 C133.204307,488.511218 145.506699,495.633191 158.826733,495.627769 L400.368579,495.627769 C413.684343,495.617334 425.979353,488.499635 432.608076,476.964016 L553.363086,266.631066 C559.924542,255.195208 559.912424,241.139034 553.331258,229.714482 L478.686896,99.6997767 Z" id="Shape" fill="url(#radialGradient-8)"></path>
                                    </g>
                                </g>
                            </g>
                        </g>
                    </g>
                </g>
            </g>
        </g>
    </g>
</svg>