<?xml version="1.0" encoding="UTF-8"?>
<svg width="1080px" height="1080px" viewBox="0 0 1080 1080" version="1.1" xmlns="http://www.w3.org/2000/svg" xmlns:xlink="http://www.w3.org/1999/xlink">
    <!-- Generator: Sketch 3.7.2 (28276) - http://www.bohemiancoding.com/sketch -->
    <title>gdgcv_logo_square_type1</title>
    <desc>Created with Sketch.</desc>
    <defs>
        <path d="M1080,958.512 C1080,1025.328 1025.328,1080 958.512,1080 L121.488,1080 C54.672,1080 0,1025.328 0,958.512 L0,121.488 C0,54.672 54.672,0 121.488,0 L958.512,0 C1025.328,0 1080,54.672 1080,121.488 L1080,958.512 L1080,958.512 Z" id="path-1"></path>
        <path d="M1080,958.512 C1080,1025.328 1025.328,1080 958.512,1080 L121.488,1080 C54.672,1080 0,1025.328 0,958.512 L0,121.488 C0,54.672 54.672,0 121.488,0 L958.512,0 C1025.328,0 1080,54.672 1080,121.488 L1080,958.512 L1080,958.512 Z" id="path-3"></path>
        <radialGradient cx="-54.1555987%" cy="-174.154426%" fx="-54.1555987%" fy="-174.154426%" r="402.157161%" id="radialGradient-5">
            <stop stop-color="#FFCE4E" offset="0%"></stop>
            <stop stop-color="#F5C337" offset="100%"></stop>
        </radialGradient>
        <radialGradient cx="-6.593919%" cy="-88.3500641%" fx="-6.593919%" fy="-88.3500641%" r="326.488856%" id="radialGradient-6">
            <stop stop-color="#0DA960" offset="0%"></stop>
            <stop stop-color="#05924B" offset="100%"></stop>
        </radialGradient>
        <radialGradient cx="-4.42276749%" cy="-2.56440874%" fx="-4.42276749%" fy="-2.56440874%" r="226.265021%" id="radialGradient-7">
            <stop stop-color="#577EC0" offset="0%"></stop>
            <stop stop-color="#557EBF" offset="100%"></stop>
        </radialGradient>
        <radialGradient cx="-35.1621493%" cy="-3.23098682%" fx="-35.1621493%" fy="-3.23098682%" r="261.057395%" id="radialGradient-8">
            <stop stop-color="#E04B3F" offset="0%"></stop>
            <stop stop-color="#CD382D" offset="100%"></stop>
        </radialGradient>
        <linearGradient x1="122.538745%" y1="50.0008476%" x2="-2.70910562%" y2="50.0008476%" id="linearGradient-9">
            <stop stop-color="#231F20" stop-opacity="0.2" offset="0%"></stop>
            <stop stop-color="#F2F2F2" stop-opacity="0.25" offset="100%"></stop>
        </linearGradient>
        <radialGradient cx="49.9993392%" cy="50.0007232%" fx="49.9993392%" fy="50.0007232%" r="70.2931732%" id="radialGradient-10">
            <stop stop-color="#FFFFFF" stop-opacity="0.1" offset="0%"></stop>
            <stop stop-color="#FFFFFF" stop-opacity="0.091" offset="8.96%"></stop>
            <stop stop-color="#FFFFFF" stop-opacity="0" offset="100%"></stop>
        </radialGradient>
        <radialGradient cx="14.3780526%" cy="6.75293597%" fx="14.3780526%" fy="6.75293597%" r="76.9741617%" id="radialGradient-11">
            <stop stop-color="#FFFFFF" stop-opacity="0.1" offset="0%"></stop>
            <stop stop-color="#FFFFFF" stop-opacity="0" offset="100%"></stop>
        </radialGradient>
    </defs>
    <g id="branding_svg" stroke="none" stroke-width="1" fill="none" fill-rule="evenodd">
        <g id="square_logo" transform="translate(-329.000000, -208.000000)">
            <g id="gdgcv_logo_square_type1" transform="translate(329.000000, 208.000000)">
                <g id="gdg_logo_square">
                    <g id="Group">
                        <path d="M1080,958.512 C1080,1025.328 1025.328,1080 958.512,1080 L121.488,1080 C54.672,1080 0,1025.328 0,958.512 L0,121.488 C0,54.672 54.672,0 121.488,0 L958.512,0 C1025.328,0 1080,54.672 1080,121.488 L1080,958.512 L1080,958.512 Z" id="Shape" fill="#F0F0F0"></path>
                        <g>
                            <g id="world-Clipped">
                                <mask id="mask-2" fill="white">
                                    <use xlink:href="#path-1"></use>
                                </mask>
                                <g id="SVGID_1_"></g>
                                <g id="world" mask="url(#mask-2)" fill="#E0E0E0">
                                    <g transform="translate(-224.000000, 78.000000)" id="Shape">
                                        <path d="M606.788,200.544 C607.496,200.268 609.236,200.988 609.716,200.544 C611.276,199.14 612.356,194.496 614.156,191.712 C616.628,187.932 619.268,187.788 620.012,184.344 C620.672,181.596 617.372,174.108 618.62,168.216 C619.016,165.888 621.476,164.808 622.976,162.384 C625.724,157.716 627.584,154.32 630.284,149.148 C633.212,143.712 633.92,135.492 631.772,125.604 C633.944,123.888 635.9,121.932 637.652,119.772 C634.604,107.028 637.604,94.692 643.544,84.48 C644.828,82.224 645.644,79.704 646.46,78.648 C651.296,71.844 663.116,68.472 662.636,58.044 C658.292,50.568 647.048,51.912 639.092,55.188 C637.784,52.548 635.552,50.82 634.7,47.76 C635.852,43.512 641.66,43.992 640.532,37.512 C638.432,33.3 633.86,32.016 630.284,28.716 C624.236,23.064 621.944,18.048 612.68,15.48 C609.908,14.712 604.628,13.824 602.42,14.016 C599.456,14.172 594.716,18.828 589.172,19.884 C585.2,20.628 580.82,19.032 578.888,19.884 C573.08,22.44 570.32,30.432 564.212,33.072 C559.256,35.268 556.28,30.924 552.452,36.048 C548.756,29.988 539.576,29.376 528.932,30.144 C528.2,10.848 511.484,7.476 498.116,0.744 L474.644,0.744 C467.324,8.652 451.424,7.908 439.352,11.076 C435.104,13.644 435.656,21.036 431.984,24.312 C429.08,22.788 429.728,17.772 424.724,18.384 C409.412,25.164 404.288,42.096 402.62,62.472 C403.952,68.532 413.504,66.348 414.428,72.768 C411.98,80.628 403.76,82.68 395.264,84.492 C387.944,84 389.996,74.088 380.612,75.696 C370.988,83.4 391.88,93.924 379.076,100.656 C371.996,97.14 368.42,90.42 371.804,80.148 C366.704,73.68 359.948,77.736 349.748,77.124 C345.344,85.608 353.072,90.42 354.128,97.728 C361.148,98.628 367.112,100.44 368.852,106.536 C373.46,107.268 374.024,103.896 379.088,105.12 C384.824,116.892 408.824,123.084 423.2,116.82 C425,112.668 425,107.736 423.2,103.632 C414.596,97.212 399.104,106.656 396.812,94.8 C405.044,89.988 409.064,100.656 420.272,97.728 C423.812,101.976 428.744,102.576 434.972,100.656 C439.244,94.548 440.732,87.912 446.696,83.052 C448.58,81.528 452.732,81.744 455.528,80.148 C457.952,78.732 458.564,75.648 461.408,75.696 C463.604,71.496 464.096,65.64 467.24,62.472 C478.82,61.272 483.692,53.46 493.724,50.724 C495.38,54.972 496.364,59.832 496.652,65.448 C489.428,72.384 473.636,70.74 464.324,75.696 C468.068,87.864 460.46,102.816 468.776,110.94 C480.92,113.748 489.488,111.06 495.212,119.796 C498.248,124.464 500.156,138.54 499.664,149.172 C499.4,153.396 496.76,157.812 496.652,162.408 C496.508,166.656 498.536,171.456 498.128,174.144 C497.408,178.512 492.404,181.896 493.724,185.868 C493.136,191.904 499.976,190.416 501.092,194.688 C497.048,200.328 490.352,206.376 489.332,216.756 C488.564,224.568 492.584,242.004 495.212,250.512 C497.324,257.724 497.924,262.116 502.532,265.212 C504.008,266.148 506.6,265.476 508.412,266.7 C512.252,269.112 514.016,274.608 518.696,272.58 C525.728,268.008 527.168,259.416 531.908,252 C532.568,250.908 532.496,248.748 533.42,247.608 C533.804,246.948 536.012,246.684 536.288,246.12 C538.592,241.896 537.668,236.544 542.168,232.932 C546.08,229.704 556.856,230.208 564.224,225.504 C569.912,221.928 572.924,214.068 580.364,210.864 C585.848,208.464 594.86,209.304 600.968,206.46 C601.628,206.088 601.928,203.724 602.444,203.544 C603.188,203.196 604.664,203.988 605.36,203.544 C605.888,203.088 606.344,200.796 606.788,200.544 L606.788,200.544 Z"></path>
                                        <path d="M985.76,47.748 C986.672,48.288 987.716,50.22 988.724,50.712 C997.58,54.648 1003.724,50.964 1010.768,49.248 C1013.48,52.956 1013.48,59.28 1019.564,59.52 C1024.556,57.684 1028.024,54.228 1029.848,49.248 C1026.932,45.96 1024.184,40.8 1018.088,40.44 C1013.576,40.152 1012.244,41.916 1007.84,43.344 C1003.064,36.9 997.628,31.044 987.236,30.132 C984.524,24.588 981.488,19.32 972.596,19.884 C967.016,27.132 969.416,36.048 974.024,41.868 C975.104,43.188 983.948,46.596 985.76,47.748 L985.76,47.748 Z"></path>
                                        <path d="M373.244,61.008 L383.54,61.008 C384.296,65.568 386.144,69.216 387.932,72.756 C392.012,73.812 392.42,69.42 393.812,66.828 C399.836,55.74 392.168,52.32 384.98,47.748 C385.388,41.58 380.732,40.308 379.076,36.036 C363.932,34.644 366.32,55.716 373.244,61.008 L373.244,61.008 Z"></path>
                                        <path d="M1189.976,43.332 C1185.908,33.492 1164.812,37.656 1157.708,41.856 C1155.572,66.816 1188.332,60.804 1189.976,43.332 L1189.976,43.332 Z"></path>
                                        <path d="M1210.508,40.428 C1210.04,37.452 1205.216,36.888 1200.26,38.94 C1199.984,48.852 1211.3,44.664 1210.508,40.428 L1210.508,40.428 Z"></path>
                                        <path d="M336.512,56.544 C340.376,55.044 343.112,52.356 343.832,47.748 C347.336,46.368 351.08,45.168 349.736,38.952 L342.404,38.952 C342.62,46.536 332.732,44.004 329.18,47.748 C328.904,53.436 331.544,56.196 336.512,56.544 L336.512,56.544 Z"></path>
                                        <path d="M866.84,63.936 C870.356,64.344 869.576,63.12 872.708,61.008 C878.012,57.3 877.772,57.144 880.04,52.152 C881.276,49.56 884.024,48.66 882.968,46.32 C878.708,42.66 875.624,52.644 869.732,52.152 C866.744,50.268 867.116,45.036 860.924,46.32 C854.612,54.996 860.324,63.12 866.84,63.936 L866.84,63.936 Z"></path>
                                        <path d="M296.912,72.744 C295.796,83.592 301.484,87.708 305.66,93.276 C319.232,89.952 338.048,96.504 340.952,84.468 C342.056,79.488 338.732,80.94 336.5,77.1 C335.024,74.628 336.872,69.576 332.144,69.828 C326,68.628 329.36,76.884 323.3,75.672 C318.896,72.264 317.084,66.264 314.48,61.008 C315.728,56.856 319.256,54.948 318.896,49.248 C312.596,44.784 308.072,46.524 302.744,49.248 C296.96,52.2 286.52,55.5 286.52,61.008 C288.728,66.252 295.196,67.14 296.912,72.744 L296.912,72.744 Z"></path>
                                        <path d="M847.736,68.292 L847.736,59.52 C843.524,56.1 836.648,59.292 833.024,61.008 C834.356,67.38 840.692,71.988 847.736,68.292 L847.736,68.292 Z"></path>
                                        <path d="M1427.972,74.22 C1420.328,69.828 1413.896,75.504 1408.832,75.672 C1404.332,75.792 1399.148,73.476 1394.168,72.756 C1390.808,72.264 1387.604,73.128 1383.872,72.756 C1376.48,71.928 1368.908,69.036 1361.864,68.304 C1350.332,67.236 1345.268,72.096 1336.904,72.756 C1335.152,74.952 1335.032,78.756 1332.464,80.124 C1326.74,78.984 1323.38,84.252 1319.252,85.956 C1316.276,87.216 1312.496,87.648 1308.98,88.92 C1305.692,90.036 1303.1,92.94 1298.66,91.788 C1292.528,88.8 1288.844,80.796 1281.044,80.112 C1273.736,79.452 1267.46,87.144 1260.488,87.432 C1258.112,87.528 1256.744,86.604 1254.56,85.944 C1252.556,85.284 1248.56,85.092 1247.288,84.456 C1242.848,82.524 1241.684,77.916 1235.528,77.088 C1231.076,76.596 1227.044,79.452 1222.316,80.112 C1215.44,81 1209.464,78.252 1203.236,81.552 C1199.456,86.064 1203.644,91.992 1203.236,97.692 C1197.884,100.188 1192.244,102.432 1185.572,103.596 C1180.988,105.312 1181.408,112.128 1175.324,112.38 C1163.312,104.352 1162.316,85.236 1137.08,90.384 C1134.392,94.512 1134.392,101.34 1128.308,102.108 C1121.684,102.444 1118.888,98.004 1112.096,97.692 C1104.26,97.32 1094.516,105.264 1087.148,97.692 C1089.092,75.24 1072.904,60.168 1053.392,68.292 C1046.18,66.192 1042.844,60.264 1034.264,59.52 C1034.096,61.788 1030.52,60.672 1031.36,63.936 C1026.116,68.736 1032.68,75.948 1031.36,80.124 C1029.116,86.784 1023.584,87.54 1015.22,88.92 C1008.02,100.536 989.888,105.024 996.08,125.604 C993.104,128.484 986.384,127.704 985.772,132.972 C982.412,134.496 982.784,139.728 982.904,144.648 C976.256,147.42 972.776,153.276 965.228,155.004 C959.516,150.96 957.296,143.376 947.648,143.244 C946.268,149.244 942.824,163.872 943.208,169.656 C943.58,175.704 950.312,180.972 946.16,185.832 C937.196,184.104 932.192,182.628 922.676,184.344 C921.8,186.96 924.428,192.996 921.188,193.2 C914.384,199.056 905.096,195.228 897.728,197.652 C897.128,197.772 895.436,200.16 894.704,200.544 C892.82,201.528 890.516,200.796 888.896,202.02 C884.252,205.428 883.64,213 877.1,213.756 C874.256,210.252 875.156,202.98 868.28,203.508 C862.268,206.376 872.18,219.96 862.448,221.088 C856.076,220.62 856.88,213 853.64,209.304 C842.204,203.232 830.492,197.208 815.42,194.652 C811.352,190.032 808.34,185.544 803.696,184.344 C789.908,180.936 779.732,190.092 774.284,193.2 C770.132,195.552 767.912,195.816 765.5,197.652 C762.476,199.848 759.956,201.78 758.132,203.508 C753.128,208.128 754.352,213.756 752.3,219.612 C751.424,222.06 747.884,224.868 746.42,228.408 C744.728,232.44 745.172,237.132 743.468,240.18 C743.192,240.672 740.972,241.164 740.504,241.632 C739.484,242.82 740.06,244.824 739.076,246.072 C731.504,255.468 723.008,256.836 717.032,265.164 C717.5,276.924 718.28,288.384 724.328,294.552 C733.844,296.712 734.288,289.74 741.956,290.16 C744.008,292.992 743.396,298.512 744.956,301.884 C742.784,299.736 735.32,299.736 733.136,301.884 C729.824,308.112 734,313.128 733.136,320.988 C729.428,323.628 724.988,325.572 719.972,326.844 C716.072,330.78 714.068,336.684 708.2,338.58 C707.588,331.308 694.364,317.412 689.108,306.312 C687.608,303.06 689.348,298.824 687.656,296.016 C684.812,291.276 678.02,290.964 674.408,293.064 C670.28,295.848 671.672,303.996 671.48,310.716 C661.376,313.8 652.412,324.228 656.768,337.104 C665.312,338.844 667.484,334.14 672.968,332.76 C675.068,328.02 673.58,319.704 680.288,319.524 C683.132,325.584 675.128,337.272 680.288,345.96 C685.232,346.896 693.968,344.112 696.464,347.436 C693.668,352.476 686.576,353.292 681.764,356.256 C682.052,366 695.972,368.316 693.512,378.3 C690.176,392.304 672.788,380.58 661.22,387.072 C657.56,390.048 660.428,395.328 659.732,400.32 C658.664,408.348 654.932,415.044 658.244,420.828 C663.284,426.516 670.46,423.972 671.48,431.148 C672.644,439.02 663.5,440.892 656.768,448.8 C653.684,452.448 653.324,463.56 652.412,464.94 C649.448,469.38 642.02,471.552 637.712,475.212 C632.66,479.496 629.372,485.388 625.988,491.412 C623.744,495.276 620.576,500.664 620.06,504.588 C619.232,510.804 622.16,520.584 621.524,528.12 C621.272,530.712 618.944,533.28 618.668,535.44 C615.98,551.304 625.412,553.968 631.832,561.936 C634.208,564.888 634.52,566.568 636.236,569.244 C639.644,574.452 641.936,576.216 646.52,579.504 C650.888,582.612 652.676,584.616 656.768,586.92 C666.752,592.308 668.696,586.944 680.288,586.92 C684.404,586.848 688.808,588.792 692.06,588.312 C695.24,587.892 698.624,585.096 702.332,583.908 C716.96,579.168 719.48,581.88 728.768,591.264 C735.416,591.012 741.872,590.952 743.468,595.68 C747.188,602.712 740.108,610.452 741.956,619.164 C743.588,626.484 751.712,630.468 755.204,636.804 C757.088,640.212 759.896,646.26 761.108,651.444 C762.032,655.86 763.316,664.632 762.524,669.12 C761.984,672.492 757.904,674.028 756.692,676.416 C755.876,678.06 755.54,681.252 755.204,682.344 C751.46,694.44 755.66,702.912 759.62,711.72 C761.492,716.004 764.408,720.288 765.5,724.956 C766.832,730.884 766.112,736.116 766.94,741.084 C768.38,749.28 776.024,755.304 778.7,763.14 C781.292,770.76 778.58,779.508 786.068,785.136 C796.664,783.624 808.328,783.96 816.848,782.22 C818.636,781.848 826.952,777.972 827.18,777.816 C831.404,773.784 835.256,770.76 840.416,764.604 C847.172,756.576 853.424,749.04 855.068,738.168 C860.336,733.344 864.8,734.208 866.852,727.884 C868.7,722.112 864.824,714.072 866.852,708.792 C870.296,699.72 887.432,696.804 891.788,689.712 C896.06,682.848 895.364,665.676 893.264,660.336 C891.524,656.004 889.316,651.384 888.896,647.064 C888.092,639.744 890.432,635.052 891.788,632.364 C895.088,625.944 895.868,624.228 900.584,619.176 C904.052,615.504 908.168,610.704 910.844,608.904 C919.376,603.24 929.456,594.552 932.948,586.932 C933.176,586.344 935.54,586.008 935.828,585.42 C940.388,577.332 944.96,567.324 946.148,557.484 C937.04,547.848 914.588,567.552 909.392,553.08 C912.032,548.46 919.328,548.136 925.568,545.76 C932.192,543.192 940.988,539.904 946.16,536.94 C947.6,536.088 947.984,534.684 949.04,534.024 C954.764,530.436 960.332,529.824 965.228,526.656 C966.008,526.164 967.28,524.4 968.156,523.716 C972.632,520.08 975.248,517.308 978.452,511.968 C981.152,507.468 983.456,503.844 982.892,500.22 C981.452,491.232 971.036,495.216 969.644,484.104 C984.608,486.576 995.9,486.852 1012.256,485.532 C1019.912,492.108 1028.168,498.048 1032.788,507.564 C1038.224,508.056 1042.892,509.256 1046.036,511.968 C1046.576,525.072 1052.912,534.036 1056.344,541.368 C1057.28,543.492 1056.968,545.064 1057.76,547.26 C1058.504,549.084 1059.992,550.128 1060.7,551.628 C1064.012,558.48 1066.46,565.02 1070.984,570.708 C1076.468,571.788 1077.308,568.2 1082.744,569.268 C1082.576,576.288 1084.556,581.16 1090.112,582.504 C1092.248,581.148 1097.3,575.136 1093.004,572.244 C1093.796,565.524 1085.168,568.296 1085.66,561.972 C1084.184,556.764 1087.124,547.344 1087.124,545.784 C1087.124,545.292 1085.372,542.556 1085.66,539.904 C1086.32,534.588 1098.8,523.8 1103.3,519.348 C1113.968,508.668 1119.14,501.432 1134.188,501.732 C1142.24,509.736 1149.44,518.736 1153.232,531.048 C1157.684,533.136 1158.524,530.388 1164.992,531.048 C1169.828,538.476 1173.08,547.404 1175.288,557.508 C1180.964,556.884 1179.344,548.76 1187.036,550.14 C1201.004,555 1196.948,566.424 1209.104,566.316 C1213.34,566.268 1217.84,560.436 1219.34,558.996 C1223.276,555.348 1226.192,552.852 1226.744,548.664 C1227.248,544.224 1223.348,533.652 1222.292,532.56 C1221.656,531.888 1221.476,530.208 1220.804,529.596 C1218.164,527.004 1214.168,526.284 1212.032,523.74 C1204.448,514.86 1209.068,503.136 1220.804,504.624 C1225.1,507.828 1216.028,517.932 1225.256,517.872 C1231.7,517.464 1228.076,507.012 1231.088,503.196 C1242.896,498.12 1253.516,495.456 1260.464,488.496 C1267.184,481.74 1267.112,479.208 1270.748,469.404 C1274.192,460.296 1275.692,457.548 1273.64,448.824 C1273.052,446.136 1272.872,441.528 1272.212,439.944 C1270.964,436.692 1266.56,433.596 1264.844,431.184 C1263.476,429.228 1262.768,426.54 1261.952,425.316 C1259.648,422.028 1259.132,423.564 1258.988,419.472 C1258.856,413.544 1269.212,408.768 1264.844,404.76 C1258.76,400.512 1250.288,407.676 1247.252,400.356 C1247.252,392.988 1251.92,390.324 1256.048,387.108 C1260.788,392.472 1264.28,393.336 1273.64,391.56 C1276.94,398.556 1283.084,403.608 1286.948,410.64 C1288.952,414.396 1288.052,419.976 1292.828,422.4 C1297.148,421.86 1300.244,420.048 1303.04,417.972 C1304.936,401.94 1293.932,398.724 1289.804,388.596 C1294.424,382.872 1294.808,373.032 1298.612,366.552 C1302.176,364.176 1308.104,364.236 1311.86,362.136 C1315.916,356.808 1319.54,348.552 1322.168,340.14 C1324.424,332.64 1328.096,320.088 1328.012,313.68 C1327.964,308.916 1322.492,304.644 1326.572,300.444 C1328.288,308.028 1330.52,315.108 1336.844,318.06 C1348.088,302.592 1326.836,291.48 1325.036,275.508 C1309.964,271.296 1291.532,275.76 1288.304,263.724 C1288.052,262.5 1290.656,251.172 1291.268,249.024 C1291.436,248.484 1294.04,246.888 1294.196,246.12 C1295.504,241.212 1294.904,231.708 1297.148,228.444 C1301.552,222.072 1309.256,223.56 1316.216,221.124 C1321.532,219.3 1323.968,214.872 1328,215.268 C1334.372,215.556 1337.876,220.416 1344.188,216.756 C1349.66,210.576 1340.9,190.116 1351.532,185.868 C1358.876,184.38 1358.696,190.464 1364.72,190.296 C1368.524,189.576 1369.676,182.208 1373.528,185.868 C1370.276,195.108 1372.484,205.428 1370.6,215.268 C1369.736,219.84 1366.724,224.028 1366.208,228.456 C1363.856,247.62 1371.68,255.204 1377.932,265.212 C1382.384,272.34 1386.02,281.472 1392.656,284.304 C1399.976,278.604 1396.844,264.924 1398.536,256.404 C1398.98,254.148 1401.428,252.66 1401.428,250.524 C1401.524,248.268 1399.004,244.26 1398.536,240.24 C1397.948,235.836 1399.232,230.58 1398.536,228.468 C1396.88,223.716 1390.256,220.476 1388.228,215.28 C1385.684,208.788 1388.936,204.216 1385.312,199.104 C1391.912,192.912 1398.872,187.224 1410.32,185.868 C1412.54,176.376 1415.06,167.148 1419.068,159.456 C1421.732,155.724 1429.076,156.768 1429.4,150.6 C1427.588,139.488 1415.792,138.132 1413.224,128.616 C1412.72,126.756 1414.7,122.4 1414.652,119.82 C1414.652,115.764 1412.72,114.108 1413.224,109.5 C1418.288,102.984 1426.88,108.744 1435.232,105.156 C1438.748,98.988 1432.916,96.516 1432.268,90.456 C1433.096,82.752 1430.948,78.048 1427.972,74.22 L1427.972,74.22 Z M837.44,226.956 C842.288,228.48 849.452,227.7 853.616,229.92 C853.712,237.828 844.376,236.388 837.44,237.264 C835.34,235.308 835.34,228.984 837.44,226.956 L837.44,226.956 Z M838.928,370.896 C846.428,369.744 844.88,377.676 850.604,378.288 C857.36,378.588 857.36,372.264 859.46,367.98 L863.9,367.98 C863.084,383.988 880.46,381.792 884.456,392.952 C879.344,405.324 868.256,396.024 859.46,394.44 C849.452,392.628 841.892,397.776 830.096,398.844 C821.6,390.864 829.484,374.1 838.928,370.896 L838.928,370.896 Z M768.38,304.812 C767.888,294.924 771.452,290.772 774.26,281.352 C774.488,274.812 768.284,272.472 768.38,266.652 C768.512,258.24 775.232,254.76 781.616,250.464 C782.852,244.356 782.744,236.88 787.508,234.288 C789.884,233.916 790.052,235.668 791.888,235.764 C793.556,246.768 784.352,246.84 781.616,253.38 C781.256,267.528 784.988,277.464 794.852,281.34 C794.096,294.624 782.144,299.904 787.52,315.084 C783.188,318.264 779.276,314.568 774.272,315.084 C767.024,315.912 759.332,323.808 753.704,316.596 C755.396,309.432 764.912,310.14 768.38,304.812 L768.38,304.812 Z M833.024,454.644 C826.448,454.344 821.336,451.956 815.396,450.3 C809.24,448.476 801.872,445.32 799.232,445.836 C792.704,447.12 792.68,453.18 787.496,457.62 C781.844,456.948 776.78,455.496 772.784,451.704 C768.092,447.18 757.04,447 749.276,441.456 C750.152,433.26 748.592,427.416 744.908,423.804 C732.608,424.488 722.888,423.54 712.556,425.28 C701.684,427.14 691.388,435.804 680.24,431.148 C685.304,424.884 692.888,426.876 697.856,420.828 C700.136,418.188 699.188,412.524 700.82,409.152 C702.824,405.192 707.072,403.452 709.64,400.32 C712.76,396.468 713.18,392.136 716.984,390.048 C722.516,387.24 733.388,389.784 736.1,384.156 C747.032,389.88 752.828,400.716 765.464,404.736 C768.104,407.484 769.412,411.528 772.784,413.508 C788.996,400.488 761.384,394.212 758.084,382.728 C758.324,380.976 760.772,381.456 762.476,381.192 C767,388.44 777.26,389.964 783.056,395.892 C783.032,399.348 785.576,400.26 784.52,404.736 C789.656,407.04 793.112,425.004 800.696,425.292 C813.104,425.736 806.492,414.42 808.016,406.152 C811.88,406.008 813.176,403.956 815.372,406.152 C816.74,407.628 815.912,411.9 816.812,413.508 C817.94,415.38 818.672,417.216 819.824,419.436 C822.068,423.852 823.952,424.284 827.144,428.244 C842.3,425.904 850.1,433.26 862.4,429.684 C864.86,438.252 860.84,447.168 856.508,453.168 C847.844,451.368 841.52,455.088 833.024,454.644 L833.024,454.644 Z M902.072,539.868 C898.532,539.82 895.892,538.992 893.264,536.928 C888.332,533.112 888.332,527.88 884.468,522.228 C882.836,519.972 879.476,518.148 878.612,516.348 C877.1,513.3 877.232,508.2 875.624,504.588 C873.836,500.58 870.464,498.096 868.28,494.316 C867.668,493.236 868.868,491.064 868.28,489.876 C867.296,487.872 860.72,483.864 862.448,476.712 L866.864,476.712 C869.864,480.216 871.064,484.152 874.184,488.472 C876.644,491.892 881.18,494.724 882.992,498.732 C883.988,500.952 883.184,503.868 884.468,506.052 C890.84,516.744 904.712,525.744 902.072,539.868 L902.072,539.868 Z M910.844,373.908 C916.268,369 919.844,362.28 931.484,363.576 C935.504,370.452 926.432,370.692 927.02,378.3 C926.864,384 933.308,386.844 935.828,391.536 C937.52,394.572 937.52,398.808 938.792,401.784 C941.48,408.252 948.248,414.18 944.636,420.852 C937.676,425.256 929.768,419.628 925.556,416.508 C929.996,392.952 912.62,391.248 910.844,373.908 L910.844,373.908 Z M950.576,489.864 C943.16,489.84 934.88,474.216 929.996,469.38 C928.292,467.184 928.292,465.636 929.996,463.5 L934.34,463.5 C939.284,473.736 951.068,477.132 962.312,481.056 C958.364,486.372 955.352,489.96 950.576,489.864 L950.576,489.864 Z"></path>
                                        <path d="M1201.748,71.256 C1202.612,65.988 1197.368,66.768 1192.94,66.816 C1190.924,73.452 1198.856,73.968 1201.748,71.256 L1201.748,71.256 Z"></path>
                                        <path d="M749.288,124.164 C758.924,123.504 754.808,109.128 762.5,106.512 C764.432,110.46 765.68,115.104 772.796,113.88 C778.316,103.992 763.652,102.78 763.988,93.276 C771.968,90.984 780.368,89.148 780.176,78.624 C776.192,73.26 766.136,74.004 756.668,74.208 C752.66,77.04 749.948,81.216 744.92,83.016 C741.38,84.948 734.744,83.592 731.672,85.944 C726.932,97.44 736.904,104.52 741.92,110.892 C742.148,117.624 745.508,121.14 749.288,124.164 L749.288,124.164 Z"></path>
                                        <path d="M526.016,633.852 C521.96,630.84 516.872,626.064 514.28,625.02 C507.62,622.476 499.004,624.192 492.224,622.14 C489.164,621.168 486.62,617.64 483.44,616.284 C479.54,614.544 475.784,615.696 473.156,614.796 C463.868,611.472 464.684,605.76 461.396,598.608 C459.812,595.2 457.616,590.448 455.516,588.336 C454.976,587.736 449.204,583.644 446.684,582.492 C441.632,580.164 438.092,581.676 431.984,581.016 C425.708,580.344 418.532,570.516 414.428,567.78 C410.792,565.38 407.708,559.788 405.62,558.972 C398.492,556.224 388.04,559.968 382.112,558.972 C375.512,557.892 373.412,553.812 368.864,553.092 C357.32,551.16 349.484,553.548 345.356,556.008 C341.144,558.6 339.296,563.916 332.168,566.292 C329.696,567.108 326.492,565.38 324.812,567.78 L323.648,568.884 C322.94,568.74 322.208,568.668 321.464,568.86 L320.396,567.78 C309.848,566.244 304.532,563.328 302.756,554.568 C301.652,548.952 307.532,542.628 304.244,536.928 C301.244,530.592 287.648,534.828 283.664,529.56 C280.148,521.748 290.336,516.012 288.116,504.588 C272.876,498.48 272.876,512.184 266.024,516.348 C249.692,526.308 237.164,510.42 239.588,491.412 C240.008,487.836 244.748,470.268 245.456,469.38 C247.916,466.092 260.684,460.692 263.108,460.524 C267.068,460.356 271.676,464.064 276.296,463.5 C280.208,462.036 283.052,458.376 288.116,457.62 C296,456.396 305.228,460.284 310.1,463.5 C311.696,472.14 311.696,482.472 321.872,482.568 C330.02,472.872 318.152,463.572 321.872,451.704 C322.64,449.208 325.4,447.792 327.704,445.836 C332.552,441.756 336.32,438.924 340.952,435.588 C343.82,433.488 347.252,432.576 348.248,431.172 C351.56,426.504 350.396,419.772 352.664,414.984 C354.08,412.092 357.656,409.308 360.008,406.164 C366.08,398.244 368.864,394.908 379.052,392.964 C381.788,384.564 385.532,376.044 395.24,375.36 C400.148,374.988 402.656,377.82 408.512,378.3 C415.232,373.74 426.068,373.332 428.996,365.088 C421.508,363.708 418.064,363.6 414.392,357.72 C413.192,355.872 415.172,350.892 414.392,347.436 C413.348,343.116 406.412,342.708 411.416,340.116 C418.916,341.772 422.816,343.332 428.996,341.556 C434.156,340.164 441.44,335.952 445.244,338.592 C444.104,344.892 438.38,346.5 439.328,354.792 C446.228,358.152 453.512,361.2 464.288,360.696 C469.28,349.8 458.48,344.736 455.492,337.104 C459.68,327.756 458.828,319.992 455.492,315.108 C454.448,313.656 453.392,310.224 452.564,309.228 C449.06,305.256 443.456,304.272 440.84,298.992 C438.104,293.556 438.944,287.424 437.876,282.804 C436.796,277.98 436.064,273.792 433.448,268.08 C423.044,266.46 425.708,278.016 414.404,275.472 C410.228,270.984 412.208,266.076 412.868,259.284 C405.908,250.176 396.908,236.604 380.6,241.632 C376.616,246.9 379.448,253.056 377.672,259.284 C376.364,263.94 372.248,267.42 371.792,272.532 C371.3,277.584 374.888,283.824 373.232,288.672 C371.156,294.924 360.908,296.196 357.08,303.324 C352.676,311.616 359.972,316.392 351.224,322.416 C343.1,320.844 349.232,304.86 345.332,298.98 C343.88,296.256 340.472,297.324 338,296.004 C330.836,292.26 325.004,283.836 318.896,279.84 C317.912,279.168 316.964,278.964 315.956,278.328 C310.244,275.004 309.128,272.688 307.16,266.652 C302.024,250.956 313.964,243.708 323.312,235.776 C330.584,229.632 338.06,222.432 348.272,222.588 C352.196,223.98 351.92,229.704 355.64,231.396 C362.696,229.248 367.268,228.588 373.244,228.396 C374.504,218.892 364.484,214.272 367.412,207.888 C376.376,203.568 382.304,200.58 384.992,191.688 C387.092,185.028 389.924,178.368 393.824,174.084 C403.88,172.32 406.52,177.984 408.548,184.32 C408.452,190.68 400.76,189.324 402.62,197.628 C409.112,199.524 413.24,190.68 415.868,197.628 C414.872,207.876 406.676,210.972 401.192,216.696 C395.408,216.816 388.292,215.544 389.444,222.576 C388.808,230.484 401.72,224.928 405.608,228.384 C408.764,231.696 409.004,239.34 412.88,243.108 C415.628,245.748 422.936,249.132 426.128,248.964 C428.864,248.868 436.628,244.248 437.876,243.108 C444.488,237.156 438.644,227.964 436.376,219.588 C441.896,219.444 440.864,225.912 448.16,224.016 C454.58,220.032 458.288,217.836 458.444,212.244 C458.516,208.464 453.824,205.296 451.1,201.996 C447.728,197.988 444.164,195.456 443.756,191.688 C444.332,185.904 447.008,182.976 446.648,178.476 C445.88,167.268 432.344,161.556 427.556,150.528 C425.552,145.776 424.4,141.264 424.688,134.436 C420.236,127.896 410.444,130.308 402.584,128.544 C399.608,127.836 397.352,126.216 395.24,125.58 C376.904,119.7 365.852,140.364 367.388,159.384 C370.052,163.632 375.152,165.636 374.708,172.596 C374.42,176.868 370.424,183.192 364.46,182.904 C362.456,176.868 355.352,171.444 354.116,163.836 C353.84,161.628 355.448,157.488 355.628,154.98 C356.012,148.68 354.656,141.84 357.08,135.864 C365.036,130.596 380.528,132.828 377.672,116.76 C371.792,111.612 363.344,112.104 357.08,116.76 C350.312,106.032 342.764,111.336 336.5,116.76 C329.348,123.024 328.196,124.212 330.668,131.46 C331.112,132.828 331.112,135.66 332.144,137.34 C334.04,140.76 339.14,141.516 339.464,146.172 C339.68,149.064 338.6,150.324 337.988,152.028 C335.168,160.356 331.04,160.356 323.288,163.824 C320.492,168.876 322.472,174.54 315.944,176.988 C308.792,179.676 298.004,174.84 298.34,166.704 C309.26,166.908 317.684,161.016 318.884,153.492 C319.34,150.804 316.856,149.976 315.944,147.66 C313.196,140.268 315.476,130.14 317.408,125.568 C319.784,120.18 326.756,117.372 326.204,109.404 C316.952,103.668 311.624,116.052 302.732,115.284 C292.676,114.456 289.364,105.636 288.092,91.752 C278.648,84.264 268.34,80.352 261.548,87.408 C254.324,94.932 237.812,107.328 243.992,118.236 C248.516,122.58 258.44,116.748 261.548,119.724 C259.232,125.28 262.592,131.328 261.548,135.852 C261.26,137.508 258.068,139.896 257.204,141.756 C255.812,144.6 257.528,150.072 252.776,149.1 C245.888,148.656 244.112,143.04 241.028,138.816 C230.756,137.328 224.156,132.204 219.008,125.568 C204.632,125.448 191.924,126.936 179.372,128.532 C176.252,125.688 173.768,122.364 171.98,118.248 C166.712,117.708 165.44,112.02 161.696,109.416 C158.684,107.34 152.828,106.344 148.484,103.584 C147.872,103.152 147.68,101.172 146.996,100.608 C145.796,99.684 143.744,99.996 142.604,99.144 C141.884,98.7 141.884,96.768 141.164,96.216 C139.796,95.208 137.912,95.832 136.772,94.752 C133.76,92.028 133.052,88.236 130.904,85.944 C127.544,82.428 125.564,81.324 120.62,80.112 C112.052,77.892 104.852,81.396 100.052,83.016 C97.256,83.964 93.452,83.472 91.22,84.456 C85.592,86.976 81.392,92.412 75.044,94.752 C69.908,96.648 63.98,93.732 60.404,99.144 C58.868,109.968 64.916,121.008 60.404,129.972 C55.532,130.572 53.18,124.26 47.132,124.14 C45.86,124.092 41.984,126.144 39.788,127.068 C30.728,130.848 31.232,136.572 32.492,146.184 C35.132,151.908 47.288,147.996 48.608,154.98 C46.016,165.036 34.676,159.408 28.076,162.348 C26.996,162.804 24.56,166.116 22.196,168.18 C19.556,170.484 15.824,172.464 14.828,174.072 C12.284,178.392 9.992,188.076 10.46,191.676 C11.288,198.348 20.72,200.076 19.244,210.804 C22.988,213.492 29.324,213.492 29.516,219.576 C24.872,233.016 7.676,233.964 0.176,244.56 C16.472,244.728 23.216,235.368 35.408,231.372 C41.264,229.884 39.824,235.692 45.728,234.264 C54.392,229.764 50.192,214.62 58.892,212.22 C66.992,218.472 81.764,213.636 88.268,209.256 C91.232,211.116 94.172,213.996 98.576,216.672 C101.996,218.652 107.372,219.804 110.336,222.552 C111.992,224.088 114.956,231.504 116.228,232.848 C121.94,238.728 120.128,245.388 122.012,254.82 C122.432,256.644 122.804,258.108 123.488,260.7 C124.184,263.064 124.568,266.88 124.976,268.02 C126.548,271.788 131.084,274.764 132.32,278.268 C133.064,280.392 131.732,284.46 132.32,287.136 C132.86,289.308 134.96,291.936 135.284,292.98 C137.852,301.704 135.188,306.504 133.796,313.572 C136.124,319.908 141.692,323.232 142.604,329.748 C142.976,332.1 141.44,334.44 141.164,337.02 C140.18,345.804 139.82,346.752 138.248,351.768 C135.74,359.676 132.224,364.908 130.904,370.836 C128.888,379.596 129.032,395.088 130.904,401.7 C132.344,407.088 134.036,415.704 135.284,419.376 C138.272,428.028 145.268,428.124 149.984,435.516 C152.132,438.9 152.084,444.768 154.376,450.24 C157.244,456.78 164.408,460.884 161.696,470.772 C168.188,475.536 169.232,485.76 177.908,488.424 C179.288,481.596 172.196,475.596 176.348,470.772 C181.88,472.296 181.712,478.14 183.74,481.008 C184.628,482.28 187.268,482.76 188.156,484.032 C189.152,485.292 188.636,486.984 189.62,488.424 C192.488,492.552 197.36,494.844 198.428,500.148 C198.992,502.896 196.94,508.656 198.428,511.896 C202.148,520.092 226.964,532.62 236.612,533.964 C241.028,534.552 247.184,532.644 251.288,533.964 C255.164,535.116 258.32,541.296 264.584,544.224 C270.188,546.9 278.588,546.264 282.164,548.568 C288.884,553.02 289.976,561.324 293.936,564.768 C296.192,566.82 299.66,567.588 302.732,569.196 C310.892,573.384 314.768,577.056 321.86,569.196 L323.288,569.196 C326.468,575.34 331.712,579.876 330.656,589.752 C330.044,594.816 326.372,597.18 323.288,601.524 C321.044,604.74 316.04,609 314.48,613.296 C312.224,619.812 315.344,621.936 314.48,627.996 C313.856,632.208 310.94,635.34 311.54,638.244 C312.32,642.252 319.796,648.864 323.3,654.432 C327.26,660.756 331.16,669.372 333.584,673.548 C335.78,677.328 337.868,683.46 339.464,685.272 C347.936,695.004 361.532,695.28 365.9,707.292 C371.78,723.576 365.288,754.896 365.9,770.508 C366.164,775.944 367.736,781.464 367.388,786.648 C366.848,793.776 363.308,800.148 362.936,807.252 C362.864,809.916 364.1,813.48 364.46,817.524 C364.82,822.216 363.8,827.76 364.46,832.2 C364.964,836.184 367.1,838.548 367.388,842.508 C368.156,856.068 364.748,870.48 367.388,882.156 C368.492,887.196 372.524,892.332 374.708,896.856 C377.3,902.004 379.328,907.008 382.076,911.52 C392.156,914.988 402.404,929.436 415.832,920.328 C416.984,915.252 413.288,912.468 411.416,910.044 C408.728,906.516 406.04,905.424 404.06,901.236 C402.776,898.488 400.808,894.576 401.168,889.512 C401.54,882.648 408.98,877.716 408.512,870.384 C408.08,864.84 402.128,862.284 402.584,857.172 C407.396,849.708 412.004,842.112 411.416,829.248 C418.544,828.54 417.548,819.72 421.712,816.036 C427.712,813.78 435.164,812.904 439.316,808.716 C441.068,804.612 440.972,798.552 440.828,792.528 C444.32,790.692 449.696,790.644 452.552,788.124 C457.952,783.864 457.952,777.18 461.36,771.996 C463.172,769.188 466.964,767.22 468.728,764.628 C470.78,761.616 473.54,757.26 474.608,754.368 C477.452,746.388 473.72,742.68 477.5,736.752 C478.88,734.52 482.024,734.376 483.404,733.788 C483.86,733.572 484.328,731.196 484.868,730.824 C486.128,730.044 488.18,729.96 489.272,729.384 C490.988,728.448 491.936,727.176 493.664,726.42 C496.304,725.388 501.596,726.3 505.4,723.504 C513.26,717.78 517.508,701.424 518.648,688.26 C518.9,685.392 517.592,679.692 518.648,676.452 C519.572,673.704 524.624,668.46 527.456,664.728 C531.02,659.892 535.124,657.3 536.228,651.48 C538.64,639.744 532.988,639.084 526.016,633.852 L526.016,633.852 Z"></path>
                                        <path d="M907.952,178.5 C906.284,169.116 899.816,166.824 899.156,157.968 C898.904,154.788 901.172,151.62 902.072,147.696 C903.068,143.244 902.24,139.032 903.608,135.9 C903.992,134.844 906.896,133.176 907.952,131.496 C909.392,129.132 909.68,125.736 910.844,124.176 C916.268,117.168 926.924,113.556 927.02,105.108 C925.772,101.952 923.444,99.876 918.224,100.644 C915.872,104.34 913.844,106.392 909.404,109.452 C901.796,114.828 898.268,114.6 893.264,122.7 C888.332,130.68 888.896,136.824 887.384,149.16 C886.424,156.996 883.808,165.972 884.468,168.228 C886.556,175.248 898.532,181.632 907.952,178.5 L907.952,178.5 Z"></path>
                                        <path d="M642.128,229.92 C630.968,227.172 616.196,229.848 606.8,229.92 C605.12,238.344 607.436,249.252 615.632,251.964 C629.036,256.452 650.756,242.34 642.128,229.92 L642.128,229.92 Z"></path>
                                        <path d="M737.528,401.76 C735.332,404.004 734.96,411.816 740.468,410.592 C742.748,408.348 743.108,400.488 737.528,401.76 L737.528,401.76 Z"></path>
                                        <path d="M761.084,423.804 C766.088,424.464 769.424,423.336 768.38,417.936 C764.108,418.08 760.136,418.452 761.084,423.804 L761.084,423.804 Z"></path>
                                        <path d="M1273.676,482.568 C1271.588,484.692 1271.588,492.216 1273.676,494.316 C1279.928,494.124 1280.18,487.116 1278.128,482.568 L1273.676,482.568 L1273.676,482.568 Z"></path>
                                        <path d="M345.332,511.944 C343.88,504.084 335.78,502.884 327.704,501.696 L327.704,502.752 C325.724,501.948 323.792,501.036 321.872,500.436 L321.872,498.732 C322.088,496.308 312.8,496.308 313.064,498.732 C316.112,499.548 317.216,502.392 321.872,501.696 L321.872,500.496 L327.716,502.8 L327.716,504.576 C330.56,509.592 337.34,516.912 345.332,511.944 L345.332,511.944 Z"></path>
                                        <path d="M354.128,520.752 C359.912,524.976 369.776,523.608 373.244,517.848 C371.528,510.696 351.788,508.056 354.128,520.752 L354.128,520.752 Z"></path>
                                        <path d="M1284.008,517.836 C1268.24,517.284 1276.532,542.04 1281.044,547.236 C1285.28,547.356 1290.68,546.408 1292.864,548.616 C1287.152,553.632 1292.084,561.096 1292.864,566.28 C1293.428,570.456 1292.324,574.236 1292.864,575.1 C1294.508,578.316 1302.26,583.092 1304.564,582.468 C1313.54,580.188 1311.008,565.236 1303.076,560.436 C1303.328,556.812 1303.328,553.296 1301.624,551.604 C1296.896,546.516 1289.672,543.432 1286.984,535.428 C1285.028,529.908 1289.192,522.768 1284.008,517.836 L1284.008,517.836 Z"></path>
                                        <path d="M1248.728,654.432 C1249.268,648.252 1242.44,644.7 1238.48,644.184 C1234.304,643.548 1230.62,646.416 1226.756,645.672 C1224.62,645.18 1220.972,643.38 1219.352,642.672 C1216.688,641.604 1212.692,641.304 1212.044,638.256 C1212.092,633.468 1214.504,630.96 1213.472,625.02 C1208.3,620.184 1205.492,618.96 1203.224,613.296 C1200.212,606.024 1201.628,590.64 1198.832,585.42 C1196.288,580.668 1188.692,578.928 1185.572,575.112 C1183.928,573.12 1183.556,569.184 1182.668,567.78 C1180.868,564.948 1179.932,565.056 1178.228,561.948 C1177.892,560.736 1177.004,560.172 1175.324,560.46 C1168.544,574.812 1189.496,579.888 1182.668,594.264 C1175.024,592.56 1173.548,584.7 1163.54,585.432 C1160.408,593.076 1169.876,597.468 1173.824,603.024 C1174.292,603.696 1173.452,605.244 1173.824,605.94 C1173.992,606.432 1176.392,606.912 1176.752,607.38 C1177.22,608.088 1176.416,609.66 1176.752,610.38 C1177.004,610.884 1179.368,611.256 1179.68,611.868 C1181.9,615.696 1183.832,623.316 1185.56,625.032 C1190.492,630.204 1196.912,636.672 1201.748,639.756 C1203.632,641.016 1206.98,641.196 1209.116,642.684 C1213.016,645.564 1214.276,650.052 1217.912,651.468 C1219.568,652.188 1224.296,650.736 1228.172,651.468 C1230.86,652.056 1233.284,654.204 1235.492,654.444 C1240.28,654.972 1243.988,654.024 1248.728,654.432 L1248.728,654.432 Z"></path>
                                        <path d="M1260.488,579.516 C1250.432,589.548 1240.856,600.048 1226.756,605.928 C1221.776,623.94 1241.72,635.388 1259.012,630.948 C1262.192,623.304 1269.272,614.784 1270.772,607.368 C1271.516,603.672 1269.02,599.868 1269.284,595.692 C1269.596,590.952 1273.616,588.804 1272.236,583.92 C1268.84,581.94 1267.364,578.028 1260.488,579.516 L1260.488,579.516 Z"></path>
                                        <path d="M1278.128,614.784 C1272.692,618.912 1272.404,630.768 1276.664,636.816 L1291.34,636.816 C1292.876,632.196 1290.428,624.504 1291.34,616.272 C1288.952,613.764 1282.7,615.084 1278.128,614.784 L1278.128,614.784 Z"></path>
                                        <path d="M1416.212,727.884 C1414.844,725.412 1414.712,721.08 1413.296,719.088 C1410.068,714.54 1405.496,712.608 1402.988,707.292 C1398.464,697.92 1398.932,687.3 1394.192,682.368 C1390.832,678.852 1390.976,672.564 1385.384,672.072 C1376.912,676.824 1382.3,695.484 1373.624,699.972 C1364.492,698.316 1357.88,694.188 1354.556,686.76 C1355.84,683.172 1357.952,680.388 1357.436,675.036 C1349.084,670.812 1340.348,667.74 1332.488,670.608 C1324.832,673.356 1324.412,683.904 1316.3,685.272 C1313.072,684.12 1310.636,682.14 1306.064,682.368 C1298.672,687.252 1294.928,695.724 1285.46,698.508 C1280.768,721.188 1251.368,710.568 1241.408,726.408 C1237.772,732.168 1236.896,742.92 1237.004,749.928 C1237.22,759.84 1242.08,769.752 1241.408,780.804 C1241.084,785.856 1236.8,790.848 1238.492,796.92 C1240.592,797.796 1242.08,799.2 1242.884,801.36 C1250.324,803.892 1256.744,796.8 1264.88,795.444 C1268.192,794.916 1272.812,796.596 1276.664,795.444 C1281.104,794.064 1284.464,789.648 1288.376,788.124 C1292.048,786.744 1297.52,785.904 1301.624,785.16 C1319.66,781.908 1328.432,785.16 1332.464,799.86 C1339.112,803.016 1343.96,806.772 1347.116,813.132 C1349.576,817.908 1349.06,822.684 1351.604,827.784 C1357.256,834.324 1370.42,833.424 1379.48,836.568 C1383.056,832.38 1390.568,831.984 1395.656,829.248 C1400.276,824.688 1399.832,818.748 1402.976,813.132 C1403.324,812.544 1405.46,812.256 1405.94,811.644 C1406.768,810.492 1406.744,808.26 1407.356,807.252 C1409,804.768 1410.392,801.876 1411.796,799.86 C1415.096,795.216 1419.788,792.516 1422.044,788.124 C1422.86,786.624 1423.208,783.276 1423.532,782.244 C1425.476,776.508 1428.8,769.068 1429.46,763.164 C1431.26,746.448 1424.936,740.856 1419.128,730.824 C1418.396,729.48 1416.788,728.868 1416.212,727.884 L1416.212,727.884 Z"></path>
                                        <path d="M932.948,673.548 C928.46,676.704 927.596,681.528 922.676,685.272 C920.06,687.3 915.872,686.76 913.844,688.248 C906.836,693.264 909.656,699.24 907.964,708.804 C907.256,712.728 903.98,715.836 903.62,720.528 C902.9,727.512 903.464,731.4 907.964,736.752 C923.972,740.004 927.608,722.244 931.496,711.756 C935.792,699.984 943.256,684.132 937.376,673.56 C935.828,673.548 934.34,673.548 932.948,673.548 L932.948,673.548 Z"></path>
                                    </g>
                                </g>
                            </g>
                            <g id="backgroundImage-Clipped">
                                <mask id="mask-4" fill="white">
                                    <use xlink:href="#path-3"></use>
                                </mask>
                                <g id="SVGID_1_"></g>
                            </g>
                        </g>
                    </g>
                </g>
                <g id="Group-2-Copy-2" transform="translate(160.000000, 291.000000)">
                    <g id="Group-3" transform="translate(474.803279, 0.000000)">
                        <g id="separate">
                            <g id="Group">
                                <path d="M178.097379,311.011661 L67.0171576,495.360679 L123.116541,495.360679 C136.40286,495.360679 152.887073,486.055115 159.741753,474.629115 L207.000321,396.058352 C212.578711,384.553552 212.385116,367.783479 206.010838,357.159806 L178.097379,311.011661 L178.097379,311.011661 Z" id="Shape" fill="url(#radialGradient-5)"></path>
                                <path d="M127.325429,227.039515 C134.172938,238.41537 134.172938,257.062315 127.325429,268.488315 L2.55735944,476.907152 C-2.26099255,487.201297 2.74378377,495.360679 15.1266616,495.360679 L67.0099874,495.360679 L178.090209,311.011661 L127.325429,227.039515 L127.325429,227.039515 Z" id="Shape" fill="url(#radialGradient-6)"></path>
                                <path d="M15.1266616,0.124169697 C1.80449194,0.124169697 -3.49426121,9.47271515 3.3604181,20.8557333 L206.010838,357.174133 C212.385116,367.790642 212.578711,384.560715 207.000321,396.072679 L256.259366,314.163661 L67.0386681,0.124169697 L15.1266616,0.124169697 L15.1266616,0.124169697 Z" id="Shape" fill="url(#radialGradient-7)"></path>
                                <path d="M283.692423,227.039515 L159.741753,20.8485697 C152.887073,9.46555152 136.39569,0.117006061 123.116541,0.117006061 L67.0458382,0.117006061 L256.266536,314.156497 L283.699594,268.488315 C290.547103,257.069479 290.547103,238.41537 283.692423,227.039515 L283.692423,227.039515 Z" id="Shape" fill="url(#radialGradient-8)"></path>
                                <path d="M206.010838,357.16697 L127.325429,227.039515 C134.172938,238.41537 134.172938,257.062315 127.325429,268.488315 L99.6270755,314.579152 L207.007491,396.065515 C212.578711,384.560715 212.385116,367.790642 206.010838,357.16697 L206.010838,357.16697 Z" id="Shape" fill="url(#linearGradient-9)"></path>
                            </g>
                            <path d="M283.692423,227.035464 L159.741753,20.8481996 C152.887073,9.46538463 136.39569,0.117006061 123.116541,0.117006061 L67.0458382,0.117006061 L15.1338317,0.117006061 C1.81166211,0.117006061 -3.48709104,9.46538463 3.36758827,20.8481996 L127.325429,227.035464 C134.172938,238.411116 134.172938,257.057728 127.325429,268.483524 L2.55735944,476.89864 C-2.26099255,487.192602 2.74378377,495.351838 15.1266616,495.351838 L67.0099874,495.351838 L123.109371,495.351838 C136.39569,495.351838 152.879903,486.04644 159.734582,474.620644 L256.252196,314.150891 L283.685253,268.483524 C290.547103,257.064892 290.547103,238.411116 283.692423,227.035464 L283.692423,227.035464 Z" id="Shape" fill="url(#radialGradient-10)"></path>
                        </g>
                    </g>
                    <g id="Google-Cloud-Platform" transform="translate(0.000000, 2.515152)">
                        <path d="M359.325879,391.074903 L303.193733,488.666705 L156.189722,488.666705 C143.075671,488.664271 130.965212,481.644424 124.443719,470.265083 L5.53712247,262.917593 C-0.918067936,251.643786 -0.918067936,237.793307 5.53712247,226.5195 L50.7857134,147.641371 L106.637667,244.70264 L190.835886,391.074903 L359.325879,391.074903 Z" id="Shape" fill="#FBBC05"></path>
                        <path d="M544.655516,262.917125 L425.748919,470.29596 C419.233136,481.680983 407.119058,488.702928 394.002916,488.697582 L303.162392,488.697582 L359.294539,391.105781 L443.554971,244.70264 L359.294539,98.3303765 L471.122404,98.3303765 L544.624175,226.519032 C551.135898,237.77473 551.147846,251.650227 544.655516,262.917125 L544.655516,262.917125 Z" id="Shape" fill="#EA4335"></path>
                        <path d="M471.153277,98.3303765 L190.835886,98.3303765 L106.637667,244.70264 L50.7861812,147.610026 L124.444187,19.1406647 C130.959767,7.75560694 143.07365,0.733493258 156.189722,0.738574978 L394.034256,0.738574978 C407.146194,0.748863601 419.253003,7.76659455 425.780259,19.1401969 L471.153277,98.3303765 Z" id="Shape" fill="#4285F4"></path>
                        <polyline id="Shape" fill="#E0E0E0" points="359.325879 98.3303765 443.524099 244.70264 359.294539 391.074903 190.866759 391.074903 106.637667 244.70264 190.835886 98.3303765 359.325879 98.3303765"></polyline>
                        <ellipse id="Oval" fill="#FFFFFF" cx="275.096319" cy="244.70264" rx="73.1902379" ry="73.2018044"></ellipse>
                        <path d="M124.443719,22.1657299 C130.959502,10.780707 143.07358,3.75876237 156.189722,3.76410796 L394.034256,3.76410796 C407.146194,3.77439658 419.253003,10.7921275 425.780259,22.1657299 L469.438439,98.3303765 L471.184617,98.3303765 L425.779792,19.1406647 C419.264008,7.75564191 407.149931,0.733697232 394.033788,0.73904282 L156.189722,0.73904282 C143.075671,0.741476428 130.965212,7.76132337 124.443719,19.1406647 L50.7857134,147.610026 L51.6590361,149.138465 L124.443719,22.1657299 Z" id="Shape" fill="#FFFFFF" opacity="0.2"></path>
                        <polyline id="Shape" fill-opacity="0.2" fill="#1A237E" points="106.63907 244.70264 190.83729 98.3289729 471.151873 98.3289729 469.407099 95.2739659 190.83729 95.2739659 106.63907 241.647633"></polyline>
                        <path d="M5.53712247,229.544565 L50.7857134,150.635091 L106.637199,247.727705 L190.835419,394.099968 L357.547893,394.099968 L359.325411,391.043558 L190.835419,391.043558 L106.637199,244.70264 L50.7857134,147.610026 L5.53712247,226.488155 C2.1283613,232.491933 0.475105156,239.332956 0.765890028,246.231079 C1.0010954,240.367631 2.63715048,234.645827 5.53712247,229.544565 L5.53712247,229.544565 Z" id="Shape" fill="#FFFFFF" opacity="0.2"></path>
                        <g id="Group" opacity="0.2" transform="translate(0.113266, 243.024222)" fill="#BF360C">
                            <path d="M304.826644,242.585605 L156.076456,242.585605 C142.962405,242.583171 130.851946,235.563324 124.330453,224.183983 L5.42385638,16.8364927 C2.52388439,11.7352311 0.887829312,6.01342731 0.652623942,0.149978904 C0.335101995,7.05069163 1.99012708,13.8990344 5.42385638,19.8929033 L124.330453,227.271739 C130.846236,238.656761 142.960314,245.678706 156.076456,245.673361 L303.080467,245.673361 L304.826644,242.585605 Z" id="Shape"></path>
                        </g>
                        <g id="Group" opacity="0.2" transform="translate(303.162392, 97.993261)" fill="#3E2723">
                            <polygon id="Shape" points="142.107884 146.709379 57.9096643 0.335712102 56.1648901 0.335712102 140.391176 146.709379"></polygon>
                            <path d="M241.493123,161.867454 L122.586527,369.246289 C116.070743,380.631312 103.956666,387.653257 90.8405235,387.647911 L1.77751797,387.647911 L0,390.704322 L90.8405235,390.704322 C103.952462,390.694033 116.05927,383.676302 122.586527,372.3027 L241.493123,164.923864 C244.912715,158.924377 246.566736,152.080192 246.264356,145.18094 C246.02915,151.044388 244.393095,156.766192 241.493123,161.867454 L241.493123,161.867454 Z" id="Shape"></path>
                        </g>
                        <g id="Group" opacity="0.2" transform="translate(303.162392, 97.993261)" fill="#FFFFFF">
                            <path d="M167.990884,3.36264861 L241.492656,131.551304 C244.392628,136.652566 246.028683,142.37437 246.263888,148.237818 C246.58141,141.337106 244.926385,134.488763 241.492656,128.494894 L167.990884,0.306238068 L56.1634868,0.306238068 L57.9410048,3.36264861" id="Shape"></path>
                            <polygon id="Shape" points="56.1648901 296.138053 142.107884 146.709379 140.391176 146.709379 56.1648901 293.083046 0.032743752 390.674848 1.77751797 390.674848"></polygon>
                        </g>
                        <path d="M544.655516,226.488155 L471.153744,98.2994989 L425.748919,19.1093193 C419.233136,7.72429651 407.119058,0.702351831 394.002916,0.707697418 L156.189722,0.707697418 C143.075671,0.710131027 130.965212,7.72997797 124.443719,19.1093193 L5.53712247,226.488155 C-0.918067936,237.761961 -0.918067936,251.612441 5.53712247,262.886248 L124.443719,470.265083 C130.959502,481.650106 143.07358,488.67205 156.189722,488.666705 L394.034256,488.666705 C407.146194,488.656416 419.253003,481.638685 425.780259,470.265083 L544.686856,262.886248 C551.147876,251.611006 551.135943,237.75225 544.655516,226.488155 L544.655516,226.488155 Z" id="Shape" fill="url(#radialGradient-11)"></path>
                    </g>
                </g>
            </g>
        </g>
    </g>
</svg>