<?xml version="1.0" encoding="UTF-8"?>
<svg width="2942px" height="403px" viewBox="0 0 2942 403" version="1.1" xmlns="http://www.w3.org/2000/svg" xmlns:xlink="http://www.w3.org/1999/xlink">
    <!-- Generator: Sketch 3.7.2 (28276) - http://www.bohemiancoding.com/sketch -->
    <title>gdgcv_logo_long</title>
    <desc>Created with Sketch.</desc>
    <defs>
        <rect id="path-1" x="0" y="0" width="2296.95599" height="403"></rect>
        <radialGradient cx="-54.1555987%" cy="-174.154426%" fx="-54.1555987%" fy="-174.154426%" r="402.157161%" id="radialGradient-3">
            <stop stop-color="#FFCE4E" offset="0%"></stop>
            <stop stop-color="#F5C337" offset="100%"></stop>
        </radialGradient>
        <radialGradient cx="-6.593919%" cy="-88.3500641%" fx="-6.593919%" fy="-88.3500641%" r="326.488856%" id="radialGradient-4">
            <stop stop-color="#0DA960" offset="0%"></stop>
            <stop stop-color="#05924B" offset="100%"></stop>
        </radialGradient>
        <radialGradient cx="-4.42276749%" cy="-2.56440874%" fx="-4.42276749%" fy="-2.56440874%" r="226.265021%" id="radialGradient-5">
            <stop stop-color="#577EC0" offset="0%"></stop>
            <stop stop-color="#557EBF" offset="100%"></stop>
        </radialGradient>
        <radialGradient cx="-35.1621493%" cy="-3.23098682%" fx="-35.1621493%" fy="-3.23098682%" r="261.057395%" id="radialGradient-6">
            <stop stop-color="#E04B3F" offset="0%"></stop>
            <stop stop-color="#CD382D" offset="100%"></stop>
        </radialGradient>
        <linearGradient x1="122.538745%" y1="50.0008476%" x2="-2.70910562%" y2="50.0008476%" id="linearGradient-7">
            <stop stop-color="#231F20" stop-opacity="0.2" offset="0%"></stop>
            <stop stop-color="#F2F2F2" stop-opacity="0.25" offset="100%"></stop>
        </linearGradient>
        <radialGradient cx="49.9993392%" cy="50.0007232%" fx="49.9993392%" fy="50.0007232%" r="70.2931732%" id="radialGradient-8">
            <stop stop-color="#FFFFFF" stop-opacity="0.1" offset="0%"></stop>
            <stop stop-color="#FFFFFF" stop-opacity="0.091" offset="8.96%"></stop>
            <stop stop-color="#FFFFFF" stop-opacity="0" offset="100%"></stop>
        </radialGradient>
        <radialGradient cx="14.3780526%" cy="6.75293597%" fx="14.3780526%" fy="6.75293597%" r="76.9741617%" id="radialGradient-9">
            <stop stop-color="#FFFFFF" stop-opacity="0.1" offset="0%"></stop>
            <stop stop-color="#FFFFFF" stop-opacity="0" offset="100%"></stop>
        </radialGradient>
    </defs>
    <g id="branding_svg" stroke="none" stroke-width="1" fill="none" fill-rule="evenodd">
        <g id="long_logo" transform="translate(-274.000000, -205.000000)">
            <g id="gdgcv_logo_long" transform="translate(274.000000, 205.000000)">
                <g id="gdg_newdelhi_banner_logo" transform="translate(381.625917, 0.000000)">
                    <g id="background" transform="translate(0.000000, 2.000000)" fill="#F0F0F0">
                        <rect id="bgMiddle" x="568.278729" y="0.878571429" width="1422.81663" height="397.242857"></rect>
                        <g id="bgLeft" transform="translate(0.000000, 1.000000)">
                            <path d="M2279.20708,181.913671 L2180.11107,16.9485 C2174.63294,7.8407 2161.43588,0.362171429 2150.77916,0.362171429 L2150.45082,0.362171429 L12.3030513,0.3852 C2.40093888,0.3852 -1.56797066,6.91955714 2.29149144,15.1465143 L102.072988,181.867614 C107.55112,191.021471 107.55112,205.932471 102.072988,215.040271 L2.93089487,379.993929 C-2.54723716,389.101729 1.68665037,396.580257 12.3030513,396.580257 L2150.7734,396.557229 C2161.43012,396.557229 2174.62718,389.124757 2180.10531,379.982414 L2279.20132,215.069057 C2284.69097,205.932471 2284.69097,191.021471 2279.20708,181.913671 L2279.20708,181.913671 Z" id="bgLeftPath"></path>
                        </g>
                        <g id="bgRight" transform="translate(276.498778, 1.000000)">
                            <path d="M2279.20708,181.913671 L2180.11107,16.9485 C2174.63294,7.8407 2161.43588,0.362171429 2150.77916,0.362171429 L2150.45082,0.362171429 L12.3030513,0.3852 C2.40093888,0.3852 -1.56797066,6.91955714 2.29149144,15.1465143 L102.072988,181.867614 C107.55112,191.021471 107.55112,205.932471 102.072988,215.040271 L2.93089487,379.993929 C-2.54723716,389.101729 1.68665037,396.580257 12.3030513,396.580257 L2150.7734,396.557229 C2161.43012,396.557229 2174.62718,389.124757 2180.10531,379.982414 L2279.20132,215.069057 C2284.69097,205.932471 2284.69097,191.021471 2279.20708,181.913671 L2279.20708,181.913671 Z" id="bgRightPath"></path>
                        </g>
                    </g>
                    <g id="Group">
                        <g id="SVGID_8_" transform="translate(0.000000, 2.000000)" fill="#F0F0F0">
                            <g id="background">
                                <rect id="bgMiddle" x="568.278729" y="0.878571429" width="1422.81663" height="397.242857"></rect>
                                <g id="bgLeft" transform="translate(0.000000, 1.000000)">
                                    <path d="M2279.20708,181.913671 L2180.11107,16.9485 C2174.63294,7.8407 2161.43588,0.362171429 2150.77916,0.362171429 L2150.45082,0.362171429 L12.3030513,0.3852 C2.40093888,0.3852 -1.56797066,6.91955714 2.29149144,15.1465143 L102.072988,181.867614 C107.55112,191.021471 107.55112,205.932471 102.072988,215.040271 L2.93089487,379.993929 C-2.54723716,389.101729 1.68665037,396.580257 12.3030513,396.580257 L2150.7734,396.557229 C2161.43012,396.557229 2174.62718,389.124757 2180.10531,379.982414 L2279.20132,215.069057 C2284.69097,205.932471 2284.69097,191.021471 2279.20708,181.913671 L2279.20708,181.913671 Z" id="bgLeftPath"></path>
                                </g>
                                <g id="bgRight" transform="translate(276.498778, 1.000000)">
                                    <path d="M2279.20708,181.913671 L2180.11107,16.9485 C2174.63294,7.8407 2161.43588,0.362171429 2150.77916,0.362171429 L2150.45082,0.362171429 L12.3030513,0.3852 C2.40093888,0.3852 -1.56797066,6.91955714 2.29149144,15.1465143 L102.072988,181.867614 C107.55112,191.021471 107.55112,205.932471 102.072988,215.040271 L2.93089487,379.993929 C-2.54723716,389.101729 1.68665037,396.580257 12.3030513,396.580257 L2150.7734,396.557229 C2161.43012,396.557229 2174.62718,389.124757 2180.10531,379.982414 L2279.20132,215.069057 C2284.69097,205.932471 2284.69097,191.021471 2279.20708,181.913671 L2279.20708,181.913671 Z" id="bgRightPath"></path>
                                </g>
                            </g>
                        </g>
                        <g id="world" transform="translate(124.728606, 0.000000)">
                            <mask id="mask-2" fill="white">
                                <use xlink:href="#path-1"></use>
                            </mask>
                            <g id="Mask"></g>
                            <g mask="url(#mask-2)" id="Shape" fill="#E0E0E0">
                                <g transform="translate(-17.281174, -451.814286)">
                                    <path d="M2004.39148,103.869843 C1993.68291,97.7154571 1984.64486,105.694857 1977.53654,105.902114 C1971.25195,106.080586 1963.96506,102.856586 1956.98346,101.814543 C1952.24266,101.117929 1947.73803,102.332686 1942.51912,101.814543 C1932.15042,100.645843 1921.51097,96.6216 1911.60886,95.5910714 C1895.4164,94.0884571 1888.35416,100.887643 1876.60872,101.814543 C1874.12023,104.8831 1873.9647,110.266029 1870.36446,112.154371 C1862.32871,110.588429 1857.60519,117.934543 1851.83328,120.346786 C1847.657,122.143014 1842.35168,122.718729 1837.4323,124.520714 C1832.81823,126.034843 1829.16038,130.156957 1822.9334,128.527686 C1814.33313,124.319214 1809.14302,113.133086 1798.23284,112.154371 C1787.93326,111.221714 1779.13138,122.033629 1769.3848,122.430871 C1766.04378,122.551771 1764.11404,121.279443 1761.05528,120.346786 C1758.23268,119.402614 1752.63358,119.1493 1750.84786,118.285729 C1744.6036,115.551086 1742.99069,109.097329 1734.31554,107.940143 C1728.05976,107.243529 1722.42033,111.221714 1715.79012,112.154371 C1706.11267,113.4267 1697.72554,109.569414 1689.0043,114.157857 C1683.70474,120.513743 1689.59186,128.8616 1689.0043,136.817971 C1681.48699,140.324071 1673.58374,143.467471 1664.24614,145.119771 C1657.80026,147.503229 1658.40511,157.060086 1649.8394,157.399757 C1632.9845,146.167571 1631.602,119.356557 1596.1756,126.587529 C1592.40254,132.373457 1592.40254,141.9188 1583.85988,142.995386 C1574.57413,143.496257 1570.63978,137.267029 1561.12938,136.817971 C1550.13279,136.288314 1536.42882,147.4399 1526.1062,136.817971 C1528.87119,105.332157 1506.11188,84.2149571 1478.72122,95.5968286 C1468.62902,92.6376571 1463.92854,84.3301 1451.91236,83.2880571 C1451.68195,86.4832714 1446.65312,84.8827857 1447.81096,89.4654714 C1440.48375,96.2070857 1449.69461,106.310871 1447.81096,112.154371 C1444.68307,121.475186 1436.88926,122.551771 1425.16687,124.514957 C1415.08042,140.7904 1389.65405,147.088714 1398.30616,175.960786 C1394.15292,179.973514 1384.72892,178.902686 1383.85334,186.266071 C1379.1183,188.425 1379.65401,195.765357 1379.83259,202.6912 C1370.51227,206.577271 1365.5929,214.769686 1355.02258,217.187686 C1346.98684,211.5169 1343.88775,200.8777 1330.35083,200.681957 C1328.38653,209.110414 1323.60541,229.605843 1324.11808,237.746443 C1324.64804,246.232471 1334.08356,253.636157 1328.26556,260.435343 C1315.69063,258.017343 1308.65143,255.915986 1295.30461,258.362771 C1294.07764,261.989771 1297.75853,270.441257 1293.22511,270.769414 C1283.69742,278.950314 1270.60405,273.607686 1260.26991,277.010157 C1259.45769,277.148329 1257.10745,280.516257 1256.06482,281.051671 C1253.40352,282.4449 1250.16618,281.391343 1247.90235,283.101214 C1241.39311,287.896914 1240.51753,298.5246 1231.3297,299.578157 C1227.33199,294.661557 1228.61656,284.442629 1218.96214,285.196814 C1210.51741,289.238329 1224.45179,308.288714 1210.77663,309.854657 C1201.80194,309.215614 1202.96554,298.518843 1198.39178,293.3259 C1182.33181,284.788057 1165.93198,276.365357 1144.78558,272.795929 C1139.08856,266.3249 1134.86043,260.015071 1128.33391,258.357014 C1108.99627,253.572829 1094.70474,266.388229 1087.07799,270.763657 C1081.23119,274.079771 1078.1321,274.419443 1074.71043,277.0044 C1070.49958,280.055686 1066.9627,282.755786 1064.38204,285.196814 C1057.37741,291.667843 1059.0652,299.578157 1056.17925,307.787843 C1054.9638,311.247886 1050.00987,315.1685 1047.90156,320.142671 C1045.58013,325.801943 1046.17345,332.365086 1043.78865,336.659914 C1043.4027,337.327743 1040.27481,338.024357 1039.62388,338.697943 C1038.19531,340.356 1039.01904,343.171243 1037.61351,344.881114 C1026.99711,358.134057 1015.09614,360.016643 1006.69749,371.692129 C1007.35417,388.180586 1008.44289,404.248771 1016.93946,412.901757 C1030.28053,415.9185 1030.91417,406.154386 1041.66882,406.747371 C1044.55478,410.731314 1043.67344,418.480429 1045.88543,423.178257 C1042.82666,420.196057 1032.34851,420.196057 1029.28398,423.178257 C1024.60654,431.934871 1030.49366,438.952829 1029.28398,449.989271 C1024.09387,453.673843 1017.87265,456.414243 1010.79312,458.187443 C1005.32651,463.731571 1002.53272,471.981557 994.278083,474.647114 C993.425545,464.428186 974.865565,444.963286 967.480743,429.372943 C965.401242,424.801771 967.837888,418.848886 965.447325,414.962814 C961.449614,408.313314 951.933447,407.8182 946.847022,410.783129 C941.07511,414.697986 943.033643,426.143186 942.745623,435.556114 C928.586582,439.879729 916.000127,454.4856 922.100381,472.563029 C934.070474,474.992543 937.140763,468.412129 944.830885,466.431671 C947.774445,459.816714 945.700704,448.135471 955.101663,447.905186 C959.099374,456.42 947.866611,472.793314 955.101663,484.986943 C962.042934,486.299571 974.283765,482.3732 977.814885,487.059514 C973.869017,494.112014 963.915061,495.263443 957.181164,499.4201 C957.584391,513.064529 977.112117,516.328829 973.650122,530.358986 C968.961164,549.985086 944.594709,533.5139 928.338885,542.667757 C923.194856,546.824414 927.198328,554.233857 926.265144,561.234543 C924.778963,572.495514 919.513966,581.8739 924.185643,590.0145 C931.247883,597.970871 941.317046,594.401443 942.745623,604.453414 C944.370054,615.518643 931.530142,618.126629 922.100381,629.2264 C917.774328,634.367529 917.273174,649.9406 916.000127,651.857729 C911.823844,658.069686 901.386015,661.149757 895.389447,666.290886 C888.269604,672.3071 883.64401,680.534057 878.914729,689.008571 C875.775315,694.4318 871.316773,701.985171 870.585203,707.471729 C869.433125,716.1938 873.534523,729.924586 872.658944,740.460157 C872.31332,744.133214 869.029897,747.702643 868.63243,750.748171 C864.876655,772.999529 878.079472,776.747429 887.100244,787.893257 C890.458553,792.049914 890.86754,794.404586 893.304186,798.146729 C898.096831,805.441029 901.288088,807.939629 907.728205,812.556857 C913.857262,816.932286 916.345751,819.701471 922.100381,822.9485 C936.092372,830.501871 938.857359,822.994557 955.101663,822.9485 C960.867814,822.862143 967.065995,825.602543 971.628225,824.905929 C976.081007,824.312943 980.83333,820.398086 986.058005,818.711243 C1006.57652,812.102043 1010.11916,815.896 1023.17221,829.062586 C1032.45796,828.705643 1041.54209,828.5905 1043.77136,835.24 C1048.97876,845.125014 1039.07089,855.977229 1041.6573,868.211157 C1043.9557,878.493414 1055.34399,884.031786 1060.2576,892.926571 C1062.90162,897.728029 1066.85901,906.2083 1068.57561,913.485329 C1069.83137,919.639714 1071.62862,931.96 1070.54566,938.229529 C1069.78529,943.0022 1064.05946,945.115071 1062.33134,948.483 C1061.19079,950.751314 1060.72996,955.276429 1060.2576,956.790557 C1055.01565,973.7511 1060.88549,985.633843 1066.43274,998.0117 C1069.08828,1004.02216 1073.18968,1010.03261 1074.69314,1016.54394 C1076.59407,1024.86877 1075.56296,1032.19761 1076.7208,1039.16376 C1078.74846,1050.67229 1089.48007,1059.12377 1093.25312,1070.13719 C1096.89369,1080.7879 1093.08031,1093.05061 1103.59303,1100.97244 C1118.43756,1098.83079 1134.85467,1099.2856 1146.81324,1096.87336 C1149.30173,1096.32643 1160.955,1090.92047 1161.31215,1090.66716 C1167.21079,1085.02516 1172.64284,1080.78214 1179.87213,1072.12916 C1189.34797,1060.89121 1198.12105,1050.30959 1200.4252,1035.0877 C1207.84459,1028.32306 1214.07157,1029.51479 1216.95753,1020.62576 C1219.52666,1012.55424 1214.12917,1001.26449 1216.95753,993.855043 C1221.79625,981.160543 1245.83437,977.061457 1251.94038,967.095843 C1257.98303,957.487171 1256.98648,933.416557 1254.02564,925.920757 C1251.60052,919.823943 1248.48415,913.370186 1247.89659,907.307914 C1246.76179,897.031414 1250.03945,890.462514 1251.94038,886.691586 C1256.57174,877.687414 1257.68349,875.269414 1264.3137,868.211157 C1269.16971,863.075786 1274.94162,856.305386 1278.6974,853.778 C1290.65597,845.8389 1304.79197,833.674057 1309.72863,822.954257 C1310.03393,822.113714 1313.35767,821.681929 1313.77242,820.870171 C1320.18374,809.517086 1326.58929,795.458143 1328.2598,781.658271 C1315.50054,768.152014 1283.95664,795.797814 1276.68702,775.480857 C1280.39095,769.0271 1290.61565,768.555014 1299.37144,765.215871 C1308.63991,761.617657 1320.98443,757.006186 1328.2598,752.849529 C1330.29898,751.623257 1330.81742,749.6831 1332.29784,748.7562 C1340.34511,743.701429 1348.1562,742.860886 1355.01682,738.416371 C1356.09978,737.719757 1357.89702,735.2154 1359.12974,734.259714 C1365.41433,729.176157 1369.06066,725.3016 1373.57104,717.800043 C1377.3729,711.513243 1380.616,706.406657 1379.82683,701.3231 C1377.78765,688.720714 1363.17354,694.293629 1361.20348,678.691771 C1382.22891,682.163329 1398.06999,682.589357 1421.00786,680.7298 C1431.74523,689.912443 1443.35242,698.277571 1449.82134,711.628386 C1457.4769,712.296214 1463.99766,713.983057 1468.43316,717.794286 C1469.18778,736.1423 1478.08182,748.750443 1482.88022,759.026943 C1484.20511,762.026414 1483.73276,764.1911 1484.88484,767.282686 C1485.93899,769.896429 1488.02425,771.3242 1488.99776,773.437071 C1493.66944,783.016957 1497.07959,792.228386 1503.47362,800.184757 C1511.1407,801.687371 1512.33887,796.667143 1519.9829,798.146729 C1519.75249,807.9972 1522.51172,814.8482 1530.31129,816.707757 C1533.32397,814.796386 1540.36893,806.373686 1534.34932,802.303386 C1535.49564,792.919243 1523.3873,796.788043 1524.06702,787.893257 C1521.99904,780.610471 1526.1062,767.392071 1526.1062,765.210114 C1526.1062,764.525014 1523.66956,760.679243 1524.06702,756.942857 C1524.99444,749.470086 1542.51179,734.363343 1548.79638,728.128357 C1563.7734,713.159786 1571.05453,702.998429 1592.13756,703.441729 C1603.45673,714.673914 1613.57198,727.259029 1618.88882,744.536214 C1625.13309,747.478114 1626.31397,743.609314 1635.3981,744.536214 C1642.15504,754.979671 1646.71727,767.478429 1649.8394,781.652514 C1657.80026,780.783186 1655.51339,769.418586 1666.29684,771.318443 C1685.91097,778.140657 1680.24275,794.180057 1697.28775,794.018857 C1703.24399,793.926743 1709.53434,785.745843 1711.65992,783.707814 C1717.15533,778.595471 1721.26249,775.1124 1722.01711,769.217086 C1722.7602,762.976343 1717.29358,748.1517 1715.79012,746.654843 C1714.90302,745.710671 1714.615,743.344486 1713.68758,742.498186 C1709.98941,738.853914 1704.39031,737.817629 1701.38914,734.242443 C1690.74394,721.807014 1697.21286,705.364614 1713.68758,707.460214 C1719.73599,711.968057 1706.994,726.136386 1719.94336,726.021243 C1729.00446,725.480071 1723.89499,710.799357 1728.11736,705.462486 C1744.71881,698.386957 1759.60942,694.627543 1769.39056,684.874943 C1778.79152,675.404443 1778.67631,671.8235 1783.8261,658.063929 C1788.63603,645.311857 1790.75009,641.454571 1787.87566,629.220643 C1787.06344,625.484257 1786.7927,618.972929 1785.848,616.796729 C1784.1026,612.231314 1777.9505,607.844371 1775.50234,604.447657 C1773.61869,601.747557 1772.61638,597.965114 1771.44702,596.2207 C1768.23272,591.609229 1767.47811,593.808457 1767.28802,588.0398 C1767.12097,579.761029 1781.60259,573.019414 1775.50234,567.434986 C1767,561.4821 1755.09903,571.505286 1750.84786,561.228786 C1750.84786,550.917743 1757.38015,547.164086 1763.2039,542.662 C1769.85139,550.1578 1774.71892,551.372557 1787.87566,548.885471 C1792.48973,558.695643 1801.10728,565.805714 1806.53356,575.633157 C1809.34464,580.912457 1808.07735,588.7249 1814.79397,592.121614 C1820.86542,591.378943 1825.20875,588.851557 1829.13734,585.938443 C1831.7756,563.468314 1816.36079,558.931686 1810.56584,544.734571 C1817.06356,536.709114 1817.56471,522.920757 1822.9334,513.824471 C1827.91614,510.479571 1836.23414,510.5429 1841.5337,507.612514 C1847.20193,500.1455 1852.29411,488.550614 1855.99228,476.7715 C1859.16626,466.2532 1864.32181,448.647857 1864.16628,439.649443 C1864.13748,432.971157 1856.44735,426.989486 1862.17894,421.088414 C1864.60983,431.744886 1867.72044,441.681714 1876.60872,445.809586 C1892.38067,424.0994 1862.57641,408.509057 1860.02456,386.125286 C1838.89544,380.253 1813.00824,386.470714 1808.50938,369.590771 C1808.15223,367.875143 1811.7928,351.979671 1812.6511,348.968686 C1812.89304,348.243286 1816.5336,345.969214 1816.76978,344.875357 C1818.59006,338.0186 1817.73753,324.685057 1820.9403,320.131157 C1827.10968,311.1788 1837.91042,313.280157 1847.66852,309.8489 C1855.14551,307.298486 1858.54414,301.069257 1864.17204,301.621943 C1873.15825,302.036457 1878.08338,308.864429 1886.91406,303.7233 C1894.5869,295.053043 1882.29999,266.376714 1897.24244,260.423829 C1907.54202,258.351257 1907.26553,266.831529 1915.72754,266.601243 C1921.10199,265.616771 1922.66881,255.276943 1928.10086,260.423829 C1923.51559,273.342857 1926.655,287.868129 1923.98218,301.621943 C1922.78402,308.046914 1918.57317,313.947986 1917.8128,320.131157 C1914.52938,347.034286 1925.50868,357.656214 1934.28176,371.686371 C1940.5145,381.6635 1945.59517,394.490414 1954.8982,398.457086 C1965.19778,390.443143 1960.77956,371.2661 1963.1586,359.3373 C1963.798,356.136329 1967.26,354.081029 1967.26,351.058529 C1967.37521,347.926643 1963.85561,342.296157 1963.1586,336.6484 C1962.36943,330.470986 1964.14363,323.1076 1963.1586,320.131157 C1960.86021,313.481657 1951.52837,308.922 1948.71154,301.621943 C1945.1401,292.531414 1949.70233,286.123714 1944.6159,278.9388 C1953.86709,270.285814 1963.62519,262.271871 1979.70244,260.423829 C1982.80154,247.090286 1986.30961,234.159743 1992.00088,223.359343 C1995.72785,218.160643 2006.03319,219.599929 2006.48826,210.923914 C2003.96521,195.3566 1987.39257,193.445229 1983.78656,180.105929 C1983.10684,177.492186 1985.8603,171.395371 1985.8315,167.728071 C1985.8315,162.074557 1983.10108,159.7717 1983.78656,153.294914 C1990.88912,144.152571 2002.97443,152.218329 2014.70834,147.192343 C2019.63348,138.510571 2011.40764,135.062043 2010.53206,126.576014 C2011.56317,115.833186 2008.56777,109.270043 2004.39148,103.869843 L2004.39148,103.869843 Z M1175.69584,318.1104 C1182.51615,320.252057 1192.57379,319.152443 1198.38026,322.249786 C1198.51851,333.361071 1185.43667,331.317286 1175.69584,332.543557 C1172.74076,329.808914 1172.74076,320.960186 1175.69584,318.1104 L1175.69584,318.1104 Z M1177.76958,519.961586 C1188.3399,518.338071 1186.15095,529.501171 1194.16942,530.376257 C1203.6683,530.7735 1203.6683,521.890229 1206.60034,515.879771 L1212.83885,515.879771 C1211.68677,538.3499 1236.06474,535.269829 1241.67536,550.935014 C1234.53248,568.235229 1218.95638,555.201057 1206.60034,552.990314 C1192.56803,550.462929 1181.94011,557.670871 1165.41355,559.185 C1153.44921,547.993114 1164.52644,524.475186 1177.76958,519.961586 L1177.76958,519.961586 Z M1078.80606,427.2831 C1078.12058,413.437171 1083.09179,407.587914 1087.06646,394.3983 C1087.35448,385.204143 1078.66781,381.916814 1078.80606,373.753186 C1078.97888,361.985586 1088.40864,357.074743 1097.34876,351.070043 C1099.06536,342.5322 1098.90983,332.048443 1105.62644,328.398414 C1108.98475,327.868757 1109.19789,330.367357 1111.77854,330.4825 C1114.10574,345.8771 1101.20822,345.980729 1097.34876,355.197914 C1096.83609,375.042786 1102.07804,388.975071 1115.93755,394.404057 C1114.85459,413.022657 1098.09761,420.4321 1105.62644,441.756557 C1099.53771,446.166529 1094.03654,440.996614 1087.06646,441.756557 C1076.89361,442.896471 1066.11016,453.9617 1058.1781,443.823371 C1060.55138,433.765643 1073.90973,434.750114 1078.80606,427.2831 L1078.80606,427.2831 Z M1169.4919,637.424571 C1160.258,637.010057 1153.09207,633.647886 1144.77406,631.304729 C1136.12196,628.777343 1125.76477,624.3501 1122.08388,625.081257 C1112.93638,626.854457 1112.8903,635.386543 1105.62644,641.586986 C1097.71167,640.660086 1090.5803,638.610543 1084.9812,633.331243 C1078.4086,626.963843 1062.90738,626.704771 1051.99144,618.9499 C1053.20689,607.458643 1051.04674,599.260471 1045.87967,594.176914 C1028.58697,595.1326 1014.95789,593.819971 1000.47626,596.232214 C985.205467,598.845957 970.758406,611.022314 955.101663,604.459171 C962.198465,595.691043 972.855188,598.506286 979.813741,590.020257 C983.022279,586.3069 981.685868,578.344771 983.984264,573.618157 C986.772293,568.085543 992.75734,565.644514 996.346064,561.2403 C1000.74124,555.8401 1001.31152,549.772071 1006.68597,546.830171 C1014.44521,542.869257 1029.69873,546.484743 1033.50059,538.5514 C1048.81171,546.599886 1056.97418,561.798743 1074.68738,567.452257 C1078.40284,571.263486 1080.22888,576.9573 1084.96968,579.7783 C1107.74051,561.499371 1068.97308,552.644886 1064.359,536.559429 C1064.69887,534.112643 1068.10902,534.757443 1070.5399,534.4005 C1076.88785,544.567614 1091.28307,546.726543 1099.41674,555.0341 C1099.37066,559.8701 1102.93058,561.153943 1101.4444,567.452257 C1108.67369,570.682014 1113.53546,595.840729 1124.14034,596.237971 C1141.554,596.877014 1132.30282,581.010329 1134.4284,569.409686 C1139.85469,569.225457 1141.65769,566.329614 1144.7683,569.409686 C1146.68651,571.488014 1145.51715,577.475443 1146.80748,579.7783 C1148.37431,582.3575 1149.38814,584.942457 1151.01833,588.057071 C1154.1347,594.240243 1156.77296,594.885043 1161.30063,600.394629 C1182.54495,597.113057 1193.48969,607.4644 1210.75934,602.461443 C1214.23286,614.424786 1208.54735,626.963843 1202.48166,635.386543 C1190.31572,632.859157 1181.41015,638.075129 1169.4919,637.424571 L1169.4919,637.424571 Z M1266.38744,756.954371 C1261.44503,756.891043 1257.72957,755.722343 1254.02564,752.849529 C1247.10165,747.483871 1247.10165,740.132 1241.6696,732.2332 C1239.40577,729.066771 1234.68225,726.5106 1233.46105,723.977457 C1231.31818,719.711414 1231.47371,712.5265 1229.2502,707.477486 C1226.75019,701.847 1222.02091,698.398471 1218.95062,693.073114 C1218.0808,691.535957 1219.7686,688.513457 1218.95062,686.832371 C1217.56813,684.051671 1208.3227,678.403914 1210.76511,668.351943 L1216.95177,668.351943 C1221.16261,673.262786 1222.83312,678.812671 1227.22254,684.886457 C1230.6615,689.670643 1237.04977,693.654586 1239.57858,699.2678 C1240.97836,702.388171 1239.8666,706.493014 1241.6696,709.5443 C1250.62701,724.524386 1270.10866,737.161314 1266.38744,756.954371 L1266.38744,756.954371 Z M1278.6974,524.2046 C1286.30688,517.296029 1291.3357,507.911886 1307.6376,509.685086 C1313.32311,519.3686 1300.59265,519.702514 1301.39334,530.376257 C1301.18021,538.355657 1310.23554,542.3396 1313.76666,548.9085 C1316.1457,553.174543 1316.1457,559.127429 1317.9199,563.272571 C1321.68144,572.3631 1331.22065,580.676414 1326.12846,590.026014 C1316.37036,596.174643 1305.2816,588.2816 1299.36568,583.906171 C1305.56962,550.935014 1281.18589,548.488229 1278.6974,524.2046 L1278.6974,524.2046 Z M1334.4407,686.832371 C1324.05472,686.803586 1312.44177,664.897657 1305.56962,658.075443 C1303.2021,655.029914 1303.2021,652.847957 1305.56962,649.8197 L1311.69868,649.8197 C1318.60539,664.195286 1335.13771,668.967957 1350.92694,674.477543 C1345.39121,681.950314 1341.15732,686.9763 1334.4407,686.832371 L1334.4407,686.832371 Z"></path>
                                    <path d="M738.683765,888.752643 C732.986738,884.544171 725.861134,877.854371 722.209046,876.403571 C712.865692,872.834143 700.780391,875.2176 691.241183,872.344786 C686.966973,870.974586 683.38401,866.034957 678.948509,864.123586 C673.453095,861.6768 668.211139,863.306071 664.489927,862.0395 C651.43112,857.381971 652.588958,849.345 647.992166,839.356357 C645.774416,834.5549 642.663804,827.899643 639.708724,824.917443 C638.982914,824.099929 630.883804,818.348543 627.346924,816.719271 C620.22132,813.466486 615.290425,815.567843 606.736244,814.635186 C597.876763,813.742829 587.81912,799.8969 582.064489,796.102943 C576.978064,792.735014 572.634729,784.922571 569.70845,783.725086 C559.69113,779.896586 545.030934,785.124071 536.701408,783.725086 C527.461741,782.210957 524.523941,776.528657 518.118386,775.486614 C501.931687,772.769243 490.900538,776.108386 485.117105,779.568429 C479.235746,783.241486 476.603247,790.691229 466.63201,794.036129 C463.158494,795.176043 458.659628,792.735014 456.274826,796.102943 L454.679198,797.668886 C453.688411,797.427086 452.657301,797.334971 451.62043,797.611314 L450.105447,796.097186 C435.335804,793.938257 427.864577,789.844929 425.376088,777.564943 C423.803501,769.700686 432.086944,760.800143 427.46135,752.843771 C423.244743,743.948986 404.172088,749.901871 398.555707,742.5097 C393.665134,731.565371 407.910582,723.470829 404.811491,707.471729 C383.44044,698.9051 383.44044,718.139714 373.837868,723.9717 C350.911511,737.938529 333.342318,715.6699 336.740949,689.008571 C337.328509,683.982586 343.976,659.359286 344.955267,658.069686 C348.417262,653.487 366.314797,645.933629 369.759511,645.674557 C375.289487,645.461543 381.775687,650.631457 388.233086,649.8197 C393.734259,647.816214 397.708929,642.680843 404.817252,641.581229 C415.900244,639.894386 428.843844,645.317614 435.669907,649.8197 C437.91646,661.967271 437.91646,676.463757 452.20223,676.573143 C463.630846,662.980529 446.977555,649.9406 452.20223,633.325486 C453.279423,629.784843 457.144645,627.838929 460.405027,625.069743 C467.202289,619.329871 472.478807,615.345929 479.00533,610.665371 C483.037604,607.729229 487.847531,606.451143 489.218504,604.453414 C493.901702,597.907543 492.231188,588.500371 495.445487,581.787543 C497.41554,577.688457 502.450122,573.836929 505.745066,569.398171 C514.287726,558.304157 518.158709,553.6236 532.496323,550.9235 C536.303941,539.127114 541.58046,527.192557 555.192264,526.202329 C562.075932,525.678429 565.595531,529.668129 573.804088,530.364743 C583.216567,523.939771 598.458562,523.381329 602.559961,511.826743 C592.047247,509.886586 587.220039,509.731143 582.058729,501.492671 C580.388215,498.878929 583.141682,491.895514 582.058729,487.059514 C580.61287,480.968457 570.843247,480.433043 577.888205,476.7715 C588.41244,479.085871 593.896333,481.273586 602.5542,478.774986 C609.789252,476.834829 620.013946,470.939514 625.330787,474.647114 C623.769721,483.472814 615.682132,485.7181 617.053105,497.3648 C626.707521,502.062629 636.926455,506.334429 652.082044,505.643571 C659.069399,490.341086 643.896528,483.242529 639.697203,472.563029 C645.595844,459.459771 644.397682,448.532714 639.697203,441.739286 C638.274386,439.649443 636.753643,434.8595 635.613086,433.454757 C630.693711,427.858814 622.836538,426.488614 619.161408,419.125229 C615.342269,411.456714 616.500108,402.878571 614.979364,396.407543 C613.464381,389.6429 612.439032,383.776371 608.781183,375.791214 C594.184352,373.494114 597.922846,389.700471 582.052968,386.131043 C576.211932,379.844243 578.98268,372.964457 579.910103,363.442143 C570.123198,350.661286 557.507941,331.633929 534.610386,338.697943 C529.022807,346.113143 532.997477,354.731586 530.508988,363.442143 C528.671423,369.959229 522.88223,374.847043 522.260108,382.031957 C521.545819,389.107486 526.591922,397.8641 524.264724,404.663286 C521.378768,413.431414 506.948988,415.204614 501.620626,425.222043 C495.433966,436.8342 505.693222,443.518243 493.360225,451.992757 C481.971932,449.764743 490.600998,427.340671 485.099824,419.125229 C483.083687,415.279457 478.285281,416.770557 474.817526,414.962814 C464.748362,409.666243 456.574367,397.858343 448.020186,392.256643 C446.61465,391.323986 445.284,391.024614 443.901506,390.155286 C435.871521,385.480486 434.316215,382.262243 431.539707,373.747429 C424.339218,351.7609 441.101956,341.588029 454.189565,330.470986 C464.396978,321.841029 474.921213,311.737243 489.201222,311.990557 C494.748479,313.947986 494.345252,321.956171 499.541125,324.345386 C509.472039,321.322886 515.889115,320.413257 524.258963,320.136914 C526.073487,306.768829 511.960528,300.3381 516.056166,291.379986 C528.659902,285.311957 536.977907,281.103486 540.745203,268.668057 C543.671482,259.318457 547.657672,249.991886 553.158846,243.946886 C567.254523,241.477071 570.946934,249.4795 573.786807,258.357014 C573.665839,267.257557 562.865105,265.323157 565.457281,277.0044 C574.587501,279.641171 580.376694,267.257557 584.057584,277.0044 C582.67509,291.379986 571.171589,295.709357 563.504509,303.734814 C555.342034,303.907529 545.359276,302.140086 546.989467,312.002071 C546.119648,323.0673 564.25912,315.283643 569.691169,320.142671 C574.103628,324.811714 574.460773,335.502729 579.898582,340.787786 C583.786846,344.489629 593.994259,349.239271 598.498885,348.9802 C602.312264,348.870814 613.245487,342.4113 614.962083,340.787786 C624.247834,332.422657 616.062318,319.555443 612.871061,307.7936 C620.641829,307.5921 619.18445,316.688386 629.426425,314.017071 C638.424156,308.403857 643.62579,305.364086 643.856205,297.511343 C643.959892,292.203257 637.398807,287.7645 633.556626,283.106971 C628.838866,277.505271 623.833086,273.970386 623.239765,268.673814 C624.04622,260.544729 627.801995,256.4514 627.323883,250.135814 C626.229408,234.424571 607.225878,226.422143 600.526543,210.929671 C597.703951,204.274414 596.085281,197.947314 596.482748,188.367429 C590.244244,179.242357 576.499951,182.5815 565.451521,180.111686 C561.292518,179.121457 558.112782,176.824357 555.169222,175.955029 C529.408753,167.699286 513.924822,196.657714 516.050406,223.359343 C519.811941,229.335257 526.983628,232.115957 526.326944,241.891586 C525.940998,247.902043 520.336137,256.721986 511.954768,256.324743 C509.126416,247.902043 499.166699,240.268071 497.450103,229.594329 C497.035355,226.525771 499.304949,220.688029 499.529604,217.176171 C500.105643,208.338957 498.210474,198.759071 501.603345,190.388186 C512.766983,182.9845 534.506699,186.099114 530.491707,163.577171 C522.242826,156.380743 510.393702,157.054329 501.603345,163.577171 C492.10446,148.545271 481.493819,155.9835 472.714983,163.577171 C462.674621,172.3856 461.04443,174.043657 464.523707,184.205014 C465.140068,186.099114 465.140068,190.0773 466.597447,192.489543 C469.258748,197.244943 476.413154,198.286986 476.868225,204.8271 C477.156244,208.8974 475.652782,210.6706 474.800244,213.082843 C470.831335,224.7353 465.042142,224.7353 454.172284,229.600086 C450.237936,236.698643 453.014445,244.620471 443.884225,248.074757 C433.826582,251.8169 418.699795,245.052257 419.154866,233.612814 C434.483267,233.929457 446.31511,225.6622 448.002905,215.109357 C448.642308,211.338429 445.145751,210.169729 443.884225,206.9227 C440.013242,196.542571 443.198738,182.351214 445.900362,175.955029 C449.25867,168.401657 459.028293,164.417714 458.285203,153.294914 C445.266719,145.229157 437.824293,162.586943 425.341526,161.493086 C411.228567,160.364686 406.568411,148.009857 404.782689,128.516171 C391.522269,118.038171 377.057927,112.545857 367.570562,122.419357 C357.409232,132.983714 334.25822,150.364529 342.898807,165.667014 C349.258279,171.792614 363.181144,163.571414 367.570562,167.722314 C364.269858,175.540514 369.027941,184.0323 367.570562,190.382429 C367.09821,192.679529 362.651188,196.053214 361.453027,198.638171 C359.465692,202.679686 361.908098,210.319414 355.220284,208.978 C345.548587,208.338957 343.077379,200.463186 338.722523,194.544843 C324.292743,192.489543 315.064597,185.247057 307.823785,175.955029 C287.650895,175.788071 269.816724,177.843371 252.207208,180.111686 C247.863873,176.127743 244.350034,171.4587 241.850024,165.672771 C234.453682,164.918586 232.667961,156.967971 227.408724,153.300671 C223.180597,150.370286 214.937477,148.977057 208.860264,145.114014 C208.007726,144.474971 207.760029,141.7173 206.780763,140.905543 C205.12177,139.615943 202.207012,140.036214 200.594103,138.867514 C199.609076,138.245743 199.609076,135.528371 198.589487,134.779943 C196.677037,133.352171 194.033017,134.198471 192.408587,132.718886 C188.197741,128.890386 187.195433,123.565029 184.188509,120.352543 C179.447707,115.435943 176.676958,113.904543 169.758729,112.160129 C157.731032,109.045514 147.615785,113.985143 140.858846,116.253457 C136.930259,117.5776 131.601897,116.880986 128.491286,118.291486 C120.576509,121.791829 114.689389,129.443071 105.806866,132.724643 C98.5775746,135.361414 90.2480489,131.268086 85.2192274,138.873271 C83.093643,154.066371 91.5786993,169.541571 85.2192274,182.126686 C78.4046846,182.9442 75.1327824,174.112743 66.6189242,173.940029 C64.8274425,173.888214 59.401154,176.749514 56.2905428,178.021843 C43.6119218,183.352957 44.3204499,191.355386 46.0485672,204.838614 C49.7467384,212.864071 66.8493399,207.389029 68.6869046,217.193443 C65.0751394,231.298443 49.1303765,223.4054 39.890709,227.527514 C38.3642054,228.166557 34.9079707,232.841357 31.6072665,235.708414 C27.9206161,238.9612 22.661379,241.736143 21.2788851,243.964157 C17.7074425,250.037943 14.4758631,263.601771 15.1498289,268.685329 C16.3076675,278.034929 29.5565672,280.475957 27.4713056,295.496343 C32.7305428,299.238486 41.613066,299.238486 41.8838044,307.805114 C35.3803227,326.665514 11.2270024,327.995414 0.714288509,342.843086 C23.6060831,343.073371 33.0704059,329.981629 50.1730073,324.368414 C58.3873252,322.267057 56.3423863,330.436443 64.6315892,328.409929 C76.8148166,322.094343 70.9334572,300.867757 83.1051638,297.522857 C94.4819364,306.279471 115.207824,299.480286 124.338044,293.343171 C128.508567,295.951157 132.621487,299.992671 138.819667,303.752086 C143.589271,306.532786 151.152665,308.133271 155.317428,312.019343 C157.633105,314.149486 161.803628,324.546886 163.577829,326.429471 C171.607814,334.708243 169.079002,344.0636 171.723022,357.282 C172.322103,359.838171 172.834778,361.893471 173.819804,365.520471 C174.747227,368.802043 175.305985,374.190729 175.876264,375.814243 C178.105535,381.070514 184.430445,385.227171 186.170083,390.178314 C187.206954,393.149 185.363628,398.842814 186.170083,402.613743 C186.936215,405.665029 189.891296,409.355357 190.352127,410.811914 C193.963892,423.028571 190.231159,429.798971 188.266866,439.678229 C191.550289,448.5615 199.349858,453.242057 200.611384,462.395914 C201.158621,465.665971 199.027276,468.9533 198.606768,472.591814 C197.206993,484.900586 196.734641,486.218971 194.51113,493.271471 C190.968489,504.3367 186.066396,511.688571 184.20579,519.984614 C181.383198,532.310657 181.567531,553.992057 184.20579,563.289843 C186.239208,570.866243 188.612489,582.933214 190.352127,588.0801 C194.551452,600.187371 204.37868,600.325543 210.962807,610.699914 C213.963971,615.461071 213.889086,623.693786 217.143707,631.327757 C221.187501,640.527671 231.216342,646.279057 227.420244,660.171043 C236.550465,666.837814 237.990562,681.161586 250.133467,684.915243 C252.092,675.323843 242.143804,666.912657 247.97332,660.171043 C255.715286,662.283914 255.490631,670.482086 258.318983,674.506329 C259.60355,676.291043 263.307482,676.947357 264.563247,678.7148 C265.945741,680.522543 265.219932,682.900243 266.590905,684.909486 C270.634699,690.695414 277.466523,693.902143 278.958465,701.340371 C279.759159,705.180386 276.878963,713.274929 278.958465,717.817314 C284.177379,729.308571 318.987423,746.890886 332.564665,748.773471 C338.734044,749.590986 347.374631,746.913914 353.135022,748.773471 C358.561311,750.396986 363.019853,759.049971 371.792929,763.149057 C379.650103,766.914229 391.430103,766.021871 396.464685,769.251629 C405.894445,775.503886 407.432469,787.167857 412.991247,791.963557 C416.165222,794.830614 421.032753,795.941743 425.353046,798.175514 C436.775902,804.070829 442.225232,809.211957 452.179188,798.175514 L454.183804,798.175514 C458.636587,806.793957 466.027169,813.138329 464.535227,827.0188 C463.671169,834.1116 458.509858,837.439229 454.183804,843.547557 C451.009829,847.963286 443.982152,853.921929 441.816244,859.9842 C438.642269,869.103514 443.037447,872.091471 441.816244,880.565986 C440.946425,886.4613 436.856548,890.848243 437.697565,894.976114 C438.815081,900.560543 449.270191,909.852571 454.183804,917.665014 C459.742582,926.5598 465.209193,938.6095 468.625105,944.447243 C471.695394,949.755329 474.656235,958.385286 476.885506,960.906914 C488.797995,974.528314 507.841848,974.942829 513.982425,991.776714 C522.254347,1014.60954 513.112606,1058.55381 513.982425,1080.4252 C514.33957,1088.03039 516.568841,1095.78526 516.050406,1103.05653 C515.295795,1113.03366 510.353379,1121.99177 509.823423,1131.9286 C509.708215,1135.67074 511.447853,1140.69097 511.954768,1146.36751 C512.478963,1152.95369 511.044626,1160.69704 511.954768,1166.92627 C512.651775,1172.52221 515.67022,1175.86136 516.050406,1181.417 C517.150641,1200.40981 512.352235,1220.6289 516.050406,1237.00221 C517.634513,1244.07199 523.268176,1251.29144 526.326944,1257.63581 C529.984792,1264.86103 532.824665,1271.82717 536.678367,1278.19457 C550.837408,1283.04784 565.226866,1303.30147 584.057584,1290.53213 C585.670494,1283.45084 580.491902,1279.49569 577.876685,1276.09321 C574.103628,1271.17086 570.319051,1269.65673 567.548303,1263.75566 C565.73378,1259.88686 562.968792,1254.40606 563.504509,1247.32477 C563.999902,1237.64126 574.460773,1230.79026 573.786807,1220.51376 C573.193487,1212.72434 564.829399,1209.12037 565.457281,1201.98151 C572.237262,1191.52654 578.6889,1180.82977 577.876685,1162.82719 C587.876724,1161.84271 586.488469,1149.43031 592.329506,1144.29494 C600.77424,1141.12276 611.212068,1139.908 617.047345,1134.00693 C619.489751,1128.22676 619.374543,1119.74073 619.149888,1111.30076 C624.05198,1108.74459 631.615374,1108.65823 635.601565,1105.14061 C643.170719,1099.1647 643.170719,1089.78056 647.969125,1082.51504 C650.497936,1078.60019 655.820538,1075.80221 658.280225,1072.14643 C661.183462,1067.96099 665.054445,1061.83539 666.569428,1057.79387 C670.549858,1046.59623 665.296381,1041.39177 670.607462,1033.04967 C672.565995,1029.93506 676.955413,1029.73931 678.919707,1028.9218 C679.536068,1028.6397 680.181232,1025.26601 680.953125,1024.7709 C682.738846,1023.66553 685.630562,1023.55614 687.122504,1022.73863 C689.541868,1021.39721 690.878279,1019.62401 693.309164,1018.57621 C697.007335,1017.12541 704.455521,1018.41501 709.766601,1014.48289 C720.809271,1006.44591 726.748235,983.526729 728.372665,965.052057 C728.718289,961.010543 726.857682,953.054171 728.372665,948.488757 C729.634191,944.660257 736.748274,937.2796 740.722944,932.0809 C745.734484,925.252929 751.477594,921.631686 753.03866,913.491086 C756.373927,897.037171 748.459149,896.104514 738.683765,888.752643 L738.683765,888.752643 Z"></path>
                                    <path d="M1878.57878,458.1932 C1878.285,462.689529 1880.28961,464.716043 1884.8,464.433943 C1885.15138,459.937614 1883.10644,457.836257 1878.57878,458.1932 L1878.57878,458.1932 Z"></path>
                                    <path d="M1884.8,515.879771 C1897.23092,511.170429 1911.14227,507.911886 1913.66532,493.248443 C1904.74823,489.1436 1896.87378,483.956414 1884.8,482.966186 C1885.37604,494.791357 1875.74467,507.969457 1884.8,515.879771 L1884.8,515.879771 Z"></path>
                                    <path d="M1876.60296,563.266814 C1872.84719,567.895557 1870.56031,572.748829 1866.21122,575.644671 C1855.51417,580.083429 1842.34016,587.049571 1839.44844,598.327814 C1837.3747,606.451143 1834.41386,615.984971 1847.657,618.944143 C1852.6743,614.988986 1851.41853,604.798843 1858.00266,602.455686 C1866.78726,600.469471 1873.73429,595.685286 1880.70436,592.133129 C1888.73435,588.051314 1896.18829,584.769743 1903.37726,579.772543 C1902.08693,556.300671 1909.54664,524.2046 1886.9083,522.062943 C1883.96474,531.9422 1889.36799,542.2187 1886.9083,550.935014 C1885.33572,556.185529 1879.57533,559.524671 1876.60296,563.266814 L1876.60296,563.266814 Z"></path>
                                    <path d="M1035.48792,563.266814 C1032.42339,566.404457 1031.87616,577.389086 1039.61812,575.644671 C1042.8209,572.507029 1043.32205,561.499371 1035.48792,563.266814 L1035.48792,563.266814 Z"></path>
                                    <path d="M1068.58137,594.182671 C1075.56872,595.080786 1080.23464,593.543629 1078.80606,585.955714 C1072.80374,586.157214 1067.19311,586.686871 1068.58137,594.182671 L1068.58137,594.182671 Z"></path>
                                    <path d="M1787.8699,676.5789 C1784.91482,679.566857 1784.91482,690.142729 1787.8699,693.073114 C1796.66025,692.808286 1796.9886,682.957814 1794.10264,676.5789 L1787.8699,676.5789 L1787.8699,676.5789 Z"></path>
                                    <path d="M485.117105,717.800043 C483.100968,706.7636 471.718435,705.105543 460.405027,703.453243 L460.405027,704.921314 C457.605477,703.764129 454.903853,702.526343 452.20223,701.639743 L452.20223,699.273557 C452.484489,695.871086 439.483286,695.871086 439.83467,699.273557 C444.10312,700.424986 445.664186,704.414686 452.20223,703.459 L452.20223,701.743371 L460.405027,704.984643 L460.405027,707.483243 C464.391218,714.518471 473.907384,724.766186 485.117105,717.800043 L485.117105,717.800043 Z"></path>
                                    <path d="M497.473144,730.166386 C505.572254,736.0617 519.431756,734.150329 524.270484,726.038514 C521.874161,716.044114 494.17244,712.3653 497.473144,730.166386 L497.473144,730.166386 Z"></path>
                                    <path d="M1802.36304,726.038514 C1780.24314,725.307357 1791.86185,759.988386 1798.23284,767.288443 C1804.1718,767.4554 1811.7352,766.119743 1814.78821,769.234357 C1806.79854,776.286857 1813.70525,786.753343 1814.78821,794.036129 C1815.5889,799.845086 1814.02783,805.158929 1814.78821,806.390957 C1817.09812,810.910314 1827.97374,817.594357 1831.21684,816.725029 C1843.80906,813.529814 1840.26066,792.573814 1829.13734,785.855229 C1829.47144,780.748643 1829.47144,775.8378 1827.10392,773.454343 C1820.46219,766.315486 1810.30662,761.986114 1806.53356,750.7712 C1803.80314,742.970271 1809.64418,732.981629 1802.36304,726.038514 L1802.36304,726.038514 Z"></path>
                                    <path d="M1752.85824,917.6535 C1753.60133,908.965971 1744.01604,904.003314 1738.47454,903.272157 C1732.63927,902.402829 1727.42611,906.386771 1722.01711,905.373514 C1719.07355,904.642357 1713.918,902.120729 1711.65992,901.1305 C1707.92143,899.645157 1702.31657,899.230643 1701.38914,894.9646 C1701.44675,888.1942 1704.86266,884.716886 1703.40528,876.403571 C1696.11263,869.598629 1692.20708,867.859971 1689.0043,859.972686 C1684.7877,849.748 1686.76927,828.199014 1682.85221,820.875929 C1679.28076,814.197643 1668.63556,811.756614 1664.2519,806.3852 C1661.91894,803.598743 1661.42355,798.071886 1660.1505,796.102943 C1657.63321,792.119 1656.33712,792.291714 1653.95232,787.904771 C1653.42237,786.223686 1652.23573,785.406171 1649.84516,785.849471 C1640.31748,805.970686 1669.71851,813.092271 1660.1505,833.253786 C1649.46498,830.870329 1647.37972,819.833886 1633.3474,820.875929 C1628.93494,831.566943 1642.22417,837.755871 1647.78294,845.533771 C1648.41083,846.460671 1647.25299,848.648386 1647.78294,849.632857 C1648.01336,850.329471 1651.36591,850.957 1651.86706,851.630586 C1652.50646,852.620814 1651.41199,854.837314 1651.86706,855.844814 C1652.23573,856.570214 1655.52491,857.065329 1655.97998,857.940414 C1659.11363,863.311829 1661.81526,874.002843 1664.25766,876.403571 C1671.17013,883.646057 1680.20243,892.7078 1686.9536,897.037171 C1689.59762,898.8334 1694.28082,899.063686 1697.29927,901.1305 C1702.78316,905.189286 1704.51704,911.470329 1709.64378,913.491086 C1711.97098,914.446771 1718.61847,912.449043 1724.02748,913.491086 C1727.81206,914.279814 1731.21645,917.302314 1734.32706,917.6535 C1740.99759,918.407686 1746.22803,917.060514 1752.85824,917.6535 L1752.85824,917.6535 Z"></path>
                                    <path d="M1769.3848,812.568371 C1755.25456,826.621557 1741.81557,841.377114 1722.01134,849.632857 C1715.05279,874.877929 1743.01949,890.940357 1767.28226,884.716886 C1771.75232,874.0086 1781.67748,862.045257 1783.81458,851.630586 C1784.86873,846.466429 1781.33761,841.152586 1781.71204,835.251514 C1782.13831,828.602014 1787.81229,825.614057 1785.84224,818.722757 C1781.11872,815.965086 1779.01618,810.478529 1769.3848,812.568371 L1769.3848,812.568371 Z"></path>
                                </g>
                            </g>
                        </g>
                    </g>
                    <text id="GDG-Cloud-Vancouver" font-family="ProductSans-Regular, Product Sans" font-size="205.199997" font-weight="normal" fill="#4A4A4A">
                        <tspan x="336" y="274">GDG Cloud Vancouver</tspan>
                    </text>
                </g>
                <g id="Group-2-Copy-2" transform="translate(0.000000, 2.398810)">
                    <g id="Group-3" transform="translate(380.268583, 0.000000)">
                        <g id="separate">
                            <g id="Group">
                                <path d="M142.48758,248.685911 L53.6173673,396.091971 L98.4999224,396.091971 C109.129699,396.091971 122.317965,388.651213 127.802081,379.514947 L165.611504,316.689515 C170.074519,307.490241 169.919632,294.080837 164.819864,285.586115 L142.48758,248.685911 L142.48758,248.685911 Z" id="Shape" fill="url(#radialGradient-3)"></path>
                                <path d="M101.867261,181.541517 C107.345641,190.637686 107.345641,205.547843 101.867261,214.684109 L2.0460265,381.336472 C-1.80891689,389.567704 2.19517609,396.091971 12.1021511,396.091971 L53.6116308,396.091971 L142.481843,248.685911 L101.867261,181.541517 L101.867261,181.541517 Z" id="Shape" fill="url(#radialGradient-4)"></path>
                                <path d="M12.1021511,0.0992864839 C1.44369159,0.0992864839 -2.79559882,7.57441311 2.68851706,16.6763106 L164.819864,285.597571 C169.919632,294.086565 170.074519,307.495969 165.611504,316.700971 L205.021416,251.20626 L53.6345769,0.0992864839 L12.1021511,0.0992864839 L12.1021511,0.0992864839 Z" id="Shape" fill="url(#radialGradient-5)"></path>
                                <path d="M226.969353,181.541517 L127.802081,16.6705825 C122.317965,7.56868504 109.123963,0.0935584175 98.4999224,0.0935584175 L53.6403134,0.0935584175 L205.027153,251.200532 L226.975089,214.684109 C232.453468,205.553571 232.453468,190.637686 226.969353,181.541517 L226.969353,181.541517 Z" id="Shape" fill="url(#radialGradient-6)"></path>
                                <path d="M164.819864,285.591843 L101.867261,181.541517 C107.345641,190.637686 107.345641,205.547843 101.867261,214.684109 L79.7070734,251.538488 L165.61724,316.695243 C170.074519,307.495969 169.919632,294.086565 164.819864,285.591843 L164.819864,285.591843 Z" id="Shape" fill="url(#linearGradient-7)"></path>
                            </g>
                            <path d="M226.969353,181.538278 L127.802081,16.6702866 C122.317965,7.5685516 109.123963,0.0935584175 98.4999224,0.0935584175 L53.6403134,0.0935584175 L12.1078877,0.0935584175 C1.44942812,0.0935584175 -2.7898623,7.5685516 2.69425359,16.6702866 L101.867261,181.538278 C107.345641,190.634285 107.345641,205.544176 101.867261,214.680278 L2.0460265,381.329667 C-1.80891689,389.560751 2.19517609,396.084902 12.1021511,396.084902 L53.6116308,396.084902 L98.4941859,396.084902 C109.123963,396.084902 122.312229,388.644277 127.796345,379.508174 L205.015679,251.19605 L226.963616,214.680278 C232.453468,205.549904 232.453468,190.634285 226.969353,181.538278 L226.969353,181.538278 Z" id="Shape" fill="url(#radialGradient-8)"></path>
                        </g>
                    </g>
                    <g id="Google-Cloud-Platform" transform="translate(0.000000, 2.011123)">
                        <path d="M287.880389,312.704734 L242.971623,390.739448 L125.360427,390.739448 C114.868473,390.737503 105.179448,385.124411 99.9618997,376.025453 L4.83016182,210.229742 C-0.334341231,201.21517 -0.334341231,190.140283 4.83016182,181.125711 L41.0314931,118.054509 L85.7160904,195.665008 L153.079241,312.704734 L287.880389,312.704734 Z" id="Shape" fill="#FBBC05"></path>
                        <path d="M436.154168,210.229368 L341.02243,376.050143 C335.80945,385.153643 326.117529,390.768413 315.623903,390.764138 L242.946548,390.764138 L287.855315,312.729424 L355.26824,195.665008 L287.855315,78.6252812 L377.323684,78.6252812 L436.129094,181.125337 C441.338826,190.125429 441.348385,201.22032 436.154168,210.229368 L436.154168,210.229368 Z" id="Shape" fill="#EA4335"></path>
                        <path d="M377.348383,78.6252812 L153.079241,78.6252812 L85.7160904,195.665008 L41.0318673,118.029445 L99.962274,15.3049363 C105.175092,6.20140793 114.866857,0.586503538 125.360427,0.590566897 L315.648977,0.590566897 C326.13924,0.598793713 335.825345,6.21019366 341.047504,15.3045622 L377.348383,78.6252812 Z" id="Shape" fill="#4285F4"></path>
                        <polyline id="Shape" fill="#E0E0E0" points="287.880389 78.6252812 355.24354 195.665008 287.855315 312.704734 153.103941 312.704734 85.7160904 195.665008 153.079241 78.6252812 287.880389 78.6252812"></polyline>
                        <ellipse id="Oval" fill="#FFFFFF" cx="220.492165" cy="195.665008" rx="58.5561669" ry="58.5323952"></ellipse>
                        <path d="M99.9618997,17.723788 C105.17488,8.62028758 114.866801,3.00551833 125.360427,3.00979267 L315.648977,3.00979267 C326.13924,3.01801949 335.825345,8.62941944 341.047504,17.723788 L375.976421,78.6252812 L377.373457,78.6252812 L341.04713,15.3049363 C335.83415,6.20143589 326.142229,0.586666636 315.648603,0.590940985 L125.360427,0.590940985 C114.868473,0.592886906 105.179448,6.20597881 99.9618997,15.3049363 L41.0314931,118.029445 L41.7301986,119.25159 L99.9618997,17.723788 Z" id="Shape" fill="#FFFFFF" opacity="0.2"></path>
                        <polyline id="Shape" fill-opacity="0.2" fill="#1A237E" points="85.7172131 195.665008 153.080363 78.6241589 377.347261 78.6241589 375.951347 76.1813656 153.080363 76.1813656 85.7172131 193.222214"></polyline>
                        <path d="M4.83016182,183.544563 L41.0314931,120.448297 L85.7157162,198.083859 L153.078867,315.123586 L286.457904,315.123586 L287.880015,312.67967 L153.078867,312.67967 L85.7157162,195.665008 L41.0314931,118.029445 L4.83016182,181.100648 C2.10296768,185.901288 0.780272938,191.371392 1.01291663,196.887153 C1.20109371,192.198721 2.51002667,187.623548 4.83016182,183.544563 L4.83016182,183.544563 Z" id="Shape" fill="#FFFFFF" opacity="0.2"></path>
                        <g id="Group" opacity="0.2" transform="translate(0.690728, 193.924130)" fill="#BF360C">
                            <path d="M243.677932,194.371029 L124.669699,194.371029 C114.177746,194.369083 104.488721,188.755991 99.2711721,179.657034 L4.13943413,13.8613226 C1.81929898,9.78233754 0.510366021,5.20716509 0.322188946,0.518733132 C0.0681541363,6.03656494 1.39226413,11.5125215 4.13943413,16.3052381 L99.2711721,182.126013 C104.484153,191.229514 114.176073,196.844283 124.669699,196.840009 L242.280895,196.840009 L243.677932,194.371029 Z" id="Shape"></path>
                        </g>
                        <g id="Group" opacity="0.2" transform="translate(242.946548, 77.956913)" fill="#3E2723">
                            <polygon id="Shape" points="113.694028 117.708095 46.3308779 0.667245987 44.9349637 0.667245987 112.320568 117.708095"></polygon>
                            <path d="M193.20762,129.828539 L98.0758818,295.649315 C92.8629013,304.752815 83.1709809,310.367584 72.6773545,310.36331 L1.42211095,310.36331 L0,312.807225 L72.6773545,312.807225 C83.1676175,312.798999 92.8537219,307.187599 98.0758818,298.09323 L193.20762,132.272455 C195.943479,127.475246 197.266785,122.002614 197.024865,116.48595 C196.836688,121.174382 195.527755,125.749554 193.20762,129.828539 L193.20762,129.828539 Z" id="Shape"></path>
                        </g>
                        <g id="Group" opacity="0.2" transform="translate(242.946548, 77.956913)" fill="#FFFFFF">
                            <path d="M134.401835,3.08759403 L193.207246,105.58765 C195.527381,109.666635 196.836314,114.241808 197.024491,118.93024 C197.278526,113.412408 195.954416,107.936451 193.207246,103.143735 L134.401835,0.643678455 L44.933841,0.643678455 L46.3559519,3.08759403" id="Shape"></path>
                            <polygon id="Shape" points="44.9349637 237.191737 113.694028 117.708095 112.320568 117.708095 44.9349637 234.748944 0.0261967807 312.783658 1.42211095 312.783658"></polygon>
                        </g>
                        <path d="M436.154168,181.100648 L377.348758,78.6005914 L341.02243,15.2798724 C335.80945,6.17637201 326.117529,0.561602754 315.623903,0.565877102 L125.360427,0.565877102 C114.868473,0.567823024 105.179448,6.18091493 99.9618997,15.2798724 L4.83016182,181.100648 C-0.334341231,190.115219 -0.334341231,201.190106 4.83016182,210.204678 L99.9618997,376.025453 C105.17488,385.128954 114.866801,390.743723 125.360427,390.739448 L315.648977,390.739448 C326.13924,390.731222 335.825345,385.119822 341.047504,376.025453 L436.179242,210.204678 C441.348409,201.188959 441.338862,190.107454 436.154168,181.100648 L436.154168,181.100648 Z" id="Shape" fill="url(#radialGradient-9)"></path>
                    </g>
                </g>
            </g>
        </g>
    </g>
</svg>