<?xml version="1.0" encoding="UTF-8"?>
<svg width="1076px" height="1076px" viewBox="0 0 1076 1076" version="1.1" xmlns="http://www.w3.org/2000/svg" xmlns:xlink="http://www.w3.org/1999/xlink">
    <!-- Generator: Sketch 3.7.2 (28276) - http://www.bohemiancoding.com/sketch -->
    <title>gdgcv_logo_square_bot</title>
    <desc>Created with Sketch.</desc>
    <defs>
        <radialGradient cx="6.59649984%" cy="2.14172508%" fx="6.59649984%" fy="2.14172508%" r="137.109246%" id="radialGradient-1">
            <stop stop-color="#577EC0" offset="0%"></stop>
            <stop stop-color="#557EBF" offset="100%"></stop>
        </radialGradient>
        <path d="M1080,958.512 C1080,1025.328 1025.328,1080 958.512,1080 L121.488,1080 C54.672,1080 0,1025.328 0,958.512 L0,121.488 C0,54.672 54.672,0 121.488,0 L958.512,0 C1025.328,0 1080,54.672 1080,121.488 L1080,958.512 L1080,958.512 Z" id="path-2"></path>
        <radialGradient cx="50.0006826%" cy="49.9997318%" fx="50.0006826%" fy="49.9997318%" r="64.1609104%" id="radialGradient-4">
            <stop stop-color="#DEDEDE" offset="0%"></stop>
            <stop stop-color="#D1D1D1" offset="100%"></stop>
        </radialGradient>
        <radialGradient cx="49.9993505%" cy="49.9988543%" fx="49.9993505%" fy="49.9988543%" r="61.3220108%" id="radialGradient-5">
            <stop stop-color="#DEDEDE" offset="0%"></stop>
            <stop stop-color="#D1D1D1" offset="100%"></stop>
        </radialGradient>
        <linearGradient x1="122.536784%" y1="50%" x2="-2.69925607%" y2="50%" id="linearGradient-6">
            <stop stop-color="#231F20" stop-opacity="0.2" offset="0%"></stop>
            <stop stop-color="#F2F2F2" stop-opacity="0.25" offset="100%"></stop>
        </linearGradient>
        <radialGradient cx="50.0001888%" cy="49.9998547%" fx="50.0001888%" fy="49.9998547%" r="70.2900058%" id="radialGradient-7">
            <stop stop-color="#FFFFFF" stop-opacity="0.1" offset="0%"></stop>
            <stop stop-color="#FFFFFF" stop-opacity="0.091" offset="8.96%"></stop>
            <stop stop-color="#FFFFFF" stop-opacity="0" offset="100%"></stop>
        </radialGradient>
        <radialGradient cx="14.3780526%" cy="6.75293597%" fx="14.3780526%" fy="6.75293597%" r="76.9741617%" id="radialGradient-8">
            <stop stop-color="#FFFFFF" stop-opacity="0.1" offset="0%"></stop>
            <stop stop-color="#FFFFFF" stop-opacity="0" offset="100%"></stop>
        </radialGradient>
    </defs>
    <g id="branding_svg" stroke="none" stroke-width="1" fill="none" fill-rule="evenodd">
        <g id="square_logo" transform="translate(-4045.000000, -203.000000)">
            <g id="gdgcv_logo_square_bot" transform="translate(4045.250000, 203.000000)">
                <g id="gdg_newdelhi_logo_bot">
                    <g id="logo_square_offcolor">
                        <path d="M1075.152,954.216 C1075.152,1020.732 1020.732,1075.152 954.216,1075.152 L120.936,1075.152 C54.42,1075.152 0,1020.732 0,954.216 L0,120.936 C0,54.42 54.42,0 120.936,0 L954.204,0 C1020.72,0 1075.14,54.42 1075.14,120.936 L1075.14,954.216 L1075.152,954.216 Z" id="Shape" fill="url(#radialGradient-1)"></path>
                        <g id="backgroundImage-Clipped" transform="translate(9.000000, 8.000000)">
                            <mask id="mask-3" fill="white">
                                <use xlink:href="#path-2"></use>
                            </mask>
                            <g id="SVGID_A_-Copy"></g>
                        </g>
                        <g id="Group-6" transform="translate(312.000000, 224.000000)">
                            <g id="Group-2">
                                <path d="M237,488.745644 C315.534891,488.745644 379.2,408.40319 379.2,309.295751 C379.2,210.188312 315.534891,129.845858 237,129.845858 C158.465109,129.845858 94.8,210.188312 94.8,309.295751 C94.8,408.40319 158.465109,488.745644 237,488.745644 Z" id="Oval-1" fill="#F6B923"></path>
                                <path d="M290.58096,250.506215 C290.58096,237.925756 300.682265,227.733586 313.165237,227.733586 C325.614665,227.733586 335.723262,237.925756 335.723262,250.506215 C335.723262,263.082297 325.614665,273.281762 313.165237,273.281762 C300.680806,273.275926 290.58096,263.076461 290.58096,250.506215 L290.58096,250.506215 Z M220.331243,56.510668 L220.14456,56.510668 L220.14456,87.7261958 L248.787286,87.7261958 L248.787286,57.4239658 C258.643569,52.4256298 265.476462,42.2538846 265.476462,30.3649644 C265.476462,13.5900468 252.011945,0 235.381108,0 C218.756105,0 205.277003,13.5900468 205.277003,30.3649644 C205.271169,41.588607 211.363163,51.2613939 220.331243,56.510668 L220.331243,56.510668 Z M157.656775,273.275926 C170.110578,273.275926 180.217717,263.076461 180.217717,250.496003 C180.217717,237.919921 170.10912,227.726291 157.656775,227.726291 C145.173803,227.726291 135.072498,237.919921 135.072498,250.496003 C135.072498,263.076461 145.173803,273.275926 157.656775,273.275926 L157.656775,273.275926 Z M235.381108,627.51731 C269.357428,627.51731 298.237883,605.716337 309.202597,575.224444 L161.553785,575.224444 C172.522874,605.714878 201.394578,627.51731 235.381108,627.51731 L235.381108,627.51731 Z M0,534.99703 C0,522.944709 7.01082462,512.622692 17.0990031,507.720647 L17.0990031,378.608637 C17.0990031,353.1428 36.7532308,332.348497 61.60104,330.699892 L61.60104,268.220692 C61.60104,268.220692 67.6463631,154.350251 161.555243,118.930052 C189.449778,108.413996 214.917434,104.16118 236.983957,103.36168 C259.066523,104.16118 284.535637,108.413996 312.402462,118.924216 C406.328843,154.344415 412.381458,268.214856 412.381458,268.214856 L412.381458,330.688221 C437.211766,332.342661 456.870369,353.144259 456.870369,378.602801 L456.870369,507.722106 C466.957089,512.624151 473.969372,522.953462 473.969372,534.998489 C473.969372,551.761735 460.491729,565.353241 443.869643,565.353241 C427.247557,565.353241 413.769914,551.763194 413.769914,534.998489 C413.769914,522.946168 420.788031,512.624151 430.854332,507.722106 L430.854332,421.411084 C425.259674,424.29833 418.982455,426.041766 412.387292,426.491121 L412.387292,456.489891 C412.557932,458.914652 412.754825,461.318989 412.754825,463.803568 C412.754825,466.432582 412.585643,469.032417 412.387292,471.633711 L412.387292,472.328167 L412.355206,472.328167 C408.345895,522.307151 369.581446,562.343443 320.448794,567.804264 L320.489631,568.48559 L236.983957,568.48559 L153.468074,568.48559 L153.523495,567.804264 C104.392302,562.343443 65.6380615,522.305692 61.6287508,472.328167 L61.60104,472.328167 L61.60104,471.633711 C61.4143569,469.032417 61.2335077,466.432582 61.2335077,463.803568 C61.2335077,461.324825 61.4201908,458.914652 61.60104,456.489891 L61.60104,426.495497 C54.9810831,426.040307 48.7053231,424.310002 43.1106646,421.409625 L43.1106646,507.735236 C53.1944677,512.637282 60.2096677,522.960757 60.2096677,534.998489 C60.2096677,551.776325 46.7349415,565.360536 30.1026462,565.360536 C13.4863938,565.357618 0,551.774866 0,534.99703 L0,534.99703 Z M287.217748,376.197005 C287.217748,368.13635 280.737803,361.58424 272.732308,361.58424 C264.713686,361.58424 258.233742,368.127596 258.233742,376.197005 C258.233742,384.272251 264.713686,390.822901 272.732308,390.822901 C280.737803,390.822901 287.217748,384.272251 287.217748,376.197005 L287.217748,376.197005 Z M322.884425,376.197005 C322.884425,368.13635 316.40448,361.58424 308.398985,361.58424 C300.393489,361.58424 293.901877,368.127596 293.901877,376.197005 C293.901877,384.272251 300.394948,390.822901 308.398985,390.822901 C316.403022,390.822901 322.884425,384.272251 322.884425,376.197005 L322.884425,376.197005 Z M358.565686,376.197005 C358.565686,368.13635 352.085742,361.58424 344.080246,361.58424 C336.061625,361.58424 329.583138,368.127596 329.583138,376.197005 C329.583138,384.272251 336.061625,390.822901 344.080246,390.822901 C352.085742,390.822901 358.565686,384.272251 358.565686,376.197005 L358.565686,376.197005 Z M115.006985,254.724017 C115.006985,293.51875 145.109631,296.05585 145.109631,296.05585 C155.58576,299.395369 177.723748,297.738011 187.740462,296.05585 C196.959397,294.486028 230.786954,291.537506 236.173052,291.057514 C236.378695,291.077939 236.703932,291.112954 236.976665,291.124626 C237.262523,291.111495 237.583385,291.077939 237.772985,291.057514 C243.164917,291.530211 276.980806,294.486028 286.209951,296.05585 C296.244166,297.738011 318.366111,299.395369 328.848074,296.05585 C328.848074,296.05585 358.940511,293.526044 358.940511,254.724017 C358.940511,254.724017 358.940511,211.705647 328.848074,185.558484 C299.659883,160.199151 255.790818,154.697479 238.575138,154.370676 L238.575138,154.342957 C238.330117,154.342957 238.031132,154.363382 237.771526,154.363382 C237.520671,154.363382 237.207102,154.342957 236.975206,154.342957 C236.730185,154.342957 236.423908,154.363382 236.171594,154.363382 C235.916363,154.363382 235.610086,154.342957 235.372357,154.342957 L235.372357,154.370676 C218.174178,154.697479 174.291988,160.199151 145.108172,185.558484 C115.006985,211.705647 115.006985,254.724017 115.006985,254.724017 L115.006985,254.724017 Z" id="Robot" fill="#1E2C54"></path>
                            </g>
                            <ellipse id="Oval-2" fill="#1E2C54" cx="318.558704" cy="378.976555" rx="73.562753" ry="31.3679918"></ellipse>
                            <g id="Group-3" transform="translate(151.603239, 353.370031)">
                                <ellipse id="Oval-3" fill="#D0011B" cx="81.5587045" cy="75.2191641" rx="66.8461538" ry="66.8970438"></ellipse>
                                <ellipse id="Oval-3-Copy" stroke="#76224E" stroke-width="1.28" opacity="0.870802239" cx="88.9149798" cy="74.2589195" rx="74.2024291" ry="74.2589195"></ellipse>
                                <path d="M88.9149798,156.839959 C129.89585,156.839959 163.117409,123.593109 163.117409,82.5810398 C163.117409,41.568971 129.89585,8.32212029 88.9149798,8.32212029 C47.9341097,8.32212029 14.7125506,41.568971 14.7125506,82.5810398 C14.7125506,123.593109 47.9341097,156.839959 88.9149798,156.839959 Z" id="Oval-3-Copy-2" stroke="#76224E" stroke-width="1.28" opacity="0.870802239"></path>
                                <ellipse id="Oval-3-Copy-3" stroke="#76224E" stroke-width="1.28" opacity="0.870802239" cx="81.8785425" cy="82.5810398" rx="74.2024291" ry="74.2589195"></ellipse>
                                <ellipse id="Oval-3-Copy-4" stroke="#76224E" stroke-width="1.28" opacity="0.870802239" cx="74.2024291" cy="75.5392457" rx="74.2024291" ry="74.2589195"></ellipse>
                                <ellipse id="Oval-3-Copy-5" stroke="#76224E" stroke-width="1.28" opacity="0.870802239" cx="74.2024291" cy="74.2589195" rx="74.2024291" ry="74.2589195"></ellipse>
                            </g>
                        </g>
                    </g>
                </g>
                <g id="Group-7" transform="translate(506.000000, 631.000000)">
                    <g id="Group-4" transform="translate(47.946806, 0.120482)">
                        <g id="Group">
                            <path d="M17.8513909,31.2698795 L6.70411995,49.7896386 L12.3341351,49.7896386 C13.6670081,49.7896386 15.3215343,48.8549398 16.0089325,47.706988 L20.7520522,39.8144578 C21.310789,38.6571084 21.2927186,36.973494 20.6515807,35.906506 L17.8513909,31.2698795 L17.8513909,31.2698795 Z" id="Shape" fill="#FFFFFF"></path>
                            <path d="M12.7562597,22.8344578 C13.4436579,23.9773494 13.4436579,25.8510843 12.7562597,26.9990361 L0.23563807,47.9354217 C-0.248648761,48.9698795 0.253708475,49.7896386 1.49622947,49.7896386 L6.70411995,49.7896386 L17.8513909,31.2698795 L12.7562597,22.8344578 L12.7562597,22.8344578 Z" id="Shape" fill="url(#radialGradient-4)"></path>
                            <path d="M1.49622947,0.0387951807 C0.159019557,0.0387951807 -0.37152751,0.977831325 0.315870665,2.12144578 L20.6523035,35.906506 C21.2934415,36.9742169 21.3115119,38.6578313 20.752775,39.8144578 L25.6968375,31.5850602 L6.70773403,0.0380722892 L1.49622947,0.0380722892 L1.49622947,0.0387951807 Z" id="Shape" fill="#FFFFFF"></path>
                            <path d="M28.4493215,22.8344578 L16.0089325,2.12144578 C15.3215343,0.977831325 13.6670081,0.0387951807 12.3341351,0.0387951807 L6.70701121,0.0387951807 L25.6961147,31.5857831 L28.4493215,26.9990361 C29.1374425,25.8510843 29.1374425,23.9773494 28.4493215,22.8344578 L28.4493215,22.8344578 Z" id="Shape" fill="url(#radialGradient-5)"></path>
                            <path d="M20.6523035,35.906506 L12.7562597,22.8344578 C13.4436579,23.9773494 13.4436579,25.8510843 12.7562597,26.9990361 L9.97630874,31.6284337 L20.752775,39.8144578 C21.3115119,38.6578313 21.2934415,36.973494 20.6523035,35.906506 L20.6523035,35.906506 Z" id="Shape" fill="url(#linearGradient-6)"></path>
                        </g>
                        <path d="M28.4493215,22.8344578 L16.0089325,2.12144578 C15.3215343,0.977831325 13.6670081,0.0387951807 12.3341351,0.0387951807 L6.70701121,0.0387951807 L1.49622947,0.0387951807 C0.159019557,0.0387951807 -0.37152751,0.977831325 0.315870665,2.12144578 L12.7562597,22.8344578 C13.4436579,23.9773494 13.4436579,25.8510843 12.7562597,26.9990361 L0.23563807,47.9354217 C-0.248648761,48.9698795 0.253708475,49.7896386 1.49622947,49.7896386 L6.70411995,49.7896386 L12.3341351,49.7896386 C13.6670081,49.7896386 15.3215343,48.8549398 16.0089325,47.706988 L25.6961147,31.5850602 L28.4493215,26.9983133 C29.1374425,25.8510843 29.1374425,23.9773494 28.4493215,22.8344578 L28.4493215,22.8344578 Z" id="Shape" fill="url(#radialGradient-7)"></path>
                    </g>
                    <g id="Group-2-Copy">
                        <g id="Google-Cloud-Platform" transform="translate(0.000000, 0.113672)">
                            <path d="M36.6548769,39.8238726 L30.9321079,49.7618242 L15.9447958,49.7618242 C14.6077957,49.7615764 13.3731135,49.0467325 12.7082361,47.8879534 L0.585503772,26.7733793 C-0.0726140089,25.6253469 -0.0726140089,24.2149273 0.585503772,23.0668949 L5.19867556,15.0345908 L10.8928784,24.9185173 L19.4770319,39.8238726 L36.6548769,39.8238726 Z" id="Shape" fill="#9B9B9B"></path>
                            <path d="M55.5495526,26.7733317 L43.4268203,47.8910977 C42.7625249,49.0504554 41.5274739,49.7655129 40.1902606,49.7649685 L30.9289127,49.7649685 L36.6516817,39.8270169 L45.242178,24.9185173 L36.6516817,10.0131621 L48.0527252,10.0131621 L55.5463574,23.0668473 C56.2102388,24.2130356 56.2114569,25.6260028 55.5495526,26.7733317 L55.5495526,26.7733317 Z" id="Shape" fill="#EDEDED"></path>
                            <path d="M48.0558727,10.0131621 L19.4770319,10.0131621 L10.8928784,24.9185173 L5.19872325,15.0313988 L12.7082838,1.94912889 C13.3725585,0.789767637 14.6075897,0.0746929598 15.9447958,0.0752104406 L40.1934558,0.0752104406 C41.5302405,0.07625815 42.7645504,0.790886526 43.4300155,1.94908125 L48.0558727,10.0131621 Z" id="Shape" fill="#4B4B4B"></path>
                            <polyline id="Shape" fill="#E0E0E0" points="36.6548769 10.0131621 45.2390304 24.9185173 36.6516817 39.8238726 19.4801795 39.8238726 10.8928784 24.9185173 19.4770319 10.0131621 36.6548769 10.0131621"></polyline>
                            <ellipse id="Oval" fill="#FFFFFF" cx="28.0675282" cy="24.9185173" rx="7.46187083" ry="7.45427361"></ellipse>
                            <path d="M12.7082361,2.25717681 C13.3725315,1.09781911 14.6075825,0.382761646 15.9447958,0.383305997 L40.1934558,0.383305997 C41.5302405,0.384353707 42.7645504,1.09898208 43.4300155,2.25717681 L47.8810421,10.0131621 L48.059068,10.0131621 L43.4299678,1.94912889 C42.7656725,0.789771198 41.5306214,0.0747137309 40.1934081,0.0752580818 L15.9447958,0.0752580818 C14.6077957,0.0755059007 13.3731135,0.790349753 12.7082361,1.94912889 L5.19867556,15.0313988 L5.28771231,15.1870426 L12.7082361,2.25717681 Z" id="Shape" fill="#4B4B4B" opacity="0.2"></path>
                            <polyline id="Shape" fill-opacity="0.2" fill="#1A237E" points="10.8930215 24.9185173 19.477175 10.0130191 48.0557297 10.0130191 47.8778469 9.70192218 19.477175 9.70192218 10.8930215 24.6074204"></polyline>
                            <path d="M0.585503772,23.3749429 L5.19867556,15.3394468 L10.8928307,25.2265652 L19.4769843,40.1319205 L36.4736082,40.1319205 L36.6548292,39.8206806 L19.4769843,39.8206806 L10.8928307,24.9185173 L5.19867556,15.0313988 L0.585503772,23.063703 C0.237974699,23.6750787 0.0694223877,24.3717126 0.0990684063,25.0741611 C0.123047999,24.4770754 0.289846633,23.8944137 0.585503772,23.3749429 L0.585503772,23.3749429 Z" id="Shape" fill="#FFFFFF" opacity="0.2"></path>
                            <g id="Group" opacity="0.2" transform="translate(0.073016, 24.727006)" fill="#5C5A5A">
                                <path d="M31.0371179,24.7235309 L15.87178,24.7235309 C14.5347798,24.7232831 13.3000977,24.0084393 12.6352203,22.8496601 L0.512487939,1.73508605 C0.216830799,1.21561524 0.0500321657,0.632953502 0.0260525732,0.0358678274 C-0.00631933633,0.738580024 0.162413322,1.43595929 0.512487939,2.04632592 L12.6352203,23.164092 C13.2995156,24.3234497 14.5345667,25.0385071 15.87178,25.0379628 L30.8590921,25.0379628 L31.0371179,24.7235309 Z" id="Shape"></path>
                            </g>
                            <g id="Group" opacity="0.2" transform="translate(30.928913, 9.958238)" fill="#3E2723">
                                <polygon id="Shape" points="14.4881436 14.9602796 5.90399003 0.0547813786 5.7261073 0.0547813786 14.3131222 14.9602796"></polygon>
                                <path d="M24.6206399,16.503854 L12.4979076,37.6216201 C11.8336122,38.7809778 10.5985611,39.4960352 9.26134785,39.4954909 L0.181221019,39.4954909 L0,39.8067308 L9.26134785,39.8067308 C10.5981325,39.8056831 11.8324425,39.0910547 12.4979076,37.93286 L24.6206399,16.8150939 C24.9692732,16.2041552 25.1379034,15.5071993 25.1070753,14.8046358 C25.0830957,15.4017215 24.9162971,15.9843832 24.6206399,16.503854 L24.6206399,16.503854 Z" id="Shape"></path>
                            </g>
                            <g id="Group" opacity="0.2" transform="translate(30.928913, 9.958238)" fill="#FFFFFF">
                                <path d="M17.12696,0.363019859 L24.6205922,13.4167051 C24.9162494,13.9361759 25.083048,14.5188376 25.1070276,15.1159233 C25.1393995,14.4132111 24.9706668,13.7158319 24.6205922,13.1054652 L17.12696,0.0517799838 L5.72596423,0.0517799838 L5.90718524,0.363019859" id="Shape"></path>
                                <polygon id="Shape" points="5.7261073 30.1768747 14.4881436 14.9602796 14.3131222 14.9602796 5.7261073 29.8657778 0.00333828192 39.8037294 0.181221019 39.8037294"></polygon>
                            </g>
                            <path d="M48.0559204,10.0100177 L43.4268203,1.94593693 C42.7625249,0.786579239 41.5274739,0.0715217713 40.1902606,0.0720661223 L15.9447958,0.0720661223 C14.6077957,0.0723139411 13.3731135,0.787157793 12.7082361,1.94593693 L0.585503772,23.063703 C-0.0726140089,24.2117353 -0.0726140089,25.622155 0.585503772,26.7701873 L12.7082361,47.8879534 C13.3725315,49.0473111 14.6075825,49.7623685 15.9447958,49.7618242 L40.1934558,49.7618242 C41.5302405,49.7607765 42.7645504,49.0461481 43.4300155,47.8879534 L55.5527478,26.7701873 C56.2114599,25.6220089 56.2102433,24.2107464 55.5495526,23.063703 L48.0559204,10.0100177 Z" id="Shape" fill="url(#radialGradient-8)"></path>
                        </g>
                    </g>
                </g>
            </g>
        </g>
    </g>
</svg>