<?xml version="1.0" encoding="UTF-8"?>
<svg width="1272px" height="826px" viewBox="0 0 1272 826" version="1.1" xmlns="http://www.w3.org/2000/svg" xmlns:xlink="http://www.w3.org/1999/xlink">
    <!-- Generator: Sketch 3.7.2 (28276) - http://www.bohemiancoding.com/sketch -->
    <title>gdgcv_logo_no_bg</title>
    <desc>Created with Sketch.</desc>
    <defs>
        <radialGradient cx="-54.1555987%" cy="-174.154426%" fx="-54.1555987%" fy="-174.154426%" r="402.157161%" id="radialGradient-1">
            <stop stop-color="#FFCE4E" offset="0%"></stop>
            <stop stop-color="#F5C337" offset="100%"></stop>
        </radialGradient>
        <radialGradient cx="-6.593919%" cy="-88.3500641%" fx="-6.593919%" fy="-88.3500641%" r="326.488856%" id="radialGradient-2">
            <stop stop-color="#0DA960" offset="0%"></stop>
            <stop stop-color="#05924B" offset="100%"></stop>
        </radialGradient>
        <radialGradient cx="-4.42276749%" cy="-2.56440874%" fx="-4.42276749%" fy="-2.56440874%" r="226.265021%" id="radialGradient-3">
            <stop stop-color="#577EC0" offset="0%"></stop>
            <stop stop-color="#557EBF" offset="100%"></stop>
        </radialGradient>
        <radialGradient cx="-35.1621493%" cy="-3.23098682%" fx="-35.1621493%" fy="-3.23098682%" r="261.057395%" id="radialGradient-4">
            <stop stop-color="#E04B3F" offset="0%"></stop>
            <stop stop-color="#CD382D" offset="100%"></stop>
        </radialGradient>
        <linearGradient x1="122.538745%" y1="50.0008476%" x2="-2.70910562%" y2="50.0008476%" id="linearGradient-5">
            <stop stop-color="#231F20" stop-opacity="0.2" offset="0%"></stop>
            <stop stop-color="#F2F2F2" stop-opacity="0.25" offset="100%"></stop>
        </linearGradient>
        <radialGradient cx="49.9993392%" cy="50.0007232%" fx="49.9993392%" fy="50.0007232%" r="70.2931732%" id="radialGradient-6">
            <stop stop-color="#FFFFFF" stop-opacity="0.1" offset="0%"></stop>
            <stop stop-color="#FFFFFF" stop-opacity="0.091" offset="8.96%"></stop>
            <stop stop-color="#FFFFFF" stop-opacity="0" offset="100%"></stop>
        </radialGradient>
        <radialGradient cx="14.3780526%" cy="6.75293597%" fx="14.3780526%" fy="6.75293597%" r="76.9741617%" id="radialGradient-7">
            <stop stop-color="#FFFFFF" stop-opacity="0.1" offset="0%"></stop>
            <stop stop-color="#FFFFFF" stop-opacity="0" offset="100%"></stop>
        </radialGradient>
    </defs>
    <g id="branding_svg" stroke="none" stroke-width="1" fill="none" fill-rule="evenodd">
        <g id="square_logo" transform="translate(-5294.000000, -335.000000)">
            <g id="gdgcv_logo_no_bg" transform="translate(5293.000000, 335.000000)">
                <g id="Group-3" transform="translate(791.464646, 0.000000)">
                    <g id="separate">
                        <g id="Group">
                            <path d="M296.875874,518.352768 L111.712914,825.601131 L205.226663,825.601131 C227.374027,825.601131 254.852058,810.091859 266.278329,791.048525 L345.055057,660.097253 C354.353842,640.922586 354.031134,612.972465 343.405658,595.266343 L296.875874,518.352768 L296.875874,518.352768 Z" id="Shape" fill="url(#radialGradient-1)"></path>
                            <path d="M212.242585,378.399192 C223.656904,397.358949 223.656904,428.437192 212.242585,447.480525 L4.26293931,794.845253 C-3.76891644,812.002162 4.57369563,825.601131 25.2150868,825.601131 L111.700962,825.601131 L296.863922,518.352768 L212.242585,378.399192 L212.242585,378.399192 Z" id="Shape" fill="url(#radialGradient-2)"></path>
                            <path d="M25.2150868,0.206949495 C3.00796185,0.206949495 -5.82468904,15.7878586 5.60158194,34.7595556 L343.405658,595.290222 C354.031134,612.984404 354.353842,640.934525 345.055057,660.121131 L427.166439,523.606101 L111.748771,0.206949495 L25.2150868,0.206949495 L25.2150868,0.206949495 Z" id="Shape" fill="url(#radialGradient-3)"></path>
                            <path d="M472.895427,378.399192 L266.278329,34.7476162 C254.852058,15.7759192 227.362075,0.195010101 205.226663,0.195010101 L111.760723,0.195010101 L427.178391,523.594162 L472.90738,447.480525 C484.321698,428.449131 484.321698,397.358949 472.895427,378.399192 L472.895427,378.399192 Z" id="Shape" fill="url(#radialGradient-4)"></path>
                            <path d="M343.405658,595.278283 L212.242585,378.399192 C223.656904,397.358949 223.656904,428.437192 212.242585,447.480525 L166.071367,524.298586 L345.067009,660.109192 C354.353842,640.934525 354.031134,612.984404 343.405658,595.278283 L343.405658,595.278283 Z" id="Shape" fill="url(#linearGradient-5)"></path>
                        </g>
                        <path d="M472.895427,378.39244 L266.278329,34.7469993 C254.852058,15.775641 227.362075,0.195010101 205.226663,0.195010101 L111.760723,0.195010101 L25.227039,0.195010101 C3.01991402,0.195010101 -5.81273687,15.775641 5.6135341,34.7469993 L212.242585,378.39244 C223.656904,397.351859 223.656904,428.429547 212.242585,447.47254 L4.26293931,794.831067 C-3.76891644,811.98767 4.57369563,825.586396 25.2150868,825.586396 L111.700962,825.586396 L205.214711,825.586396 C227.362075,825.586396 254.840106,810.077401 266.266377,791.034407 L427.154487,523.584818 L472.883475,447.47254 C484.321698,428.441486 484.321698,397.351859 472.895427,378.39244 L472.895427,378.39244 Z" id="Shape" fill="url(#radialGradient-6)"></path>
                    </g>
                </g>
                <g id="Google-Cloud-Platform" transform="translate(0.000000, 5.191919)">
                    <path d="M598.971898,650.791506 L505.403536,813.444508 L260.358133,813.444508 C238.497926,813.440452 218.310638,801.740707 207.439766,782.775138 L9.23078604,437.195988 C-1.52956487,418.40631 -1.52956487,395.322178 9.23078604,376.5325 L84.6570223,245.068952 L177.758322,406.837733 L318.110865,650.791506 L598.971898,650.791506 Z" id="Shape" fill="#FBBC05"></path>
                    <path d="M907.90344,437.195208 L709.69446,782.826601 C698.833105,801.801639 678.639785,813.50488 656.776093,813.495971 L505.351294,813.495971 L598.919656,650.842968 L739.375904,406.837733 L598.919656,162.883961 L785.328886,162.883961 L907.851197,376.53172 C918.705784,395.291217 918.7257,418.417045 907.90344,437.195208 L907.90344,437.195208 Z" id="Shape" fill="#EA4335"></path>
                    <path d="M785.380348,162.883961 L318.110865,162.883961 L177.758322,406.837733 L84.6578021,245.016709 L207.440546,30.9011079 C218.301563,11.9260116 238.494558,0.222488763 260.358133,0.230958296 L656.828335,0.230958296 C678.685019,0.248106002 698.866222,11.9443242 709.746702,30.9003281 L785.380348,162.883961 Z" id="Shape" fill="#4285F4"></path>
                    <polyline id="Shape" fill="#E0E0E0" points="598.971898 162.883961 739.324441 406.837733 598.919656 650.791506 318.162328 650.791506 177.758322 406.837733 318.110865 162.883961 598.971898 162.883961"></polyline>
                    <circle id="Oval" fill="#FFFFFF" cx="458.567113" cy="406.837733" r="122.003007"></circle>
                    <path d="M207.439766,35.9428831 C218.301121,16.9678451 238.494441,5.26460395 260.358133,5.27351327 L656.828335,5.27351327 C678.685019,5.29066097 698.866222,16.9868792 709.746702,35.9428831 L782.521835,162.883961 L785.43259,162.883961 L709.745922,30.9011079 C698.884567,11.9260698 678.691247,0.22282872 656.827555,0.231738033 L260.358133,0.231738033 C238.497926,0.235794047 218.310638,11.935539 207.439766,30.9011079 L84.6570223,245.016709 L86.1127901,247.564108 L207.439766,35.9428831 Z" id="Shape" fill="#FFFFFF" opacity="0.2"></path>
                    <polyline id="Shape" fill-opacity="0.2" fill="#1A237E" points="177.760661 406.837733 318.113204 162.881622 785.378009 162.881622 782.469592 157.789943 318.113204 157.789943 177.760661 401.746055"></polyline>
                    <path d="M9.23078604,381.574275 L84.6570223,250.058485 L177.757542,411.879508 L318.110085,655.833281 L596.00812,655.833281 L598.971118,650.739263 L318.110085,650.739263 L177.757542,406.837733 L84.6570223,245.016709 L9.23078604,376.480258 C3.54861959,386.486555 0.792757235,397.88826 1.27747528,409.385132 C1.66954618,399.612718 4.39673557,390.076378 9.23078604,381.574275 L9.23078604,381.574275 Z" id="Shape" fill="#FFFFFF" opacity="0.2"></path>
                    <g id="Group" opacity="0.2" transform="translate(0.522667, 404.040370)" fill="#BF360C">
                        <path d="M507.791625,404.309341 L259.835466,404.309341 C237.975259,404.305285 217.787971,392.60554 206.917099,373.639971 L8.70811929,28.0608212 C3.87406881,19.5587185 1.14687942,10.0223789 0.754808522,0.24996484 C0.225521645,11.7511527 2.9843327,23.1650573 8.70811929,33.1548388 L206.917099,378.786231 C217.778454,397.761269 237.971774,409.46451 259.835466,409.455601 L504.880869,409.455601 L507.791625,404.309341 Z" id="Shape"></path>
                    </g>
                    <g id="Group" opacity="0.2" transform="translate(505.351294, 162.322101)" fill="#3E2723">
                        <polygon id="Shape" points="236.883903 244.515632 96.53136 0.559520171 93.6229435 0.559520171 234.022271 244.515632"></polygon>
                        <path d="M402.552146,269.779089 L204.343166,615.410482 C193.481811,634.38552 173.288491,646.088761 151.424799,646.079852 L2.96299813,646.079852 L0,651.173869 L151.424799,651.173869 C173.281483,651.156722 193.462686,639.460503 204.343166,620.504499 L402.552146,274.873107 C408.252366,264.873962 411.009502,253.466987 410.505457,241.968233 C410.113386,251.740647 407.386196,261.276987 402.552146,269.779089 L402.552146,269.779089 Z" id="Shape"></path>
                    </g>
                    <g id="Group" opacity="0.2" transform="translate(505.351294, 162.322101)" fill="#FFFFFF">
                        <path d="M280.029054,5.60441435 L402.551366,219.252174 C407.385417,227.754277 410.112606,237.290616 410.504677,247.06303 C411.033964,235.561843 408.275153,224.147938 402.551366,214.158156 L280.029054,0.510396781 L93.6206043,0.510396781 L96.5836024,5.60441435" id="Shape"></path>
                        <polygon id="Shape" points="93.6229435 493.563422 236.883903 244.515632 234.022271 244.515632 93.6229435 488.471743 0.0545815445 651.124746 2.96299813 651.124746"></polygon>
                    </g>
                    <path d="M907.90344,376.480258 L785.381128,162.832498 L709.69446,30.8488655 C698.833105,11.8738275 678.639785,0.170586385 656.776093,0.179495697 L260.358133,0.179495697 C238.497926,0.183551712 218.310638,11.8832966 207.439766,30.8488655 L9.23078604,376.480258 C-1.52956487,395.269936 -1.52956487,418.354068 9.23078604,437.143746 L207.439766,782.775138 C218.301121,801.750176 238.494441,813.453417 260.358133,813.444508 L656.828335,813.444508 C678.685019,813.42736 698.866222,801.731142 709.746702,782.775138 L907.955682,437.143746 C918.72575,418.351676 918.705858,395.253749 907.90344,376.480258 L907.90344,376.480258 Z" id="Shape" fill="url(#radialGradient-7)"></path>
                </g>
            </g>
        </g>
    </g>
</svg>