<?xml version="1.0" encoding="UTF-8"?>
<svg width="2400px" height="600px" viewBox="0 0 2400 600" version="1.1" xmlns="http://www.w3.org/2000/svg" xmlns:xlink="http://www.w3.org/1999/xlink" style="background: #FFFFFF;">
    <!-- Generator: Sketch 3.7.2 (28276) - http://www.bohemiancoding.com/sketch -->
    <title>gplus_banner</title>
    <desc>Created with Sketch.</desc>
    <defs>
        <rect id="path-1" x="0" y="0" width="2411" height="601"></rect>
        <mask id="mask-2" maskContentUnits="userSpaceOnUse" maskUnits="objectBoundingBox" x="0" y="0" width="2411" height="601" fill="white">
            <use xlink:href="#path-1"></use>
        </mask>
        <radialGradient cx="-54.1555987%" cy="-174.154426%" fx="-54.1555987%" fy="-174.154426%" r="402.157161%" id="radialGradient-3">
            <stop stop-color="#FFCE4E" offset="0%"></stop>
            <stop stop-color="#F5C337" offset="100%"></stop>
        </radialGradient>
        <radialGradient cx="-6.593919%" cy="-88.3500641%" fx="-6.593919%" fy="-88.3500641%" r="326.488856%" id="radialGradient-4">
            <stop stop-color="#0DA960" offset="0%"></stop>
            <stop stop-color="#05924B" offset="100%"></stop>
        </radialGradient>
        <radialGradient cx="-4.42276749%" cy="-2.56440874%" fx="-4.42276749%" fy="-2.56440874%" r="226.265021%" id="radialGradient-5">
            <stop stop-color="#577EC0" offset="0%"></stop>
            <stop stop-color="#557EBF" offset="100%"></stop>
        </radialGradient>
        <radialGradient cx="-35.1621493%" cy="-3.23098682%" fx="-35.1621493%" fy="-3.23098682%" r="261.057395%" id="radialGradient-6">
            <stop stop-color="#E04B3F" offset="0%"></stop>
            <stop stop-color="#CD382D" offset="100%"></stop>
        </radialGradient>
        <linearGradient x1="122.538745%" y1="50.0008476%" x2="-2.70910562%" y2="50.0008476%" id="linearGradient-7">
            <stop stop-color="#231F20" stop-opacity="0.2" offset="0%"></stop>
            <stop stop-color="#F2F2F2" stop-opacity="0.25" offset="100%"></stop>
        </linearGradient>
        <radialGradient cx="49.9993392%" cy="50.0007232%" fx="49.9993392%" fy="50.0007232%" r="70.2931732%" id="radialGradient-8">
            <stop stop-color="#FFFFFF" stop-opacity="0.1" offset="0%"></stop>
            <stop stop-color="#FFFFFF" stop-opacity="0.091" offset="8.96%"></stop>
            <stop stop-color="#FFFFFF" stop-opacity="0" offset="100%"></stop>
        </radialGradient>
        <radialGradient cx="14.3780526%" cy="6.75293597%" fx="14.3780526%" fy="6.75293597%" r="76.9741617%" id="radialGradient-9">
            <stop stop-color="#FFFFFF" stop-opacity="0.1" offset="0%"></stop>
            <stop stop-color="#FFFFFF" stop-opacity="0" offset="100%"></stop>
        </radialGradient>
    </defs>
    <g id="branding_svg" stroke="none" stroke-width="1" fill="none" fill-rule="evenodd">
        <g id="gplus_banner">
            <g id="banner" transform="translate(-377.000000, -631.000000)">
                <g id="world" opacity="0.418726679" fill="#E0E0E0">
                    <path d="M2836.4717,146.052942 C2821.31236,137.331598 2808.51784,148.639159 2798.4551,148.932862 C2789.55847,149.185773 2779.24294,144.617062 2769.3596,143.140389 C2762.64839,142.153221 2756.27152,143.874646 2748.88348,143.140389 C2734.20526,141.484231 2719.14377,135.7815 2705.12607,134.321144 C2682.20358,132.191798 2672.20608,141.826884 2655.57891,143.140389 C2652.05614,147.488823 2651.83597,155.11694 2646.73936,157.7929 C2635.36374,155.573811 2628.67699,165.983947 2620.50612,169.402322 C2614.59405,171.947747 2607.0837,172.763589 2600.1197,175.317172 C2593.58789,177.462835 2588.40974,183.304259 2579.59465,180.995428 C2567.41988,175.031627 2560.07261,159.17983 2544.62786,157.7929 C2530.04749,156.471237 2517.58731,171.792737 2503.78978,172.355668 C2499.06013,172.526995 2496.32835,170.723985 2491.99828,169.402322 C2488.00254,168.064342 2480.0763,167.705372 2477.54838,166.48161 C2468.70883,162.606364 2466.42555,153.460782 2454.14477,151.820941 C2445.28891,150.833773 2437.30559,156.471237 2427.91968,157.7929 C2414.22,159.595909 2402.34695,154.129772 2390.00094,160.632027 C2382.49873,169.638916 2390.8327,181.468616 2390.00094,192.743543 C2379.35923,197.712017 2368.17116,202.166511 2354.9526,204.507976 C2345.82764,207.885559 2346.68387,221.428526 2334.55803,221.909872 C2310.69776,205.992807 2308.74066,167.999075 2258.59007,178.246042 C2253.24883,186.445248 2253.24883,199.971898 2241.1556,201.497521 C2228.01044,202.207303 2222.44087,193.3799 2208.97768,192.743543 C2193.41061,191.992969 2174.01089,207.795817 2159.3979,192.743543 C2163.3121,148.125179 2131.0934,118.200118 2092.31843,134.329302 C2078.03162,130.135877 2071.37749,118.363287 2054.36706,116.886614 C2054.04088,121.414533 2046.92194,119.146494 2048.56101,125.640592 C2038.1884,135.194094 2051.22756,149.51211 2048.56101,157.7929 C2044.13308,171.001371 2033.09995,172.526995 2016.5054,175.309014 C2002.22676,198.372849 1966.23249,207.298153 1978.48065,248.212597 C1972.60121,253.899012 1959.26034,252.381547 1958.02084,262.816158 C1951.31779,265.875563 1952.07616,276.27754 1952.32895,286.092112 C1939.13486,291.599041 1932.17086,303.208464 1917.20723,306.634997 C1905.83161,298.59896 1901.44445,283.522212 1882.28121,283.244825 C1879.5005,295.188743 1872.73221,324.232695 1873.45797,335.768692 C1874.20819,347.794194 1887.56537,358.285914 1879.32926,367.921 C1861.52784,364.494466 1851.56295,361.516646 1832.66882,364.983971 C1830.9319,370.123772 1836.14267,382.100323 1829.72502,382.565353 C1816.23736,394.158458 1797.70203,386.587451 1783.07274,391.409073 C1781.92294,391.604875 1778.59588,396.377547 1777.1199,397.136279 C1773.35249,399.110615 1768.76962,397.617626 1765.56488,400.040675 C1756.35022,406.836633 1755.11072,421.897065 1742.10419,423.390054 C1736.44492,416.422769 1738.26338,401.941585 1724.59633,403.010337 C1712.64173,408.737543 1732.36763,435.733734 1713.00869,437.952823 C1700.30387,437.047239 1701.95109,421.888906 1695.47636,414.530017 C1672.74143,402.43109 1649.52537,390.495331 1619.58995,385.437114 C1611.52509,376.267057 1605.53963,367.325436 1596.30051,364.975813 C1568.92562,358.196171 1548.69414,376.3568 1537.89749,382.557194 C1529.6206,387.25644 1525.23344,387.737787 1520.38963,391.400915 C1514.42864,395.724874 1509.42174,399.55117 1505.76849,403.010337 C1495.85254,412.180394 1498.24182,423.390054 1494.15639,435.023952 C1492.43577,439.927159 1485.42284,445.483038 1482.43827,452.531908 C1479.15198,460.551628 1479.9919,469.85222 1476.61591,475.938396 C1476.06955,476.884772 1471.64162,477.87194 1470.72016,478.826475 C1468.69782,481.176098 1469.86393,485.165562 1467.87421,487.588611 C1452.84534,506.369279 1435.99801,509.03708 1424.10864,525.582343 C1425.03827,548.94804 1426.57948,571.718172 1438.60747,583.980268 C1457.49345,588.255276 1458.39045,574.418607 1473.61503,575.258923 C1477.70047,580.904546 1476.45282,591.88577 1479.58417,598.543036 C1475.2541,594.316978 1460.42094,594.316978 1456.08271,598.543036 C1449.4612,610.951983 1457.79517,620.897089 1456.08271,636.536768 C1448.73544,641.758153 1439.92851,645.641558 1429.90654,648.154349 C1422.16786,656.010901 1418.21289,667.701908 1406.5274,671.479253 C1405.32052,656.998069 1379.0465,629.414473 1368.59234,607.321489 C1365.64855,600.843708 1369.09793,592.407909 1365.71378,586.90098 C1360.05451,577.478012 1346.58316,576.776388 1339.38268,580.977971 C1331.2118,586.525693 1333.98436,602.744619 1333.57663,616.083625 C1313.5327,622.210594 1295.71497,642.908489 1304.35066,668.525908 C1321.29585,671.968758 1325.64223,662.643691 1336.52858,659.837197 C1340.69557,650.46318 1337.75992,633.909759 1351.06818,633.583422 C1356.72745,645.649716 1340.82604,668.852244 1351.06818,686.131764 C1360.89443,687.991883 1378.22289,682.427844 1383.22164,689.068793 C1377.63576,699.06285 1363.54467,700.694533 1354.01198,706.584907 C1354.5828,725.920347 1382.22678,730.546168 1377.32589,750.428222 C1370.68807,778.240254 1336.19425,754.899032 1313.18205,767.87091 C1305.90002,773.761285 1311.56745,784.261163 1310.24641,794.181794 C1308.14253,810.139651 1300.68926,823.429707 1307.30261,834.965704 C1317.30011,846.240631 1331.5543,841.182415 1333.57663,855.427005 C1335.87622,871.107476 1317.69968,874.803237 1304.35066,890.532659 C1298.22658,897.818122 1297.51713,919.886631 1295.71497,922.603382 C1289.80291,931.406311 1275.02683,935.771062 1266.53792,943.056525 C1256.45888,951.582067 1249.91076,963.240441 1243.21586,975.249625 C1238.77162,982.934851 1232.45998,993.63869 1231.42435,1001.41366 C1229.79344,1013.77365 1235.59949,1033.23147 1234.36,1048.16137 C1233.87072,1053.36644 1229.22262,1058.42465 1228.65995,1062.74045 C1223.34318,1094.27272 1242.03345,1099.58385 1254.8035,1115.37854 C1259.55761,1121.26891 1260.13659,1124.6057 1263.58597,1129.90867 C1270.37057,1140.24538 1274.8882,1143.78613 1284.00501,1150.32918 C1292.68147,1156.52958 1296.20424,1160.45377 1304.35066,1165.05512 C1324.1581,1175.75896 1328.0723,1165.12039 1351.06818,1165.05512 C1359.2309,1164.93274 1368.00522,1168.81615 1374.46363,1167.82898 C1380.76711,1166.98866 1387.49463,1161.44094 1394.89083,1159.05053 C1423.9374,1149.68467 1428.95246,1155.06106 1447.43071,1173.71935 C1460.57587,1173.21353 1473.43563,1173.05036 1476.59145,1182.47333 C1483.96318,1196.48133 1469.93732,1211.85994 1473.59872,1229.19657 C1476.85239,1243.76749 1492.97397,1251.61589 1499.92982,1264.22064 C1503.67277,1271.02475 1509.27495,1283.0421 1511.70502,1293.35433 C1513.48271,1302.07567 1516.02694,1319.53468 1514.49388,1328.41919 C1513.41748,1335.18252 1505.31183,1338.17665 1502.86546,1342.94933 C1501.25086,1346.16374 1500.59849,1352.57625 1499.92982,1354.72192 C1492.50916,1378.7566 1500.81867,1395.59557 1508.67152,1413.13616 C1512.43077,1421.65354 1518.23683,1430.17093 1520.36517,1439.39809 C1523.05618,1451.19516 1521.59651,1461.58082 1523.23558,1471.4525 C1526.10598,1487.76117 1541.29794,1499.73772 1546.63919,1515.34476 C1551.79287,1530.43783 1546.39455,1547.81525 1561.27664,1559.04123 C1582.29096,1556.0063 1605.53148,1556.65081 1622.46036,1553.23244 C1625.98313,1552.45739 1642.47983,1544.79664 1642.98541,1544.43767 C1651.33569,1536.44242 1659.02544,1530.42967 1669.25943,1518.16758 C1682.67369,1502.24235 1695.0931,1487.24719 1698.35493,1465.67634 C1708.85801,1456.09021 1717.6731,1457.779 1721.75854,1445.18241 C1725.39548,1433.74431 1717.75464,1417.74566 1721.75854,1407.24578 C1728.60838,1389.25648 1762.63739,1383.44769 1771.28123,1369.32548 C1779.83537,1355.70909 1778.42463,1321.59876 1774.23318,1310.9765 C1770.80011,1302.33674 1766.38849,1293.19116 1765.55672,1284.60035 C1763.95027,1270.03758 1768.59022,1260.72883 1771.28123,1255.38507 C1777.8375,1242.62531 1779.41133,1239.19878 1788.79724,1229.19657 C1795.67154,1221.91926 1803.84242,1212.32497 1809.1592,1208.74342 C1826.08808,1197.49297 1846.09939,1180.25424 1853.08786,1165.06328 C1853.52005,1163.87215 1858.22524,1163.26027 1858.81237,1162.10993 C1867.8884,1146.02154 1876.95628,1126.09869 1879.3211,1106.54298 C1861.25874,1087.40334 1816.60432,1126.58004 1806.31326,1097.789 C1811.55664,1088.64342 1826.031,1087.97443 1838.42594,1083.24255 C1851.54665,1078.14354 1869.02188,1071.60865 1879.3211,1065.71827 C1882.20782,1063.98053 1882.94173,1061.23115 1885.03746,1059.91764 C1896.42939,1052.75455 1907.48698,1051.56343 1917.19907,1045.26513 C1918.73213,1044.27796 1921.27636,1040.72905 1923.02144,1039.37476 C1931.91807,1032.17088 1937.07991,1026.68026 1943.46494,1016.04985 C1948.84695,1007.14086 1953.43797,999.904351 1952.3208,992.700472 C1949.43408,974.841705 1928.74594,982.739049 1925.95708,960.629748 C1955.72125,965.549272 1978.14632,966.152994 2010.61781,963.517827 C2025.81792,976.530496 2042.24938,988.384671 2051.40696,1007.30403 C2062.24438,1008.25041 2071.47535,1010.64082 2077.75437,1016.04169 C2078.82261,1042.04256 2091.41327,1059.90948 2098.20602,1074.47225 C2100.08157,1078.72279 2099.4129,1081.79035 2101.04381,1086.17142 C2102.5361,1089.87534 2105.48805,1091.89862 2106.86617,1094.89276 C2113.47953,1108.46836 2118.30703,1121.52182 2127.3586,1132.79675 C2138.21234,1134.9261 2139.90849,1127.81196 2150.7296,1129.90867 C2150.40341,1143.86772 2154.30945,1153.57623 2165.35074,1156.2114 C2169.61558,1153.5028 2179.58861,1141.56704 2171.06709,1135.79905 C2172.68985,1122.50083 2155.54895,1127.98329 2156.51119,1115.37854 C2153.5837,1105.05814 2159.3979,1086.32643 2159.3979,1083.23439 C2159.3979,1082.26354 2155.94852,1076.81372 2156.51119,1071.51891 C2157.82407,1060.92928 2182.62211,1039.52161 2191.51875,1030.68605 C2212.72062,1009.47417 2223.028,995.07457 2252.87372,995.702768 C2268.89744,1011.61983 2283.21687,1029.45413 2290.74353,1053.93752 C2299.58308,1058.10647 2301.25477,1052.62402 2314.11453,1053.93752 C2323.67983,1068.73689 2330.13825,1086.4488 2334.55803,1106.53482 C2345.82764,1105.3029 2342.59028,1089.19819 2357.85563,1091.89046 C2385.62193,1101.55818 2377.59784,1124.28752 2401.72721,1124.05909 C2410.15903,1123.92855 2419.06382,1112.33545 2422.07285,1109.44737 C2429.85231,1102.2027 2435.66652,1097.26686 2436.73477,1088.91264 C2437.78671,1080.06892 2430.04802,1059.06101 2427.91968,1056.93982 C2426.66388,1055.60184 2426.25615,1052.24873 2424.94326,1051.04945 C2419.70803,1045.88517 2411.78179,1044.41666 2407.53326,1039.35028 C2392.46362,1021.72811 2401.6212,998.427678 2424.94326,1001.39734 C2433.50556,1007.78538 2415.46765,1027.86323 2433.79912,1027.70007 C2446.62626,1026.93318 2439.39316,1006.12922 2445.37045,998.566371 C2468.87192,988.539681 2489.95148,983.212237 2503.79794,969.391884 C2517.10619,955.971294 2516.9431,950.896761 2524.23328,931.398152 C2531.04235,913.327266 2534.03507,907.861129 2529.96595,890.5245 C2528.81615,885.22969 2528.43289,876.002524 2527.09554,872.918644 C2524.6247,866.449022 2515.91562,860.23231 2512.44993,855.418846 C2509.78339,851.59255 2508.36449,846.232473 2506.70912,843.760473 C2502.15887,837.225584 2501.09062,840.342098 2500.82152,832.167368 C2500.58504,820.435569 2521.08562,810.882067 2512.44993,802.968405 C2500.41379,794.532606 2483.56645,808.736404 2477.54838,794.173636 C2477.54838,779.561917 2486.79566,774.242631 2495.03993,767.862752 C2504.4503,778.485006 2511.34091,780.206431 2529.96595,776.681997 C2536.49775,790.583934 2548.69699,800.659574 2556.37859,814.585986 C2560.35802,822.067252 2558.56402,833.138219 2568.07224,837.951683 C2576.66716,836.899248 2582.8157,833.317704 2588.37712,829.189547 C2592.11191,797.347258 2570.29028,790.918428 2562.08679,770.799781 C2571.28514,759.426952 2571.99459,739.887551 2579.59465,726.997258 C2586.64835,722.25722 2598.42354,722.346962 2605.92575,718.19433 C2613.94984,707.612867 2621.15848,691.181822 2626.39371,674.489708 C2630.88688,659.584286 2638.18522,634.635858 2637.96505,621.884257 C2637.92427,612.420497 2627.03792,603.943906 2635.15172,595.581532 C2638.59295,610.682755 2642.99641,624.764177 2655.57891,630.61376 C2677.90612,599.848382 2635.71439,577.755398 2632.10191,546.035486 C2602.19096,537.713904 2565.54433,546.524991 2559.17561,522.604522 C2558.67003,520.173315 2563.82371,497.647935 2565.03874,493.381085 C2565.38123,492.353124 2570.53492,489.130551 2570.86926,487.580452 C2573.4461,477.863782 2572.23923,458.968896 2576.77317,452.515591 C2585.50671,439.829258 2600.79652,442.807079 2614.61036,437.944664 C2625.19499,434.330487 2630.00619,425.503083 2637.9732,426.286291 C2650.69433,426.873697 2657.66648,436.549575 2670.16744,429.264112 C2681.02932,416.977541 2663.63563,376.340483 2684.78858,367.904683 C2699.36894,364.967654 2698.97753,376.984998 2710.95659,376.658661 C2718.5648,375.263572 2720.78284,360.611062 2728.4726,367.904683 C2721.98156,386.212164 2726.4258,406.795841 2722.64208,426.286291 C2720.94593,435.391081 2714.98494,443.753455 2713.90854,452.515591 C2709.26044,490.639858 2724.80304,505.692131 2737.22245,525.574185 C2746.04569,539.712715 2753.23802,557.889661 2766.40765,563.510808 C2780.98802,552.154296 2774.73346,524.97862 2778.1013,508.074387 C2779.00646,503.538309 2783.90735,500.625756 2783.90735,496.342589 C2784.07044,491.904412 2779.088,483.925483 2778.1013,475.922079 C2776.98412,467.168102 2779.49573,456.733491 2778.1013,452.515591 C2774.84763,443.092623 2761.63723,436.63116 2757.64964,426.286291 C2752.59381,413.404156 2759.05223,404.323842 2751.85175,394.142142 C2764.94798,381.880046 2778.76182,370.523534 2801.52122,367.904683 C2805.90838,349.009797 2810.87451,330.686001 2818.93122,315.380817 C2824.20723,308.013769 2838.79575,310.053373 2839.43996,297.758643 C2835.86826,275.698293 2812.40757,272.9897 2807.30281,254.086655 C2806.34057,250.382735 2810.23845,241.742975 2810.19768,236.546066 C2810.19768,228.534504 2806.33242,225.271138 2807.30281,216.092923 C2817.35739,203.137362 2834.46568,214.5673 2851.07653,207.445005 C2858.04869,195.142117 2846.40396,190.255227 2845.16447,178.229726 C2846.62414,163.006126 2842.38376,153.705534 2836.4717,146.052942 L2836.4717,146.052942 Z M1663.34737,449.651988 C1673.00237,452.686918 1687.24025,451.128661 1695.46006,455.517887 C1695.65577,471.263625 1677.13674,468.367388 1663.34737,470.105131 C1659.16407,466.229884 1659.16407,453.690402 1663.34737,449.651988 L1663.34737,449.651988 Z M1666.28301,735.694127 C1681.24664,733.393454 1678.14791,749.212618 1689.49907,750.452697 C1702.94595,751.015628 1702.94595,738.427195 1707.09662,729.909812 L1715.92802,729.909812 C1714.29711,761.7521 1748.80724,757.387349 1756.74979,779.586392 C1746.63813,804.102425 1724.58817,785.631776 1707.09662,782.498946 C1687.2321,778.917402 1672.18692,789.131736 1648.79146,791.277399 C1631.85442,775.417443 1647.53566,742.090323 1666.28301,735.694127 L1666.28301,735.694127 Z M1526.18753,604.359985 C1525.21714,584.739 1532.25453,576.450052 1537.88118,557.759126 C1538.28891,544.73014 1525.99182,540.071686 1526.18753,528.503055 C1526.43217,511.827258 1539.78119,504.868131 1552.43708,496.358906 C1554.86715,484.259978 1554.64697,469.403507 1564.1552,464.231073 C1568.90931,463.480499 1569.21103,467.02125 1572.86428,467.184418 C1576.15872,489.000016 1557.90064,489.146868 1552.43708,502.208488 C1551.71133,530.33054 1559.13198,550.073901 1578.75188,557.767285 C1577.21882,584.151594 1553.49718,594.651473 1564.1552,624.870237 C1555.53582,631.119581 1547.74821,623.793326 1537.88118,624.870237 C1523.48021,626.485602 1508.21486,642.166073 1496.98602,627.799107 C1500.3457,613.546358 1519.25615,614.941447 1526.18753,604.359985 L1526.18753,604.359985 Z M1654.5649,902.15024 C1641.49312,901.562834 1631.34884,896.79832 1619.57364,893.477846 C1607.32548,889.896302 1592.66357,883.622482 1587.4528,884.658601 C1574.50335,887.171392 1574.43811,899.262161 1564.1552,908.048773 C1552.95082,906.735268 1542.85547,903.830873 1534.92923,896.349607 C1525.62486,887.326402 1503.68092,886.959273 1488.22801,875.96989 C1489.94863,859.685697 1486.89067,848.068116 1479.57602,840.864237 C1455.096,842.218533 1435.8023,840.358415 1415.30171,843.77679 C1393.68395,847.48071 1373.23229,864.735755 1351.06818,855.435163 C1361.11461,843.009899 1376.20056,846.999364 1386.05127,834.973862 C1390.59337,829.711685 1388.70151,818.428599 1391.95518,811.730542 C1395.90199,803.890306 1404.37459,800.431139 1409.45489,794.189952 C1415.67682,786.53736 1416.48412,777.938392 1424.09234,773.769443 C1435.07654,768.156455 1456.66984,773.279938 1462.05185,762.037644 C1483.72669,773.443107 1495.28172,794.981318 1520.35701,802.992881 C1525.61671,808.39375 1528.20171,816.462421 1534.91292,820.460044 C1567.14793,794.557081 1512.26768,782.009441 1505.73587,759.214833 C1506.21699,755.747507 1511.0445,756.66125 1514.48572,756.155428 C1523.47206,770.563187 1543.85032,773.622592 1555.36457,785.395182 C1555.29934,792.24825 1560.33886,794.067576 1558.23498,802.992881 C1568.46897,807.569751 1575.35142,843.222018 1590.36398,843.784949 C1615.01524,844.690533 1601.919,822.205945 1604.92804,805.766741 C1612.60964,805.505672 1615.16202,801.40199 1619.56549,805.766741 C1622.28096,808.711929 1620.62558,817.196679 1622.45221,820.460044 C1624.67025,824.115013 1626.10545,827.778141 1628.4132,832.191843 C1632.82482,840.953979 1636.55961,841.867721 1642.9691,849.675323 C1673.04315,845.025027 1688.53683,859.693855 1712.98422,852.604194 C1717.90143,869.557377 1709.85287,887.326402 1701.26611,899.262161 C1684.04366,895.680618 1671.4367,903.07214 1654.5649,902.15024 L1654.5649,902.15024 Z M1791.73289,1071.53522 C1784.73627,1071.44548 1779.47657,1069.78932 1774.23318,1065.71827 C1764.43139,1058.11463 1764.43139,1047.69634 1756.74164,1036.50299 C1753.53689,1032.01587 1746.85014,1028.39353 1745.12138,1024.80383 C1742.08788,1018.75845 1742.30805,1008.57674 1739.16039,1001.42182 C1735.6213,993.442888 1728.9264,988.555998 1724.58002,981.009465 C1723.34868,978.831169 1725.73797,974.548002 1724.58002,972.165745 C1722.62292,968.225231 1709.53484,960.221827 1712.99238,945.977237 L1721.75038,945.977237 C1727.71137,952.936364 1730.0762,960.801075 1736.28998,969.408201 C1741.15826,976.187843 1750.20167,981.833465 1753.78153,989.787918 C1755.76309,994.209779 1754.18926,1000.02673 1756.74164,1004.35069 C1769.42199,1025.57888 1797.00074,1043.4866 1791.73289,1071.53522 L1791.73289,1071.53522 Z M1809.1592,741.706878 C1819.93138,731.916781 1827.05032,718.618567 1850.12775,721.131359 C1858.17631,734.85381 1840.15471,735.326998 1841.2882,750.452697 C1840.98648,761.760258 1853.80546,767.40588 1858.80421,776.71463 C1862.17205,782.760015 1862.17205,791.195815 1864.68365,797.069872 C1870.00859,809.952007 1883.51255,821.732757 1876.30391,834.98202 C1862.49008,843.695206 1846.79253,832.510021 1838.41779,826.309627 C1847.20026,779.586392 1812.68197,776.119066 1809.1592,741.706878 L1809.1592,741.706878 Z M1888.07096,972.165745 C1873.36827,972.124953 1856.92866,941.082189 1847.20026,931.414469 C1843.84873,927.098668 1843.84873,924.00663 1847.20026,919.715304 L1855.87672,919.715304 C1865.65405,940.086863 1889.05766,946.850188 1911.40933,954.657789 C1903.57279,965.24741 1897.57918,972.369705 1888.07096,972.165745 L1888.07096,972.165745 Z" id="Shape"></path>
                    <path d="M1044.70105,1258.30579 C1036.63618,1252.34198 1026.54898,1242.86191 1021.37899,1240.80599 C1008.15228,1235.74777 991.043992,1239.12535 977.540027,1235.05431 C971.489338,1233.1126 966.417196,1226.11269 960.138179,1223.40409 C952.358721,1219.93677 944.938064,1222.2456 939.670213,1220.45075 C921.183807,1213.85059 922.822875,1202.46144 916.315529,1188.3066 C913.176021,1181.50248 908.772554,1172.07135 904.58926,1167.8453 C903.561785,1166.6868 892.096462,1158.53655 887.089557,1156.22771 C877.002356,1151.61821 870.022046,1154.59603 857.912512,1153.27437 C845.370786,1152.00981 831.13291,1132.38883 822.986497,1127.01244 C815.786013,1122.23976 809.637468,1111.1688 805.494948,1109.47185 C791.314154,1104.0465 770.560778,1111.45434 758.769272,1109.47185 C745.689345,1107.32618 741.530515,1099.27383 732.462635,1097.79716 C709.548299,1093.94638 693.932301,1098.67826 685.745114,1103.58147 C677.4193,1108.78654 673.692662,1119.34353 659.577105,1124.08356 C654.6599,1125.69893 648.291182,1122.23976 644.915191,1127.01244 L642.656376,1129.23152 C641.25379,1128.88887 639.794122,1128.75834 638.3263,1129.14994 L636.181649,1127.00428 C615.273336,1123.94487 604.696861,1118.14424 601.174087,1100.74234 C598.94789,1089.59795 610.674159,1076.98504 604.126041,1065.71012 C598.156897,1053.10537 571.157122,1061.54117 563.206418,1051.06576 C556.28319,1035.55662 576.449437,1024.08589 572.062279,1001.41366 C541.808831,989.273938 541.808831,1016.5312 528.215166,1024.79567 C495.759985,1044.58798 470.888552,1013.03124 475.699747,975.249625 C476.531513,968.12733 485.941884,933.233795 487.328161,931.406311 C492.229057,924.912213 517.5653,914.208375 522.441732,913.841246 C530.270117,913.539385 539.452161,920.86564 548.593432,919.715304 C556.381044,916.876176 562.007696,909.598871 572.070434,908.040614 C587.759823,905.650199 606.083137,913.335425 615.746301,919.715304 C618.926582,936.929557 618.926582,957.472442 639.149911,957.627452 C655.328575,938.365437 631.753718,919.886631 639.149911,896.341449 C640.674816,891.324025 646.146531,888.566481 650.762017,884.642284 C660.384407,876.508346 667.853991,870.862723 677.093117,864.229933 C682.801315,860.069142 689.610379,858.257974 691.551167,855.427005 C698.180831,846.150889 695.816006,832.820041 700.366255,823.30733 C703.155117,817.49854 710.28221,812.040561 714.946623,805.750424 C727.039847,790.029161 732.519717,783.396371 752.816437,779.570075 C758.206607,762.853486 765.676191,745.941094 784.945436,744.537847 C794.690145,743.795432 799.672586,749.449212 811.292846,750.43638 C824.61741,741.331591 846.194398,740.540225 852.00045,724.166288 C837.118363,721.416903 830.284835,721.196626 822.978342,709.521936 C820.613517,705.818016 824.511401,695.921861 822.978342,689.068793 C820.931545,680.437192 807.101398,679.678459 817.074435,674.489708 C831.972831,677.76939 839.73598,680.869587 851.992296,677.328836 C862.234433,674.579451 876.708792,666.225235 884.235458,671.479253 C882.02557,683.986101 870.576556,687.167883 872.517344,703.672353 C886.1844,710.329619 900.650604,716.383162 922.105273,715.404152 C931.996764,693.719089 910.517631,683.659765 904.572951,668.525908 C912.923229,649.957358 911.227079,634.472689 904.572951,624.845761 C902.558773,621.884257 900.405967,615.096457 898.791362,613.105804 C891.827361,605.175826 880.70453,603.234124 875.501916,592.799513 C870.095437,581.932506 871.734505,569.776469 869.581699,560.606413 C867.437048,551.020277 865.985535,542.706853 860.807384,531.391133 C840.143708,528.135926 845.436023,551.101861 822.970187,546.043644 C814.701455,537.134657 818.623803,527.385352 819.936688,513.891336 C806.082077,495.779658 788.223572,468.816101 755.809164,478.826475 C747.899233,489.334511 753.525885,501.547657 750.003111,513.891336 C747.401804,523.126661 739.206463,530.053154 738.32577,540.234854 C737.314603,550.261544 744.458005,562.670491 741.163559,572.305578 C737.078121,584.730842 716.650927,587.243633 709.107952,601.439273 C700.349946,617.894793 714.873232,627.366711 697.414301,639.375896 C681.29272,636.21859 693.508263,604.441569 685.72065,592.799513 C682.866551,587.349692 676.073796,589.462721 671.164746,586.90098 C656.910561,579.395239 645.339229,562.662333 633.229695,554.724196 C631.23998,553.402533 629.356275,552.978296 627.399179,551.746375 C616.031711,545.121744 613.829977,540.56119 609.899475,528.494897 C599.706265,497.337915 623.436059,482.921998 641.963237,467.168102 C656.413132,454.93864 671.311528,440.620624 691.526703,440.979594 C699.379552,443.753455 698.808732,455.101808 706.164153,458.48755 C720.222628,454.204382 729.306817,452.915353 741.155405,452.523749 C743.724094,433.579913 723.745402,424.466965 729.5433,411.772473 C747.385495,403.173505 759.160691,397.209705 764.493779,379.587532 C768.6363,366.338268 774.279261,353.121638 782.066873,344.555304 C802.021102,341.055344 807.24818,352.395539 811.268382,364.975813 C811.097136,377.58872 795.807321,374.847493 799.476876,391.400915 C812.401867,395.137468 820.597208,377.58872 825.807977,391.400915 C823.850881,411.772473 807.566208,417.9076 796.712478,429.280429 C785.157455,429.525181 771.025588,427.020548 773.333331,440.995911 C772.101991,456.676382 797.780726,445.646207 805.470484,452.531908 C811.716883,459.148381 812.222467,474.298555 819.920379,481.787979 C825.424712,487.033839 839.874607,493.76453 846.25148,493.397401 C851.649804,493.242392 867.127174,484.088651 869.557235,481.787979 C882.702399,469.933804 871.114758,451.699749 866.597127,435.03211 C877.59764,434.746566 875.534534,447.636859 890.033356,443.851356 C902.770792,435.896902 910.134367,431.58926 910.460549,420.461184 C910.607332,412.939126 901.319279,406.64899 895.880182,400.048833 C889.20159,392.110697 882.11527,387.101431 881.27535,379.59569 C882.416989,368.07601 887.733768,362.275378 887.056939,353.325598 C885.507571,331.061288 858.60565,319.721093 849.121888,297.766802 C845.126149,288.335676 842.834716,279.369579 843.397381,265.793979 C834.565983,252.862893 815.109184,257.594773 799.468722,254.094814 C793.581124,252.691567 789.079802,249.43636 784.912818,248.204439 C748.445589,236.505274 726.52611,277.542094 729.535145,315.380817 C734.860078,323.84925 745.012516,327.789764 744.082895,341.64275 C743.536539,350.160134 735.602144,362.658823 723.737247,362.095893 C719.733354,350.160134 705.634106,339.342077 703.204045,324.216379 C702.616916,319.867944 705.829815,311.595313 706.147844,306.61868 C706.9633,294.095516 704.280448,280.519915 709.083488,268.657582 C724.887041,258.165862 755.662382,262.579564 749.978648,230.66385 C738.301306,220.465833 721.527359,221.420367 709.083488,230.66385 C695.636605,209.362232 680.615891,219.902902 668.188329,230.66385 C653.974916,243.146223 651.667174,245.495846 656.592533,259.895446 C657.465072,262.579564 657.465072,268.217028 659.528177,271.635403 C663.295588,278.374253 673.423562,279.850925 674.067772,289.118883 C674.475501,294.886882 672.347159,297.399673 671.140282,300.818048 C665.521785,317.330677 657.326444,317.330677 641.938774,324.224537 C636.369204,334.283861 640.299706,345.509838 627.374715,350.404886 C613.136839,355.707855 591.722943,346.121719 592.367154,329.910951 C614.06646,330.359664 630.815943,318.644182 633.205231,303.68981 C634.110388,298.346049 629.160565,296.689891 627.374715,292.088546 C621.894845,277.378926 626.404321,257.268437 630.228814,248.204439 C634.982927,237.5006 648.813075,231.854978 647.761135,216.092923 C629.331811,204.662986 618.796109,229.260603 601.12516,227.710504 C581.146468,226.111455 574.549422,208.603499 572.021506,180.979111 C553.24969,166.130798 532.77357,158.347672 519.342996,172.339351 C504.958337,187.31004 472.185128,211.940291 484.41698,233.625354 C493.419623,242.305906 513.129215,230.655691 519.342996,236.537908 C514.670428,247.617033 521.406101,259.650693 519.342996,268.649424 C518.674321,271.904631 512.378994,276.685461 510.682844,280.348589 C507.869518,286.075795 511.327055,296.90201 501.859602,295.001099 C488.168082,294.095516 484.669772,282.934806 478.504918,274.547957 C458.077725,271.635403 445.014107,261.372119 434.763815,248.204439 C406.206517,247.967845 380.959974,250.880399 356.031459,254.094814 C349.882914,248.449191 344.908628,241.832718 341.369545,233.633512 C330.89908,232.56476 328.371163,221.297991 320.926043,216.101082 C314.94059,211.948449 303.271403,209.974113 294.668333,204.499817 C293.461457,203.594234 293.110811,199.686353 291.724534,198.536017 C289.376018,196.708532 285.249807,197.304097 282.966528,195.647939 C281.572097,194.76683 281.572097,190.916059 280.128738,189.855465 C277.421421,187.832178 273.678475,189.031465 271.378886,186.934753 C265.417897,181.509408 263.999002,173.962875 259.742318,169.410481 C253.031108,162.443195 249.108761,160.273057 239.315124,157.801058 C222.288386,153.387356 207.968964,160.387275 198.403656,163.60169 C192.84224,165.478125 185.299265,164.490957 180.895798,166.489768 C169.691421,171.450084 161.357453,182.292616 148.783108,186.942911 C138.549125,190.679465 126.75762,184.878833 119.638682,195.656097 C116.629646,217.186151 128.641325,239.115966 119.638682,256.950258 C109.991828,258.108753 105.360033,245.593747 93.307581,245.348994 C90.7715103,245.275569 83.0899071,249.3303 78.6864403,251.13331 C60.7382357,258.688001 61.7412476,270.028195 64.1876181,289.1352 C69.4228508,300.508029 93.6337638,292.749377 96.235071,306.643156 C91.1221568,326.631269 68.550312,315.446084 55.4703847,321.287508 C53.3094241,322.193092 48.4166832,328.817724 43.7441156,332.880614 C38.525192,337.490117 31.0800712,341.422473 29.1229749,344.579779 C24.0671426,353.186905 19.4924298,372.408128 20.4465143,379.612007 C22.0855825,392.861271 40.8410893,396.320438 37.8891357,417.605739 C45.3342564,422.908708 57.9086006,422.908708 58.2918653,435.048427 C49.0853578,461.77539 14.8932534,463.659984 0.0111664546,484.700532 C32.4174204,485.026869 45.8153759,466.474636 70.0262889,458.520183 C81.6547031,455.542362 78.7598314,467.119151 90.494255,464.24739 C107.741167,455.29761 99.4153526,425.217539 116.645955,420.477501 C132.751227,432.886448 162.091364,423.251361 175.016354,414.554492 C180.920262,418.250254 186.742623,423.97746 195.516939,429.304904 C202.268921,433.245418 212.975869,435.513457 218.871622,441.020386 C222.149758,444.038999 228.053666,458.773094 230.565273,461.440895 C241.932741,473.172694 238.352885,486.430116 242.095832,505.161834 C242.943907,508.784169 243.669664,511.696723 245.064095,516.836524 C246.37698,521.486819 247.167973,529.123095 247.975276,531.423767 C251.131094,538.872399 260.084809,544.762773 262.547489,551.779009 C264.015311,555.98875 261.40585,564.057422 262.547489,569.401182 C263.632047,573.725142 267.81534,578.954685 268.467706,581.018763 C273.58062,598.330917 268.29646,607.925211 265.515752,621.925049 C270.163856,634.513481 281.205141,641.146272 282.990992,654.118149 C283.765675,658.752128 280.748485,663.410582 280.153202,668.5667 C278.171642,686.009388 277.502967,687.877665 274.355304,697.871721 C269.340244,713.552192 262.400707,723.970486 259.766781,735.72676 C255.771043,753.193924 256.031989,783.91851 259.766781,797.094348 C262.645344,807.83082 266.005026,824.930855 268.467706,832.224477 C274.412386,849.38162 288.324079,849.577422 297.644751,864.278884 C301.893281,871.025892 301.787271,882.692423 306.394602,893.510479 C312.119109,906.547624 326.316212,914.69788 320.942352,934.384132 C333.867342,943.831575 335.905984,964.129708 353.095814,969.448993 C355.868367,955.857076 341.785428,943.937634 350.037851,934.384132 C360.997591,937.378269 360.679563,948.99585 364.683456,954.698581 C366.501924,957.22769 371.745312,958.157749 373.523007,960.662382 C375.480104,963.224124 374.452628,966.593549 376.393415,969.440835 C382.117922,977.640041 391.78924,982.184277 393.901273,992.724947 C395.034758,998.166609 390.957474,1009.63734 393.901273,1016.07433 C401.289312,1032.35852 450.567368,1057.27432 469.787685,1059.94212 C478.521227,1061.10061 490.75308,1057.30695 498.907648,1059.94212 C506.589251,1062.24279 512.900887,1074.50489 525.320294,1080.31368 C536.443125,1085.64928 553.119217,1084.38472 560.24631,1088.96159 C573.595338,1097.82163 575.772608,1114.35058 583.641766,1121.14654 C588.134933,1125.20943 595.025543,1126.784 601.141469,1129.94946 C617.311978,1138.30368 625.026199,1145.58914 639.117293,1129.94946 L641.955083,1129.94946 C648.258564,1142.16261 658.720875,1151.15318 656.608842,1170.82312 C655.385657,1180.87428 648.079164,1185.58984 641.955083,1194.24592 C637.461916,1200.50342 627.513343,1208.94738 624.447225,1217.53819 C619.954058,1230.46112 626.175993,1234.69534 624.447225,1246.70452 C623.215885,1255.05874 617.426142,1261.27545 618.616709,1267.12503 C620.198695,1275.03869 634.999236,1288.20637 641.955083,1299.27734 C649.824241,1311.88209 657.562926,1328.95765 662.398585,1337.23028 C666.74497,1344.75234 670.936418,1356.9818 674.092236,1360.55518 C690.955883,1379.85799 717.914886,1380.4454 726.607655,1404.3006 C738.317615,1436.65686 725.376315,1498.93004 726.607655,1529.92385 C727.113238,1540.70111 730.269056,1551.6905 729.535145,1561.99457 C728.466897,1576.1331 721.470277,1588.8276 720.720057,1602.90902 C720.556966,1608.21199 723.019645,1615.32612 723.737247,1623.37032 C724.479313,1632.70354 722.448825,1643.67661 723.737247,1652.50401 C724.72395,1660.43399 728.996944,1665.16587 729.535145,1673.03874 C731.092668,1699.95335 724.299912,1728.6057 729.535145,1751.80822 C731.777651,1761.82676 739.752819,1772.05741 744.082895,1781.04798 C749.261046,1791.28679 753.281248,1801.15847 758.736654,1810.18167 C778.780582,1817.05922 799.150694,1845.76051 825.807977,1827.66515 C828.091256,1817.6303 820.760299,1812.02547 817.058125,1807.20385 C811.716883,1800.22841 806.359332,1798.08275 802.436985,1789.72037 C799.868296,1784.23792 795.954103,1776.47111 796.712478,1766.43626 C797.413771,1752.71381 812.222467,1743.0053 811.268382,1728.44253 C810.428462,1717.40419 798.588029,1712.29703 799.476876,1702.18059 C809.074803,1687.36491 818.20792,1672.20658 817.058125,1646.69522 C831.214456,1645.30013 829.249205,1627.71059 837.517937,1620.43329 C849.472534,1615.938 864.248612,1614.21658 872.509189,1605.8542 C875.966726,1597.66316 875.803635,1585.63766 875.485607,1573.67742 C882.425144,1570.05509 893.132092,1569.93271 898.775053,1564.94792 C909.490156,1556.47949 909.490156,1543.18127 916.282911,1532.88535 C919.862767,1527.33763 927.397588,1523.37264 930.879588,1518.19205 C934.989491,1512.26088 940.46936,1503.58033 942.614012,1497.85313 C948.248818,1481.98501 940.811852,1474.6098 948.330364,1462.78826 C951.102917,1458.37456 957.316698,1458.09718 960.097406,1456.93868 C960.969945,1456.53892 961.883256,1451.75809 962.975969,1451.05646 C965.503885,1449.49005 969.597478,1449.33504 971.709511,1448.17654 C975.13443,1446.27563 977.02629,1443.76284 980.467517,1442.27801 C985.70275,1440.22209 996.246607,1442.04958 1003.76512,1436.47738 C1019.39743,1425.08823 1027.80479,1392.60959 1030.10437,1366.42924 C1030.59365,1360.70203 1027.95972,1349.42711 1030.10437,1342.95748 C1031.89022,1337.53214 1041.96112,1327.07305 1047.58777,1319.70601 C1054.68224,1310.03013 1062.81235,1304.89849 1065.02223,1293.36249 C1069.74373,1270.04574 1058.53935,1268.72408 1044.70105,1258.30579 L1044.70105,1258.30579 Z" id="Shape"></path>
                    <path d="M2658.36778,648.162507 C2657.95189,654.534228 2660.78968,657.40599 2667.17471,657.006228 C2667.67214,650.634507 2664.77727,647.656686 2658.36778,648.162507 L2658.36778,648.162507 Z" id="Shape"></path>
                    <path d="M2667.17471,729.909812 C2684.77227,723.236229 2704.46555,718.618567 2708.03725,697.839088 C2695.41398,692.022139 2684.26668,684.671408 2667.17471,683.268161 C2667.99017,700.025543 2654.35573,718.700151 2667.17471,729.909812 L2667.17471,729.909812 Z" id="Shape"></path>
                    <path d="M2655.57076,797.061714 C2650.25398,803.621078 2647.01662,810.498621 2640.85992,814.602303 C2625.71688,820.89244 2607.06739,830.764121 2602.97379,846.746453 C2600.03815,858.257974 2595.8467,871.768307 2614.59405,875.961732 C2621.69668,870.356902 2619.91899,855.91651 2629.23966,852.596035 C2641.67537,849.781383 2651.50978,843.001741 2661.37681,837.968 C2672.74428,832.183684 2683.29629,827.533389 2693.47319,820.451886 C2691.64657,787.190033 2702.20673,741.706878 2670.15928,738.671948 C2665.9923,752.671786 2673.64128,767.234554 2670.15928,779.586392 C2667.93308,787.026865 2659.77852,791.758745 2655.57076,797.061714 L2655.57076,797.061714 Z" id="Shape"></path>
                    <path d="M1464.86518,797.061714 C1460.52695,801.508049 1459.75226,817.074302 1470.712,814.602303 C1475.24594,810.155968 1475.95539,794.557081 1464.86518,797.061714 L1464.86518,797.061714 Z" id="Shape"></path>
                    <path d="M1511.71317,840.872395 C1521.60466,842.145107 1528.20986,839.966811 1526.18753,829.214022 C1517.69047,829.499566 1509.74792,830.25014 1511.71317,840.872395 L1511.71317,840.872395 Z" id="Shape"></path>
                    <path d="M2529.95779,957.63561 C2525.7745,961.869827 2525.7745,976.856833 2529.95779,981.009465 C2542.40166,980.634178 2542.86647,966.675133 2538.78103,957.63561 L2529.95779,957.63561 L2529.95779,957.63561 Z" id="Shape"></path>
                    <path d="M685.745114,1016.04985 C682.891015,1000.41017 666.777588,998.06055 650.762017,995.719085 L650.762017,997.799481 C646.798896,996.159639 642.974404,994.40558 639.149911,993.149185 L639.149911,989.796077 C639.549485,984.974454 621.144625,984.974454 621.642054,989.796077 C627.684589,991.42776 629.894477,997.08154 639.149911,995.727243 L639.149911,993.296036 L650.762017,997.889223 L650.762017,1001.42997 C656.404978,1011.39956 669.876324,1025.92153 685.745114,1016.04985 L685.745114,1016.04985 Z" id="Shape"></path>
                    <path d="M703.236663,1033.57412 C714.701986,1041.92834 734.321877,1039.21975 741.171714,1027.72454 C737.779414,1013.56154 698.564095,1008.34831 703.236663,1033.57412 L703.236663,1033.57412 Z" id="Shape"></path>
                    <path d="M2550.47468,1027.72454 C2519.16114,1026.68842 2535.60891,1075.83471 2544.62786,1086.17958 C2553.03522,1086.41617 2563.74217,1084.52342 2568.06409,1088.93712 C2556.7537,1098.93118 2566.53103,1113.76317 2568.06409,1124.08356 C2569.19757,1132.3154 2566.98768,1139.84562 2568.06409,1141.59152 C2571.33407,1147.99587 2586.72989,1157.46779 2591.32092,1156.23587 C2609.1468,1151.70795 2604.12359,1122.01133 2588.37712,1112.49046 C2588.85008,1105.25395 2588.85008,1098.29482 2585.49855,1094.91724 C2576.09634,1084.8008 2561.71983,1078.66568 2556.37859,1062.77309 C2552.51333,1051.71844 2560.78206,1037.56359 2550.47468,1027.72454 L2550.47468,1027.72454 Z" id="Shape"></path>
                    <path d="M2480.39433,1299.26102 C2481.44626,1286.94998 2467.87706,1279.91742 2460.03237,1278.8813 C2451.77179,1277.64938 2444.39191,1283.29501 2436.73477,1281.85913 C2432.56778,1280.82301 2425.26944,1277.24962 2422.07285,1275.84637 C2416.78054,1273.7415 2408.84614,1273.1541 2407.53326,1267.10871 C2407.6148,1257.51442 2412.45046,1252.58674 2410.38736,1240.80599 C2400.06367,1231.16274 2394.53488,1228.6989 2390.00094,1217.52188 C2384.03179,1203.03253 2386.83696,1172.49559 2381.29186,1162.11809 C2376.23603,1152.65433 2361.16638,1149.19516 2354.96076,1141.58336 C2351.65816,1137.63469 2350.95686,1129.80261 2349.1547,1127.01244 C2345.59116,1121.36681 2343.75638,1121.61157 2340.38039,1115.39485 C2339.63017,1113.0126 2337.95033,1111.8541 2334.56618,1112.4823 C2321.07853,1140.99596 2362.69944,1151.08791 2349.1547,1179.65868 C2334.02798,1176.28109 2331.07603,1160.64142 2311.2115,1162.11809 C2304.9651,1177.26826 2323.77769,1186.03856 2331.64685,1197.06057 C2332.53569,1198.37408 2330.89663,1201.47428 2331.64685,1202.86936 C2331.97303,1203.85653 2336.71899,1204.7458 2337.42844,1205.70033 C2338.33359,1207.10358 2336.78422,1210.24457 2337.42844,1211.67229 C2337.95033,1212.70025 2342.60659,1213.40188 2343.2508,1214.64196 C2347.68688,1222.25376 2351.51137,1237.40393 2354.96891,1240.80599 C2364.75439,1251.06927 2377.54076,1263.91062 2387.09791,1270.04574 C2390.84086,1272.59117 2397.47052,1272.9175 2401.74351,1275.84637 C2409.50666,1281.59806 2411.96119,1290.49889 2419.21875,1293.36249 C2422.5132,1294.71679 2431.92357,1291.88582 2439.58071,1293.36249 C2444.93826,1294.48019 2449.75761,1298.76336 2454.16108,1299.26102 C2463.60407,1300.32977 2471.00842,1298.4207 2480.39433,1299.26102 L2480.39433,1299.26102 Z" id="Shape"></path>
                    <path d="M2503.78978,1150.3455 C2483.78663,1170.26019 2464.76202,1191.1702 2436.72661,1202.86936 C2426.87589,1238.64401 2466.46632,1261.40598 2500.81336,1252.58674 C2507.14131,1237.41209 2521.19163,1220.4589 2524.21697,1205.70033 C2525.70926,1198.38224 2520.71051,1190.85202 2521.24056,1182.48965 C2521.844,1173.06668 2529.87624,1168.83246 2527.08738,1159.06684 C2520.40064,1155.15896 2517.42422,1147.38399 2503.78978,1150.3455 L2503.78978,1150.3455 Z" id="Shape"></path>
                    <path d="M2538.78103,1220.45075 C2528.02516,1228.62548 2527.42987,1252.21961 2535.91878,1264.22879 L2565.02243,1264.22879 C2568.05593,1255.04242 2563.20396,1239.79434 2565.02243,1223.40409 C2560.31725,1218.42746 2547.87338,1221.01368 2538.78103,1220.45075 L2538.78103,1220.45075 Z" id="Shape"></path>
                    <path d="M2748.88348,1240.80599 C2734.35204,1235.70698 2719.51888,1231.05668 2708.03725,1232.16623 C2700.38827,1232.73732 2693.47319,1239.37011 2684.77227,1237.88528 C2679.06407,1232.78627 2676.35675,1224.75839 2670.15113,1220.44259 C2662.33905,1220.44259 2653.36087,1219.28409 2649.70762,1223.39593 C2652.49649,1235.73961 2655.6523,1245.52971 2664.26353,1252.57042 C2667.58244,1255.23822 2674.3915,1253.63917 2678.80312,1255.38507 C2683.45123,1257.35125 2686.72936,1262.36052 2690.57017,1264.22064 C2695.90325,1266.8558 2700.77968,1264.50618 2705.10976,1267.10056 C2714.6343,1272.82776 2713.38665,1285.28566 2716.81972,1296.42189 C2731.0576,1299.74237 2739.39157,1309.72011 2754.68138,1307.97421 C2765.32309,1306.8565 2769.35145,1294.96154 2780.97986,1296.42189 C2796.40831,1301.34958 2797.63965,1320.49737 2821.9321,1316.75266 C2826.49866,1302.51623 2802.39376,1294.12122 2804.35086,1272.99093 C2787.35674,1260.49224 2772.53173,1249.33969 2748.88348,1240.80599 L2748.88348,1240.80599 Z" id="Shape"></path>
                </g>
                <g id="Group-5" transform="translate(366.000000, 631.000000)">
                    <use id="Rectangle-1" stroke="#979797" mask="url(#mask-2)" stroke-width="2" fill="#DDDDDD" opacity="0.349288713" xlink:href="#path-1"></use>
                    <g id="Group-4" transform="translate(325.000000, 201.000000)">
                        <text id="GDG-Cloud-Vancouver" font-family="ProductSans-Regular, Product Sans" font-size="140.5" font-weight="normal" fill="#4A4A4A">
                            <tspan x="360" y="149">GDG Cloud Vancouver</tspan>
                        </text>
                        <g id="Group-2">
                            <g id="Group-3" transform="translate(190.000000, 0.000000)">
                                <g id="separate">
                                    <g id="Group">
                                        <path d="M70.8209917,123.655239 L26.6495868,196.950631 L48.957686,196.950631 C54.2410331,196.950631 60.7960331,193.250829 63.5218182,188.707961 L82.3143388,157.468983 C84.5326033,152.894786 84.4556198,146.227166 81.9208678,142.003296 L70.8209917,123.655239 L70.8209917,123.655239 Z" id="Shape" fill="url(#radialGradient-3)"></path>
                                        <path d="M50.6313636,90.2687229 C53.3542975,94.791653 53.3542975,102.205499 50.6313636,106.748366 L1.01694215,189.613687 C-0.899090909,193.70654 1.09107438,196.950631 6.01516529,196.950631 L26.6467355,196.950631 L70.8181405,123.655239 L50.6313636,90.2687229 L50.6313636,90.2687229 Z" id="Shape" fill="url(#radialGradient-4)"></path>
                                        <path d="M6.01516529,0.0493686747 C0.717561983,0.0493686747 -1.38950413,3.76626024 1.33628099,8.29203855 L81.9208678,142.008993 C84.4556198,146.230014 84.5326033,152.897634 82.3143388,157.47468 L101.902355,124.908443 L26.6581405,0.0493686747 L6.01516529,0.0493686747 L6.01516529,0.0493686747 Z" id="Shape" fill="url(#radialGradient-5)"></path>
                                        <path d="M112.811198,90.2687229 L63.5218182,8.28919036 C60.7960331,3.76341205 54.2381818,0.0465204819 48.957686,0.0465204819 L26.6609917,0.0465204819 L101.905207,124.905595 L112.81405,106.748366 C115.536983,102.208347 115.536983,94.791653 112.811198,90.2687229 L112.811198,90.2687229 Z" id="Shape" fill="url(#radialGradient-6)"></path>
                                        <path d="M81.9208678,142.006145 L50.6313636,90.2687229 C53.3542975,94.791653 53.3542975,102.205499 50.6313636,106.748366 L39.6170248,125.073639 L82.3171901,157.471831 C84.5326033,152.897634 84.4556198,146.230014 81.9208678,142.006145 L81.9208678,142.006145 Z" id="Shape" fill="url(#linearGradient-7)"></path>
                                    </g>
                                    <path d="M112.811198,90.2671123 L63.5218182,8.28904322 C60.7960331,3.7633457 54.2381818,0.0465204819 48.957686,0.0465204819 L26.6609917,0.0465204819 L6.01801653,0.0465204819 C0.720413223,0.0465204819 -1.38665289,3.7633457 1.33913223,8.28904322 L50.6313636,90.2671123 C53.3542975,94.7899617 53.3542975,102.203675 50.6313636,106.746461 L1.01694215,189.610303 C-0.899090909,193.703083 1.09107438,196.947116 6.01516529,196.947116 L26.6467355,196.947116 L48.9548347,196.947116 C54.2381818,196.947116 60.7931818,193.24738 63.5189669,188.704594 L101.899504,124.903366 L112.808347,106.746461 C115.536983,102.206523 115.536983,94.7899617 112.811198,90.2671123 L112.811198,90.2671123 Z" id="Shape" fill="url(#radialGradient-8)"></path>
                                </g>
                            </g>
                            <g id="Google-Cloud-Platform" transform="translate(0.000000, 1.000000)">
                                <path d="M144.080043,155.487612 L121.758916,194.289172 L63.3023016,194.289172 C58.087457,194.288204 53.2716944,191.497181 50.678402,186.972864 L3.39481402,104.533501 C0.827886936,100.051144 0.827886936,94.5443268 3.39481402,90.0619699 L21.3880607,58.7007861 L43.5977684,97.291411 L77.0794594,155.487612 L144.080043,155.487612 Z" id="Shape" fill="#FBBC05"></path>
                                <path d="M217.776965,104.533315 L170.493377,186.985141 C167.902355,191.511716 163.085153,194.303574 157.869478,194.301448 L121.746453,194.301448 L144.067581,155.499889 L177.574011,97.291411 L144.067581,39.0952099 L188.536288,39.0952099 L217.764502,90.0617839 C220.35391,94.5369408 220.358661,100.053705 217.776965,104.533315 L217.776965,104.533315 Z" id="Shape" fill="#EA4335"></path>
                                <path d="M188.548565,39.0952099 L77.0794594,39.0952099 L43.5977684,97.291411 L21.3882468,58.6883234 L50.678588,7.6101438 C53.2695294,3.08355456 58.0866536,0.29162985 63.3023016,0.293650292 L157.88194,0.293650292 C163.095944,0.29774095 167.910255,3.08792313 170.50584,7.60995779 L188.548565,39.0952099 Z" id="Shape" fill="#4285F4"></path>
                                <polyline id="Shape" fill="#E0E0E0" points="144.080043 39.0952099 177.561734 97.291411 144.067581 155.487612 77.091736 155.487612 43.5977684 97.291411 77.0794594 39.0952099 144.080043 39.0952099"></polyline>
                                <circle id="Oval" fill="#FFFFFF" cx="110.58589" cy="97.291411" r="29.1043319"></circle>
                                <path d="M50.678402,8.81288055 C53.269424,4.28630521 58.0866257,1.49444769 63.3023016,1.49657304 L157.88194,1.49657304 C163.095944,1.5006637 167.910255,4.29084589 170.50584,8.81288055 L187.866655,39.0952099 L188.561028,39.0952099 L170.505654,7.6101438 C167.914632,3.08356847 163.09743,0.291710948 157.881754,0.293836302 L63.3023016,0.293836302 C58.087457,0.294803881 53.2716944,3.08582737 50.678402,7.6101438 L21.3880607,58.6883234 L21.7353403,59.2960161 L50.678402,8.81288055 Z" id="Shape" fill="#FFFFFF" opacity="0.2"></path>
                                <polyline id="Shape" fill-opacity="0.2" fill="#1A237E" points="43.5983264 97.291411 77.0800174 39.0946519 188.548007 39.0946519 187.854192 37.8800105 77.0800174 37.8800105 43.5983264 96.0767697"></polyline>
                                <path d="M3.39481402,91.2647067 L21.3880607,59.8910602 L43.5975824,98.4941478 L77.0792734,156.690349 L143.373021,156.690349 L144.079857,155.47515 L77.0792734,155.47515 L43.5975824,97.291411 L21.3880607,58.6883234 L3.39481402,90.0495073 C2.03930925,92.4365518 1.38188667,95.1564766 1.4975182,97.8991037 C1.59104837,95.5678532 2.24163089,93.2929191 3.39481402,91.2647067 L3.39481402,91.2647067 Z" id="Shape" fill="#FFFFFF" opacity="0.2"></path>
                                <g id="Group" opacity="0.2" transform="translate(0.840347, 95.431317)" fill="#BF360C">
                                    <path d="M121.612942,97.6424693 L62.4619546,97.6424693 C57.24711,97.6415017 52.4313474,94.8504782 49.838055,90.3261618 L2.55446701,7.88679831 C1.40128388,5.85858585 0.750701356,3.58365182 0.65717119,1.25240125 C0.530907573,3.99605812 1.18903358,6.71889318 2.55446701,9.10199769 L49.838055,91.5538238 C52.429077,96.0803991 57.2462787,98.8722567 62.4619546,98.8701313 L120.918569,98.8701313 L121.612942,97.6424693 Z" id="Shape"></path>
                                </g>
                                <g id="Group" opacity="0.2" transform="translate(121.746453, 37.768405)" fill="#3E2723">
                                    <polygon id="Shape" points="56.5096539 59.5230061 23.027963 1.32624698 22.334148 1.32624698 55.8269995 59.5230061"></polygon>
                                    <path d="M96.0305119,65.5497105 L48.7469239,148.001537 C46.1559019,152.528112 41.3387002,155.319969 36.1230243,155.317844 L0.706835698,155.317844 L0,156.533044 L36.1230243,156.533044 C41.3370285,156.528953 46.1513395,153.738771 48.7469239,149.216736 L96.0305119,66.7649099 C97.3903235,64.3795718 98.04805,61.6583897 97.9278077,58.9153134 C97.8342776,61.246564 97.183695,63.521498 96.0305119,65.5497105 L96.0305119,65.5497105 Z" id="Shape"></path>
                                </g>
                                <g id="Group" opacity="0.2" transform="translate(121.746453, 37.768405)" fill="#FFFFFF">
                                    <path d="M66.8021118,2.52972776 L96.0303259,53.4963018 C97.183509,55.5245142 97.8340915,57.7994483 97.9276217,60.1306988 C98.0538853,57.387042 97.3957593,54.6642069 96.0303259,52.2811024 L66.8021118,1.31452839 L22.3335899,1.31452839 L23.0404256,2.52972776" id="Shape"></path>
                                    <polygon id="Shape" points="22.334148 118.934407 56.5096539 59.5230061 55.8269995 59.5230061 22.334148 117.719765 0.0130206576 156.521325 0.706835698 156.521325"></polygon>
                                </g>
                                <path d="M217.776965,90.0495073 L188.548751,39.0829333 L170.493377,7.59768117 C167.902355,3.07110584 163.085153,0.279248318 157.869478,0.281373672 L63.3023016,0.281373672 C58.087457,0.282341252 53.2716944,3.07336474 50.678402,7.59768117 L3.39481402,90.0495073 C0.827886936,94.5318642 0.827886936,100.038681 3.39481402,104.521038 L50.678402,186.972864 C53.269424,191.49944 58.0866257,194.291297 63.3023016,194.289172 L157.88194,194.289172 C163.095944,194.285081 167.910255,191.494899 170.50584,186.972864 L217.789428,104.521038 C220.358673,100.038111 220.353928,94.5280029 217.776965,90.0495073 L217.776965,90.0495073 Z" id="Shape" fill="url(#radialGradient-9)"></path>
                            </g>
                        </g>
                    </g>
                </g>
            </g>
        </g>
    </g>
</svg>